<?xml version="1.0" encoding="utf-8" standalone="no"?>
<!DOCTYPE svg PUBLIC "-//W3C//DTD SVG 1.1//EN"
  "http://www.w3.org/Graphics/SVG/1.1/DTD/svg11.dtd">
<svg xmlns:xlink="http://www.w3.org/1999/xlink" width="998.5625pt" height="370.401094pt" viewBox="0 0 998.5625 370.401094" xmlns="http://www.w3.org/2000/svg" version="1.1">
 <metadata>
  <rdf:RDF xmlns:dc="http://purl.org/dc/elements/1.1/" xmlns:cc="http://creativecommons.org/ns#" xmlns:rdf="http://www.w3.org/1999/02/22-rdf-syntax-ns#">
   <cc:Work>
    <dc:type rdf:resource="http://purl.org/dc/dcmitype/StillImage"/>
    <dc:date>2026-06-14T17:44:06.944244</dc:date>
    <dc:format>image/svg+xml</dc:format>
    <dc:creator>
     <cc:Agent>
      <dc:title>Matplotlib v3.10.8, https://matplotlib.org/</dc:title>
     </cc:Agent>
    </dc:creator>
   </cc:Work>
  </rdf:RDF>
 </metadata>
 <defs>
  <style type="text/css">*{stroke-linejoin: round; stroke-linecap: butt}</style>
 </defs>
 <g id="figure_1">
  <g id="patch_1">
   <path d="M 0 370.401094 
L 998.5625 370.401094 
L 998.5625 0 
L 0 0 
z
" style="fill: #ffffff"/>
  </g>
  <g id="axes_1">
   <g id="patch_2">
    <path d="M 53.6425 330.88 
L 494.8325 330.88 
L 494.8325 68.64 
L 53.6425 68.64 
z
" style="fill: #ffffff"/>
   </g>
   <g id="matplotlib.axis_1">
    <g id="xtick_1">
     <g id="line2d_1">
      <path d="M 73.696591 330.88 
L 73.696591 68.64 
" clip-path="url(#pfdb6368beb)" style="fill: none; stroke: #cccccc; stroke-width: 0.8; stroke-linecap: round"/>
     </g>
     <g id="text_1">
      <!-- 0 -->
      <g style="fill: #262626" transform="translate(70.638075 345.753594) scale(0.11 -0.11)">
       <defs>
        <path id="ArialMT-30" d="M 266 2259 
Q 266 3072 433 3567 
Q 600 4063 929 4331 
Q 1259 4600 1759 4600 
Q 2128 4600 2406 4451 
Q 2684 4303 2865 4023 
Q 3047 3744 3150 3342 
Q 3253 2941 3253 2259 
Q 3253 1453 3087 958 
Q 2922 463 2592 192 
Q 2263 -78 1759 -78 
Q 1097 -78 719 397 
Q 266 969 266 2259 
z
M 844 2259 
Q 844 1131 1108 757 
Q 1372 384 1759 384 
Q 2147 384 2411 759 
Q 2675 1134 2675 2259 
Q 2675 3391 2411 3762 
Q 2147 4134 1753 4134 
Q 1366 4134 1134 3806 
Q 844 3388 844 2259 
z
" transform="scale(0.015625)"/>
       </defs>
       <use xlink:href="#ArialMT-30"/>
      </g>
     </g>
    </g>
    <g id="xtick_2">
     <g id="line2d_2">
      <path d="M 140.543561 330.88 
L 140.543561 68.64 
" clip-path="url(#pfdb6368beb)" style="fill: none; stroke: #cccccc; stroke-width: 0.8; stroke-linecap: round"/>
     </g>
     <g id="text_2">
      <!-- 10 -->
      <g style="fill: #262626" transform="translate(134.426529 345.753594) scale(0.11 -0.11)">
       <defs>
        <path id="ArialMT-31" d="M 2384 0 
L 1822 0 
L 1822 3584 
Q 1619 3391 1289 3197 
Q 959 3003 697 2906 
L 697 3450 
Q 1169 3672 1522 3987 
Q 1875 4303 2022 4600 
L 2384 4600 
L 2384 0 
z
" transform="scale(0.015625)"/>
       </defs>
       <use xlink:href="#ArialMT-31"/>
       <use xlink:href="#ArialMT-30" transform="translate(55.615234 0)"/>
      </g>
     </g>
    </g>
    <g id="xtick_3">
     <g id="line2d_3">
      <path d="M 207.39053 330.88 
L 207.39053 68.64 
" clip-path="url(#pfdb6368beb)" style="fill: none; stroke: #cccccc; stroke-width: 0.8; stroke-linecap: round"/>
     </g>
     <g id="text_3">
      <!-- 20 -->
      <g style="fill: #262626" transform="translate(201.273499 345.753594) scale(0.11 -0.11)">
       <defs>
        <path id="ArialMT-32" d="M 3222 541 
L 3222 0 
L 194 0 
Q 188 203 259 391 
Q 375 700 629 1000 
Q 884 1300 1366 1694 
Q 2113 2306 2375 2664 
Q 2638 3022 2638 3341 
Q 2638 3675 2398 3904 
Q 2159 4134 1775 4134 
Q 1369 4134 1125 3890 
Q 881 3647 878 3216 
L 300 3275 
Q 359 3922 746 4261 
Q 1134 4600 1788 4600 
Q 2447 4600 2831 4234 
Q 3216 3869 3216 3328 
Q 3216 3053 3103 2787 
Q 2991 2522 2730 2228 
Q 2469 1934 1863 1422 
Q 1356 997 1212 845 
Q 1069 694 975 541 
L 3222 541 
z
" transform="scale(0.015625)"/>
       </defs>
       <use xlink:href="#ArialMT-32"/>
       <use xlink:href="#ArialMT-30" transform="translate(55.615234 0)"/>
      </g>
     </g>
    </g>
    <g id="xtick_4">
     <g id="line2d_4">
      <path d="M 274.2375 330.88 
L 274.2375 68.64 
" clip-path="url(#pfdb6368beb)" style="fill: none; stroke: #cccccc; stroke-width: 0.8; stroke-linecap: round"/>
     </g>
     <g id="text_4">
      <!-- 30 -->
      <g style="fill: #262626" transform="translate(268.120469 345.753594) scale(0.11 -0.11)">
       <defs>
        <path id="ArialMT-33" d="M 269 1209 
L 831 1284 
Q 928 806 1161 595 
Q 1394 384 1728 384 
Q 2125 384 2398 659 
Q 2672 934 2672 1341 
Q 2672 1728 2419 1979 
Q 2166 2231 1775 2231 
Q 1616 2231 1378 2169 
L 1441 2663 
Q 1497 2656 1531 2656 
Q 1891 2656 2178 2843 
Q 2466 3031 2466 3422 
Q 2466 3731 2256 3934 
Q 2047 4138 1716 4138 
Q 1388 4138 1169 3931 
Q 950 3725 888 3313 
L 325 3413 
Q 428 3978 793 4289 
Q 1159 4600 1703 4600 
Q 2078 4600 2393 4439 
Q 2709 4278 2876 4000 
Q 3044 3722 3044 3409 
Q 3044 3113 2884 2869 
Q 2725 2625 2413 2481 
Q 2819 2388 3044 2092 
Q 3269 1797 3269 1353 
Q 3269 753 2831 336 
Q 2394 -81 1725 -81 
Q 1122 -81 723 278 
Q 325 638 269 1209 
z
" transform="scale(0.015625)"/>
       </defs>
       <use xlink:href="#ArialMT-33"/>
       <use xlink:href="#ArialMT-30" transform="translate(55.615234 0)"/>
      </g>
     </g>
    </g>
    <g id="xtick_5">
     <g id="line2d_5">
      <path d="M 341.08447 330.88 
L 341.08447 68.64 
" clip-path="url(#pfdb6368beb)" style="fill: none; stroke: #cccccc; stroke-width: 0.8; stroke-linecap: round"/>
     </g>
     <g id="text_5">
      <!-- 40 -->
      <g style="fill: #262626" transform="translate(334.967438 345.753594) scale(0.11 -0.11)">
       <defs>
        <path id="ArialMT-34" d="M 2069 0 
L 2069 1097 
L 81 1097 
L 81 1613 
L 2172 4581 
L 2631 4581 
L 2631 1613 
L 3250 1613 
L 3250 1097 
L 2631 1097 
L 2631 0 
L 2069 0 
z
M 2069 1613 
L 2069 3678 
L 634 1613 
L 2069 1613 
z
" transform="scale(0.015625)"/>
       </defs>
       <use xlink:href="#ArialMT-34"/>
       <use xlink:href="#ArialMT-30" transform="translate(55.615234 0)"/>
      </g>
     </g>
    </g>
    <g id="xtick_6">
     <g id="line2d_6">
      <path d="M 407.931439 330.88 
L 407.931439 68.64 
" clip-path="url(#pfdb6368beb)" style="fill: none; stroke: #cccccc; stroke-width: 0.8; stroke-linecap: round"/>
     </g>
     <g id="text_6">
      <!-- 50 -->
      <g style="fill: #262626" transform="translate(401.814408 345.753594) scale(0.11 -0.11)">
       <defs>
        <path id="ArialMT-35" d="M 266 1200 
L 856 1250 
Q 922 819 1161 601 
Q 1400 384 1738 384 
Q 2144 384 2425 690 
Q 2706 997 2706 1503 
Q 2706 1984 2436 2262 
Q 2166 2541 1728 2541 
Q 1456 2541 1237 2417 
Q 1019 2294 894 2097 
L 366 2166 
L 809 4519 
L 3088 4519 
L 3088 3981 
L 1259 3981 
L 1013 2750 
Q 1425 3038 1878 3038 
Q 2478 3038 2890 2622 
Q 3303 2206 3303 1553 
Q 3303 931 2941 478 
Q 2500 -78 1738 -78 
Q 1113 -78 717 272 
Q 322 622 266 1200 
z
" transform="scale(0.015625)"/>
       </defs>
       <use xlink:href="#ArialMT-35"/>
       <use xlink:href="#ArialMT-30" transform="translate(55.615234 0)"/>
      </g>
     </g>
    </g>
    <g id="xtick_7">
     <g id="line2d_7">
      <path d="M 474.778409 330.88 
L 474.778409 68.64 
" clip-path="url(#pfdb6368beb)" style="fill: none; stroke: #cccccc; stroke-width: 0.8; stroke-linecap: round"/>
     </g>
     <g id="text_7">
      <!-- 60 -->
      <g style="fill: #262626" transform="translate(468.661378 345.753594) scale(0.11 -0.11)">
       <defs>
        <path id="ArialMT-36" d="M 3184 3459 
L 2625 3416 
Q 2550 3747 2413 3897 
Q 2184 4138 1850 4138 
Q 1581 4138 1378 3988 
Q 1113 3794 959 3422 
Q 806 3050 800 2363 
Q 1003 2672 1297 2822 
Q 1591 2972 1913 2972 
Q 2475 2972 2870 2558 
Q 3266 2144 3266 1488 
Q 3266 1056 3080 686 
Q 2894 316 2569 119 
Q 2244 -78 1831 -78 
Q 1128 -78 684 439 
Q 241 956 241 2144 
Q 241 3472 731 4075 
Q 1159 4600 1884 4600 
Q 2425 4600 2770 4297 
Q 3116 3994 3184 3459 
z
M 888 1484 
Q 888 1194 1011 928 
Q 1134 663 1356 523 
Q 1578 384 1822 384 
Q 2178 384 2434 671 
Q 2691 959 2691 1453 
Q 2691 1928 2437 2201 
Q 2184 2475 1800 2475 
Q 1419 2475 1153 2201 
Q 888 1928 888 1484 
z
" transform="scale(0.015625)"/>
       </defs>
       <use xlink:href="#ArialMT-36"/>
       <use xlink:href="#ArialMT-30" transform="translate(55.615234 0)"/>
      </g>
     </g>
    </g>
    <g id="text_8">
     <!-- Days Since Last Login -->
     <g style="fill: #262626" transform="translate(214.539375 360.675469) scale(0.12 -0.12)">
      <defs>
       <path id="ArialMT-44" d="M 494 0 
L 494 4581 
L 2072 4581 
Q 2606 4581 2888 4516 
Q 3281 4425 3559 4188 
Q 3922 3881 4101 3404 
Q 4281 2928 4281 2316 
Q 4281 1794 4159 1391 
Q 4038 988 3847 723 
Q 3656 459 3429 307 
Q 3203 156 2883 78 
Q 2563 0 2147 0 
L 494 0 
z
M 1100 541 
L 2078 541 
Q 2531 541 2789 625 
Q 3047 709 3200 863 
Q 3416 1078 3536 1442 
Q 3656 1806 3656 2325 
Q 3656 3044 3420 3430 
Q 3184 3816 2847 3947 
Q 2603 4041 2063 4041 
L 1100 4041 
L 1100 541 
z
" transform="scale(0.015625)"/>
       <path id="ArialMT-61" d="M 2588 409 
Q 2275 144 1986 34 
Q 1697 -75 1366 -75 
Q 819 -75 525 192 
Q 231 459 231 875 
Q 231 1119 342 1320 
Q 453 1522 633 1644 
Q 813 1766 1038 1828 
Q 1203 1872 1538 1913 
Q 2219 1994 2541 2106 
Q 2544 2222 2544 2253 
Q 2544 2597 2384 2738 
Q 2169 2928 1744 2928 
Q 1347 2928 1158 2789 
Q 969 2650 878 2297 
L 328 2372 
Q 403 2725 575 2942 
Q 747 3159 1072 3276 
Q 1397 3394 1825 3394 
Q 2250 3394 2515 3294 
Q 2781 3194 2906 3042 
Q 3031 2891 3081 2659 
Q 3109 2516 3109 2141 
L 3109 1391 
Q 3109 606 3145 398 
Q 3181 191 3288 0 
L 2700 0 
Q 2613 175 2588 409 
z
M 2541 1666 
Q 2234 1541 1622 1453 
Q 1275 1403 1131 1340 
Q 988 1278 909 1158 
Q 831 1038 831 891 
Q 831 666 1001 516 
Q 1172 366 1500 366 
Q 1825 366 2078 508 
Q 2331 650 2450 897 
Q 2541 1088 2541 1459 
L 2541 1666 
z
" transform="scale(0.015625)"/>
       <path id="ArialMT-79" d="M 397 -1278 
L 334 -750 
Q 519 -800 656 -800 
Q 844 -800 956 -737 
Q 1069 -675 1141 -563 
Q 1194 -478 1313 -144 
Q 1328 -97 1363 -6 
L 103 3319 
L 709 3319 
L 1400 1397 
Q 1534 1031 1641 628 
Q 1738 1016 1872 1384 
L 2581 3319 
L 3144 3319 
L 1881 -56 
Q 1678 -603 1566 -809 
Q 1416 -1088 1222 -1217 
Q 1028 -1347 759 -1347 
Q 597 -1347 397 -1278 
z
" transform="scale(0.015625)"/>
       <path id="ArialMT-73" d="M 197 991 
L 753 1078 
Q 800 744 1014 566 
Q 1228 388 1613 388 
Q 2000 388 2187 545 
Q 2375 703 2375 916 
Q 2375 1106 2209 1216 
Q 2094 1291 1634 1406 
Q 1016 1563 777 1677 
Q 538 1791 414 1992 
Q 291 2194 291 2438 
Q 291 2659 392 2848 
Q 494 3038 669 3163 
Q 800 3259 1026 3326 
Q 1253 3394 1513 3394 
Q 1903 3394 2198 3281 
Q 2494 3169 2634 2976 
Q 2775 2784 2828 2463 
L 2278 2388 
Q 2241 2644 2061 2787 
Q 1881 2931 1553 2931 
Q 1166 2931 1000 2803 
Q 834 2675 834 2503 
Q 834 2394 903 2306 
Q 972 2216 1119 2156 
Q 1203 2125 1616 2013 
Q 2213 1853 2448 1751 
Q 2684 1650 2818 1456 
Q 2953 1263 2953 975 
Q 2953 694 2789 445 
Q 2625 197 2315 61 
Q 2006 -75 1616 -75 
Q 969 -75 630 194 
Q 291 463 197 991 
z
" transform="scale(0.015625)"/>
       <path id="ArialMT-20" transform="scale(0.015625)"/>
       <path id="ArialMT-53" d="M 288 1472 
L 859 1522 
Q 900 1178 1048 958 
Q 1197 738 1509 602 
Q 1822 466 2213 466 
Q 2559 466 2825 569 
Q 3091 672 3220 851 
Q 3350 1031 3350 1244 
Q 3350 1459 3225 1620 
Q 3100 1781 2813 1891 
Q 2628 1963 1997 2114 
Q 1366 2266 1113 2400 
Q 784 2572 623 2826 
Q 463 3081 463 3397 
Q 463 3744 659 4045 
Q 856 4347 1234 4503 
Q 1613 4659 2075 4659 
Q 2584 4659 2973 4495 
Q 3363 4331 3572 4012 
Q 3781 3694 3797 3291 
L 3216 3247 
Q 3169 3681 2898 3903 
Q 2628 4125 2100 4125 
Q 1550 4125 1298 3923 
Q 1047 3722 1047 3438 
Q 1047 3191 1225 3031 
Q 1400 2872 2139 2705 
Q 2878 2538 3153 2413 
Q 3553 2228 3743 1945 
Q 3934 1663 3934 1294 
Q 3934 928 3725 604 
Q 3516 281 3123 101 
Q 2731 -78 2241 -78 
Q 1619 -78 1198 103 
Q 778 284 539 648 
Q 300 1013 288 1472 
z
" transform="scale(0.015625)"/>
       <path id="ArialMT-69" d="M 425 3934 
L 425 4581 
L 988 4581 
L 988 3934 
L 425 3934 
z
M 425 0 
L 425 3319 
L 988 3319 
L 988 0 
L 425 0 
z
" transform="scale(0.015625)"/>
       <path id="ArialMT-6e" d="M 422 0 
L 422 3319 
L 928 3319 
L 928 2847 
Q 1294 3394 1984 3394 
Q 2284 3394 2536 3286 
Q 2788 3178 2913 3003 
Q 3038 2828 3088 2588 
Q 3119 2431 3119 2041 
L 3119 0 
L 2556 0 
L 2556 2019 
Q 2556 2363 2490 2533 
Q 2425 2703 2258 2804 
Q 2091 2906 1866 2906 
Q 1506 2906 1245 2678 
Q 984 2450 984 1813 
L 984 0 
L 422 0 
z
" transform="scale(0.015625)"/>
       <path id="ArialMT-63" d="M 2588 1216 
L 3141 1144 
Q 3050 572 2676 248 
Q 2303 -75 1759 -75 
Q 1078 -75 664 370 
Q 250 816 250 1647 
Q 250 2184 428 2587 
Q 606 2991 970 3192 
Q 1334 3394 1763 3394 
Q 2303 3394 2647 3120 
Q 2991 2847 3088 2344 
L 2541 2259 
Q 2463 2594 2264 2762 
Q 2066 2931 1784 2931 
Q 1359 2931 1093 2626 
Q 828 2322 828 1663 
Q 828 994 1084 691 
Q 1341 388 1753 388 
Q 2084 388 2306 591 
Q 2528 794 2588 1216 
z
" transform="scale(0.015625)"/>
       <path id="ArialMT-65" d="M 2694 1069 
L 3275 997 
Q 3138 488 2766 206 
Q 2394 -75 1816 -75 
Q 1088 -75 661 373 
Q 234 822 234 1631 
Q 234 2469 665 2931 
Q 1097 3394 1784 3394 
Q 2450 3394 2872 2941 
Q 3294 2488 3294 1666 
Q 3294 1616 3291 1516 
L 816 1516 
Q 847 969 1125 678 
Q 1403 388 1819 388 
Q 2128 388 2347 550 
Q 2566 713 2694 1069 
z
M 847 1978 
L 2700 1978 
Q 2663 2397 2488 2606 
Q 2219 2931 1791 2931 
Q 1403 2931 1139 2672 
Q 875 2413 847 1978 
z
" transform="scale(0.015625)"/>
       <path id="ArialMT-4c" d="M 469 0 
L 469 4581 
L 1075 4581 
L 1075 541 
L 3331 541 
L 3331 0 
L 469 0 
z
" transform="scale(0.015625)"/>
       <path id="ArialMT-74" d="M 1650 503 
L 1731 6 
Q 1494 -44 1306 -44 
Q 1000 -44 831 53 
Q 663 150 594 308 
Q 525 466 525 972 
L 525 2881 
L 113 2881 
L 113 3319 
L 525 3319 
L 525 4141 
L 1084 4478 
L 1084 3319 
L 1650 3319 
L 1650 2881 
L 1084 2881 
L 1084 941 
Q 1084 700 1114 631 
Q 1144 563 1211 522 
Q 1278 481 1403 481 
Q 1497 481 1650 503 
z
" transform="scale(0.015625)"/>
       <path id="ArialMT-6f" d="M 213 1659 
Q 213 2581 725 3025 
Q 1153 3394 1769 3394 
Q 2453 3394 2887 2945 
Q 3322 2497 3322 1706 
Q 3322 1066 3130 698 
Q 2938 331 2570 128 
Q 2203 -75 1769 -75 
Q 1072 -75 642 372 
Q 213 819 213 1659 
z
M 791 1659 
Q 791 1022 1069 705 
Q 1347 388 1769 388 
Q 2188 388 2466 706 
Q 2744 1025 2744 1678 
Q 2744 2294 2464 2611 
Q 2184 2928 1769 2928 
Q 1347 2928 1069 2612 
Q 791 2297 791 1659 
z
" transform="scale(0.015625)"/>
       <path id="ArialMT-67" d="M 319 -275 
L 866 -356 
Q 900 -609 1056 -725 
Q 1266 -881 1628 -881 
Q 2019 -881 2231 -725 
Q 2444 -569 2519 -288 
Q 2563 -116 2559 434 
Q 2191 0 1641 0 
Q 956 0 581 494 
Q 206 988 206 1678 
Q 206 2153 378 2554 
Q 550 2956 876 3175 
Q 1203 3394 1644 3394 
Q 2231 3394 2613 2919 
L 2613 3319 
L 3131 3319 
L 3131 450 
Q 3131 -325 2973 -648 
Q 2816 -972 2473 -1159 
Q 2131 -1347 1631 -1347 
Q 1038 -1347 672 -1080 
Q 306 -813 319 -275 
z
M 784 1719 
Q 784 1066 1043 766 
Q 1303 466 1694 466 
Q 2081 466 2343 764 
Q 2606 1063 2606 1700 
Q 2606 2309 2336 2618 
Q 2066 2928 1684 2928 
Q 1309 2928 1046 2623 
Q 784 2319 784 1719 
z
" transform="scale(0.015625)"/>
      </defs>
      <use xlink:href="#ArialMT-44"/>
      <use xlink:href="#ArialMT-61" transform="translate(72.216797 0)"/>
      <use xlink:href="#ArialMT-79" transform="translate(127.832031 0)"/>
      <use xlink:href="#ArialMT-73" transform="translate(177.832031 0)"/>
      <use xlink:href="#ArialMT-20" transform="translate(227.832031 0)"/>
      <use xlink:href="#ArialMT-53" transform="translate(255.615234 0)"/>
      <use xlink:href="#ArialMT-69" transform="translate(322.314453 0)"/>
      <use xlink:href="#ArialMT-6e" transform="translate(344.53125 0)"/>
      <use xlink:href="#ArialMT-63" transform="translate(400.146484 0)"/>
      <use xlink:href="#ArialMT-65" transform="translate(450.146484 0)"/>
      <use xlink:href="#ArialMT-20" transform="translate(505.761719 0)"/>
      <use xlink:href="#ArialMT-4c" transform="translate(533.544922 0)"/>
      <use xlink:href="#ArialMT-61" transform="translate(589.160156 0)"/>
      <use xlink:href="#ArialMT-73" transform="translate(644.775391 0)"/>
      <use xlink:href="#ArialMT-74" transform="translate(694.775391 0)"/>
      <use xlink:href="#ArialMT-20" transform="translate(722.558594 0)"/>
      <use xlink:href="#ArialMT-4c" transform="translate(750.341797 0)"/>
      <use xlink:href="#ArialMT-6f" transform="translate(805.957031 0)"/>
      <use xlink:href="#ArialMT-67" transform="translate(861.572266 0)"/>
      <use xlink:href="#ArialMT-69" transform="translate(917.1875 0)"/>
      <use xlink:href="#ArialMT-6e" transform="translate(939.404297 0)"/>
     </g>
    </g>
   </g>
   <g id="matplotlib.axis_2">
    <g id="ytick_1">
     <g id="line2d_8">
      <path d="M 53.6425 330.88 
L 494.8325 330.88 
" clip-path="url(#pfdb6368beb)" style="fill: none; stroke: #cccccc; stroke-width: 0.8; stroke-linecap: round"/>
     </g>
     <g id="text_9">
      <!-- 0 -->
      <g style="fill: #262626" transform="translate(40.525469 334.816797) scale(0.11 -0.11)">
       <use xlink:href="#ArialMT-30"/>
      </g>
     </g>
    </g>
    <g id="ytick_2">
     <g id="line2d_9">
      <path d="M 53.6425 297.996211 
L 494.8325 297.996211 
" clip-path="url(#pfdb6368beb)" style="fill: none; stroke: #cccccc; stroke-width: 0.8; stroke-linecap: round"/>
     </g>
     <g id="text_10">
      <!-- 200 -->
      <g style="fill: #262626" transform="translate(28.291406 301.933007) scale(0.11 -0.11)">
       <use xlink:href="#ArialMT-32"/>
       <use xlink:href="#ArialMT-30" transform="translate(55.615234 0)"/>
       <use xlink:href="#ArialMT-30" transform="translate(111.230469 0)"/>
      </g>
     </g>
    </g>
    <g id="ytick_3">
     <g id="line2d_10">
      <path d="M 53.6425 265.112421 
L 494.8325 265.112421 
" clip-path="url(#pfdb6368beb)" style="fill: none; stroke: #cccccc; stroke-width: 0.8; stroke-linecap: round"/>
     </g>
     <g id="text_11">
      <!-- 400 -->
      <g style="fill: #262626" transform="translate(28.291406 269.049218) scale(0.11 -0.11)">
       <use xlink:href="#ArialMT-34"/>
       <use xlink:href="#ArialMT-30" transform="translate(55.615234 0)"/>
       <use xlink:href="#ArialMT-30" transform="translate(111.230469 0)"/>
      </g>
     </g>
    </g>
    <g id="ytick_4">
     <g id="line2d_11">
      <path d="M 53.6425 232.228632 
L 494.8325 232.228632 
" clip-path="url(#pfdb6368beb)" style="fill: none; stroke: #cccccc; stroke-width: 0.8; stroke-linecap: round"/>
     </g>
     <g id="text_12">
      <!-- 600 -->
      <g style="fill: #262626" transform="translate(28.291406 236.165428) scale(0.11 -0.11)">
       <use xlink:href="#ArialMT-36"/>
       <use xlink:href="#ArialMT-30" transform="translate(55.615234 0)"/>
       <use xlink:href="#ArialMT-30" transform="translate(111.230469 0)"/>
      </g>
     </g>
    </g>
    <g id="ytick_5">
     <g id="line2d_12">
      <path d="M 53.6425 199.344842 
L 494.8325 199.344842 
" clip-path="url(#pfdb6368beb)" style="fill: none; stroke: #cccccc; stroke-width: 0.8; stroke-linecap: round"/>
     </g>
     <g id="text_13">
      <!-- 800 -->
      <g style="fill: #262626" transform="translate(28.291406 203.281639) scale(0.11 -0.11)">
       <defs>
        <path id="ArialMT-38" d="M 1131 2484 
Q 781 2613 612 2850 
Q 444 3088 444 3419 
Q 444 3919 803 4259 
Q 1163 4600 1759 4600 
Q 2359 4600 2725 4251 
Q 3091 3903 3091 3403 
Q 3091 3084 2923 2848 
Q 2756 2613 2416 2484 
Q 2838 2347 3058 2040 
Q 3278 1734 3278 1309 
Q 3278 722 2862 322 
Q 2447 -78 1769 -78 
Q 1091 -78 675 323 
Q 259 725 259 1325 
Q 259 1772 486 2073 
Q 713 2375 1131 2484 
z
M 1019 3438 
Q 1019 3113 1228 2906 
Q 1438 2700 1772 2700 
Q 2097 2700 2305 2904 
Q 2513 3109 2513 3406 
Q 2513 3716 2298 3927 
Q 2084 4138 1766 4138 
Q 1444 4138 1231 3931 
Q 1019 3725 1019 3438 
z
M 838 1322 
Q 838 1081 952 856 
Q 1066 631 1291 507 
Q 1516 384 1775 384 
Q 2178 384 2440 643 
Q 2703 903 2703 1303 
Q 2703 1709 2433 1975 
Q 2163 2241 1756 2241 
Q 1359 2241 1098 1978 
Q 838 1716 838 1322 
z
" transform="scale(0.015625)"/>
       </defs>
       <use xlink:href="#ArialMT-38"/>
       <use xlink:href="#ArialMT-30" transform="translate(55.615234 0)"/>
       <use xlink:href="#ArialMT-30" transform="translate(111.230469 0)"/>
      </g>
     </g>
    </g>
    <g id="ytick_6">
     <g id="line2d_13">
      <path d="M 53.6425 166.461053 
L 494.8325 166.461053 
" clip-path="url(#pfdb6368beb)" style="fill: none; stroke: #cccccc; stroke-width: 0.8; stroke-linecap: round"/>
     </g>
     <g id="text_14">
      <!-- 1000 -->
      <g style="fill: #262626" transform="translate(22.174375 170.39785) scale(0.11 -0.11)">
       <use xlink:href="#ArialMT-31"/>
       <use xlink:href="#ArialMT-30" transform="translate(55.615234 0)"/>
       <use xlink:href="#ArialMT-30" transform="translate(111.230469 0)"/>
       <use xlink:href="#ArialMT-30" transform="translate(166.845703 0)"/>
      </g>
     </g>
    </g>
    <g id="ytick_7">
     <g id="line2d_14">
      <path d="M 53.6425 133.577263 
L 494.8325 133.577263 
" clip-path="url(#pfdb6368beb)" style="fill: none; stroke: #cccccc; stroke-width: 0.8; stroke-linecap: round"/>
     </g>
     <g id="text_15">
      <!-- 1200 -->
      <g style="fill: #262626" transform="translate(22.174375 137.51406) scale(0.11 -0.11)">
       <use xlink:href="#ArialMT-31"/>
       <use xlink:href="#ArialMT-32" transform="translate(55.615234 0)"/>
       <use xlink:href="#ArialMT-30" transform="translate(111.230469 0)"/>
       <use xlink:href="#ArialMT-30" transform="translate(166.845703 0)"/>
      </g>
     </g>
    </g>
    <g id="ytick_8">
     <g id="line2d_15">
      <path d="M 53.6425 100.693474 
L 494.8325 100.693474 
" clip-path="url(#pfdb6368beb)" style="fill: none; stroke: #cccccc; stroke-width: 0.8; stroke-linecap: round"/>
     </g>
     <g id="text_16">
      <!-- 1400 -->
      <g style="fill: #262626" transform="translate(22.174375 104.630271) scale(0.11 -0.11)">
       <use xlink:href="#ArialMT-31"/>
       <use xlink:href="#ArialMT-34" transform="translate(55.615234 0)"/>
       <use xlink:href="#ArialMT-30" transform="translate(111.230469 0)"/>
       <use xlink:href="#ArialMT-30" transform="translate(166.845703 0)"/>
      </g>
     </g>
    </g>
    <g id="text_17">
     <!-- Customer Count -->
     <g style="fill: #262626" transform="translate(15.789375 243.441875) rotate(-90) scale(0.12 -0.12)">
      <defs>
       <path id="ArialMT-43" d="M 3763 1606 
L 4369 1453 
Q 4178 706 3683 314 
Q 3188 -78 2472 -78 
Q 1731 -78 1267 223 
Q 803 525 561 1097 
Q 319 1669 319 2325 
Q 319 3041 592 3573 
Q 866 4106 1370 4382 
Q 1875 4659 2481 4659 
Q 3169 4659 3637 4309 
Q 4106 3959 4291 3325 
L 3694 3184 
Q 3534 3684 3231 3912 
Q 2928 4141 2469 4141 
Q 1941 4141 1586 3887 
Q 1231 3634 1087 3207 
Q 944 2781 944 2328 
Q 944 1744 1114 1308 
Q 1284 872 1643 656 
Q 2003 441 2422 441 
Q 2931 441 3284 734 
Q 3638 1028 3763 1606 
z
" transform="scale(0.015625)"/>
       <path id="ArialMT-75" d="M 2597 0 
L 2597 488 
Q 2209 -75 1544 -75 
Q 1250 -75 995 37 
Q 741 150 617 320 
Q 494 491 444 738 
Q 409 903 409 1263 
L 409 3319 
L 972 3319 
L 972 1478 
Q 972 1038 1006 884 
Q 1059 663 1231 536 
Q 1403 409 1656 409 
Q 1909 409 2131 539 
Q 2353 669 2445 892 
Q 2538 1116 2538 1541 
L 2538 3319 
L 3100 3319 
L 3100 0 
L 2597 0 
z
" transform="scale(0.015625)"/>
       <path id="ArialMT-6d" d="M 422 0 
L 422 3319 
L 925 3319 
L 925 2853 
Q 1081 3097 1340 3245 
Q 1600 3394 1931 3394 
Q 2300 3394 2536 3241 
Q 2772 3088 2869 2813 
Q 3263 3394 3894 3394 
Q 4388 3394 4653 3120 
Q 4919 2847 4919 2278 
L 4919 0 
L 4359 0 
L 4359 2091 
Q 4359 2428 4304 2576 
Q 4250 2725 4106 2815 
Q 3963 2906 3769 2906 
Q 3419 2906 3187 2673 
Q 2956 2441 2956 1928 
L 2956 0 
L 2394 0 
L 2394 2156 
Q 2394 2531 2256 2718 
Q 2119 2906 1806 2906 
Q 1569 2906 1367 2781 
Q 1166 2656 1075 2415 
Q 984 2175 984 1722 
L 984 0 
L 422 0 
z
" transform="scale(0.015625)"/>
       <path id="ArialMT-72" d="M 416 0 
L 416 3319 
L 922 3319 
L 922 2816 
Q 1116 3169 1280 3281 
Q 1444 3394 1641 3394 
Q 1925 3394 2219 3213 
L 2025 2691 
Q 1819 2813 1613 2813 
Q 1428 2813 1281 2702 
Q 1134 2591 1072 2394 
Q 978 2094 978 1738 
L 978 0 
L 416 0 
z
" transform="scale(0.015625)"/>
      </defs>
      <use xlink:href="#ArialMT-43"/>
      <use xlink:href="#ArialMT-75" transform="translate(72.216797 0)"/>
      <use xlink:href="#ArialMT-73" transform="translate(127.832031 0)"/>
      <use xlink:href="#ArialMT-74" transform="translate(177.832031 0)"/>
      <use xlink:href="#ArialMT-6f" transform="translate(205.615234 0)"/>
      <use xlink:href="#ArialMT-6d" transform="translate(261.230469 0)"/>
      <use xlink:href="#ArialMT-65" transform="translate(344.53125 0)"/>
      <use xlink:href="#ArialMT-72" transform="translate(400.146484 0)"/>
      <use xlink:href="#ArialMT-20" transform="translate(433.447266 0)"/>
      <use xlink:href="#ArialMT-43" transform="translate(461.230469 0)"/>
      <use xlink:href="#ArialMT-6f" transform="translate(533.447266 0)"/>
      <use xlink:href="#ArialMT-75" transform="translate(589.0625 0)"/>
      <use xlink:href="#ArialMT-6e" transform="translate(644.677734 0)"/>
      <use xlink:href="#ArialMT-74" transform="translate(700.292969 0)"/>
     </g>
    </g>
   </g>
   <g id="patch_3">
    <path d="M 73.696591 330.88 
L 83.723636 330.88 
L 83.723636 81.127619 
L 73.696591 81.127619 
z
" clip-path="url(#pfdb6368beb)" style="fill: #3498db; fill-opacity: 0.5; stroke: #ffffff; stroke-width: 0.5; stroke-linejoin: miter"/>
   </g>
   <g id="patch_4">
    <path d="M 83.723636 330.88 
L 93.750682 330.88 
L 93.750682 217.595345 
L 83.723636 217.595345 
z
" clip-path="url(#pfdb6368beb)" style="fill: #3498db; fill-opacity: 0.5; stroke: #ffffff; stroke-width: 0.5; stroke-linejoin: miter"/>
   </g>
   <g id="patch_5">
    <path d="M 93.750682 330.88 
L 103.777727 330.88 
L 103.777727 155.609402 
L 93.750682 155.609402 
z
" clip-path="url(#pfdb6368beb)" style="fill: #3498db; fill-opacity: 0.5; stroke: #ffffff; stroke-width: 0.5; stroke-linejoin: miter"/>
   </g>
   <g id="patch_6">
    <path d="M 103.777727 330.88 
L 113.804773 330.88 
L 113.804773 254.260771 
L 103.777727 254.260771 
z
" clip-path="url(#pfdb6368beb)" style="fill: #3498db; fill-opacity: 0.5; stroke: #ffffff; stroke-width: 0.5; stroke-linejoin: miter"/>
   </g>
   <g id="patch_7">
    <path d="M 113.804773 330.88 
L 123.831818 330.88 
L 123.831818 208.223465 
L 113.804773 208.223465 
z
" clip-path="url(#pfdb6368beb)" style="fill: #3498db; fill-opacity: 0.5; stroke: #ffffff; stroke-width: 0.5; stroke-linejoin: miter"/>
   </g>
   <g id="patch_8">
    <path d="M 123.831818 330.88 
L 133.858864 330.88 
L 133.858864 283.362924 
L 123.831818 283.362924 
z
" clip-path="url(#pfdb6368beb)" style="fill: #3498db; fill-opacity: 0.5; stroke: #ffffff; stroke-width: 0.5; stroke-linejoin: miter"/>
   </g>
   <g id="patch_9">
    <path d="M 133.858864 330.88 
L 143.885909 330.88 
L 143.885909 247.848432 
L 133.858864 247.848432 
z
" clip-path="url(#pfdb6368beb)" style="fill: #3498db; fill-opacity: 0.5; stroke: #ffffff; stroke-width: 0.5; stroke-linejoin: miter"/>
   </g>
   <g id="patch_10">
    <path d="M 143.885909 330.88 
L 153.912955 330.88 
L 153.912955 297.831792 
L 143.885909 297.831792 
z
" clip-path="url(#pfdb6368beb)" style="fill: #3498db; fill-opacity: 0.5; stroke: #ffffff; stroke-width: 0.5; stroke-linejoin: miter"/>
   </g>
   <g id="patch_11">
    <path d="M 153.912955 330.88 
L 163.94 330.88 
L 163.94 275.141977 
L 153.912955 275.141977 
z
" clip-path="url(#pfdb6368beb)" style="fill: #3498db; fill-opacity: 0.5; stroke: #ffffff; stroke-width: 0.5; stroke-linejoin: miter"/>
   </g>
   <g id="patch_12">
    <path d="M 163.94 330.88 
L 173.967045 330.88 
L 173.967045 309.669956 
L 163.94 309.669956 
z
" clip-path="url(#pfdb6368beb)" style="fill: #3498db; fill-opacity: 0.5; stroke: #ffffff; stroke-width: 0.5; stroke-linejoin: miter"/>
   </g>
   <g id="patch_13">
    <path d="M 173.967045 330.88 
L 183.994091 330.88 
L 183.994091 289.610844 
L 173.967045 289.610844 
z
" clip-path="url(#pfdb6368beb)" style="fill: #3498db; fill-opacity: 0.5; stroke: #ffffff; stroke-width: 0.5; stroke-linejoin: miter"/>
   </g>
   <g id="patch_14">
    <path d="M 183.994091 330.88 
L 194.021136 330.88 
L 194.021136 314.273686 
L 183.994091 314.273686 
z
" clip-path="url(#pfdb6368beb)" style="fill: #3498db; fill-opacity: 0.5; stroke: #ffffff; stroke-width: 0.5; stroke-linejoin: miter"/>
   </g>
   <g id="patch_15">
    <path d="M 194.021136 330.88 
L 204.048182 330.88 
L 204.048182 303.586455 
L 194.021136 303.586455 
z
" clip-path="url(#pfdb6368beb)" style="fill: #3498db; fill-opacity: 0.5; stroke: #ffffff; stroke-width: 0.5; stroke-linejoin: miter"/>
   </g>
   <g id="patch_16">
    <path d="M 204.048182 330.88 
L 214.075227 330.88 
L 214.075227 319.041836 
L 204.048182 319.041836 
z
" clip-path="url(#pfdb6368beb)" style="fill: #3498db; fill-opacity: 0.5; stroke: #ffffff; stroke-width: 0.5; stroke-linejoin: miter"/>
   </g>
   <g id="patch_17">
    <path d="M 214.075227 330.88 
L 224.102273 330.88 
L 224.102273 311.149726 
L 214.075227 311.149726 
z
" clip-path="url(#pfdb6368beb)" style="fill: #3498db; fill-opacity: 0.5; stroke: #ffffff; stroke-width: 0.5; stroke-linejoin: miter"/>
   </g>
   <g id="patch_18">
    <path d="M 224.102273 330.88 
L 234.129318 330.88 
L 234.129318 322.330215 
L 224.102273 322.330215 
z
" clip-path="url(#pfdb6368beb)" style="fill: #3498db; fill-opacity: 0.5; stroke: #ffffff; stroke-width: 0.5; stroke-linejoin: miter"/>
   </g>
   <g id="patch_19">
    <path d="M 234.129318 330.88 
L 244.156364 330.88 
L 244.156364 316.739971 
L 234.129318 316.739971 
z
" clip-path="url(#pfdb6368beb)" style="fill: #3498db; fill-opacity: 0.5; stroke: #ffffff; stroke-width: 0.5; stroke-linejoin: miter"/>
   </g>
   <g id="patch_20">
    <path d="M 244.156364 330.88 
L 254.183409 330.88 
L 254.183409 326.933945 
L 244.156364 326.933945 
z
" clip-path="url(#pfdb6368beb)" style="fill: #3498db; fill-opacity: 0.5; stroke: #ffffff; stroke-width: 0.5; stroke-linejoin: miter"/>
   </g>
   <g id="patch_21">
    <path d="M 254.183409 330.88 
L 264.210455 330.88 
L 264.210455 323.481147 
L 254.183409 323.481147 
z
" clip-path="url(#pfdb6368beb)" style="fill: #3498db; fill-opacity: 0.5; stroke: #ffffff; stroke-width: 0.5; stroke-linejoin: miter"/>
   </g>
   <g id="patch_22">
    <path d="M 264.210455 330.88 
L 274.2375 330.88 
L 274.2375 327.920459 
L 264.210455 327.920459 
z
" clip-path="url(#pfdb6368beb)" style="fill: #3498db; fill-opacity: 0.5; stroke: #ffffff; stroke-width: 0.5; stroke-linejoin: miter"/>
   </g>
   <g id="patch_23">
    <path d="M 274.2375 330.88 
L 284.264545 330.88 
L 284.264545 326.111851 
L 274.2375 326.111851 
z
" clip-path="url(#pfdb6368beb)" style="fill: #3498db; fill-opacity: 0.5; stroke: #ffffff; stroke-width: 0.5; stroke-linejoin: miter"/>
   </g>
   <g id="patch_24">
    <path d="M 284.264545 330.88 
L 294.291591 330.88 
L 294.291591 328.578135 
L 284.264545 328.578135 
z
" clip-path="url(#pfdb6368beb)" style="fill: #3498db; fill-opacity: 0.5; stroke: #ffffff; stroke-width: 0.5; stroke-linejoin: miter"/>
   </g>
   <g id="patch_25">
    <path d="M 294.291591 330.88 
L 304.318636 330.88 
L 304.318636 326.605107 
L 294.291591 326.605107 
z
" clip-path="url(#pfdb6368beb)" style="fill: #3498db; fill-opacity: 0.5; stroke: #ffffff; stroke-width: 0.5; stroke-linejoin: miter"/>
   </g>
   <g id="patch_26">
    <path d="M 304.318636 330.88 
L 314.345682 330.88 
L 314.345682 329.235811 
L 304.318636 329.235811 
z
" clip-path="url(#pfdb6368beb)" style="fill: #3498db; fill-opacity: 0.5; stroke: #ffffff; stroke-width: 0.5; stroke-linejoin: miter"/>
   </g>
   <g id="patch_27">
    <path d="M 314.345682 330.88 
L 324.372727 330.88 
L 324.372727 328.578135 
L 314.345682 328.578135 
z
" clip-path="url(#pfdb6368beb)" style="fill: #3498db; fill-opacity: 0.5; stroke: #ffffff; stroke-width: 0.5; stroke-linejoin: miter"/>
   </g>
   <g id="patch_28">
    <path d="M 324.372727 330.88 
L 334.399773 330.88 
L 334.399773 330.057905 
L 324.372727 330.057905 
z
" clip-path="url(#pfdb6368beb)" style="fill: #3498db; fill-opacity: 0.5; stroke: #ffffff; stroke-width: 0.5; stroke-linejoin: miter"/>
   </g>
   <g id="patch_29">
    <path d="M 334.399773 330.88 
L 344.426818 330.88 
L 344.426818 328.742554 
L 334.399773 328.742554 
z
" clip-path="url(#pfdb6368beb)" style="fill: #3498db; fill-opacity: 0.5; stroke: #ffffff; stroke-width: 0.5; stroke-linejoin: miter"/>
   </g>
   <g id="patch_30">
    <path d="M 344.426818 330.88 
L 354.453864 330.88 
L 354.453864 330.057905 
L 344.426818 330.057905 
z
" clip-path="url(#pfdb6368beb)" style="fill: #3498db; fill-opacity: 0.5; stroke: #ffffff; stroke-width: 0.5; stroke-linejoin: miter"/>
   </g>
   <g id="patch_31">
    <path d="M 354.453864 330.88 
L 364.480909 330.88 
L 364.480909 329.893486 
L 354.453864 329.893486 
z
" clip-path="url(#pfdb6368beb)" style="fill: #3498db; fill-opacity: 0.5; stroke: #ffffff; stroke-width: 0.5; stroke-linejoin: miter"/>
   </g>
   <g id="patch_32">
    <path d="M 364.480909 330.88 
L 374.507955 330.88 
L 374.507955 330.715581 
L 364.480909 330.715581 
z
" clip-path="url(#pfdb6368beb)" style="fill: #3498db; fill-opacity: 0.5; stroke: #ffffff; stroke-width: 0.5; stroke-linejoin: miter"/>
   </g>
   <g id="patch_33">
    <path d="M 374.507955 330.88 
L 384.535 330.88 
L 384.535 329.235811 
L 374.507955 329.235811 
z
" clip-path="url(#pfdb6368beb)" style="fill: #3498db; fill-opacity: 0.5; stroke: #ffffff; stroke-width: 0.5; stroke-linejoin: miter"/>
   </g>
   <g id="patch_34">
    <path d="M 384.535 330.88 
L 394.562045 330.88 
L 394.562045 330.386743 
L 384.535 330.386743 
z
" clip-path="url(#pfdb6368beb)" style="fill: #3498db; fill-opacity: 0.5; stroke: #ffffff; stroke-width: 0.5; stroke-linejoin: miter"/>
   </g>
   <g id="patch_35">
    <path d="M 394.562045 330.88 
L 404.589091 330.88 
L 404.589091 329.564648 
L 394.562045 329.564648 
z
" clip-path="url(#pfdb6368beb)" style="fill: #3498db; fill-opacity: 0.5; stroke: #ffffff; stroke-width: 0.5; stroke-linejoin: miter"/>
   </g>
   <g id="patch_36">
    <path d="M 404.589091 330.88 
L 414.616136 330.88 
L 414.616136 330.715581 
L 404.589091 330.715581 
z
" clip-path="url(#pfdb6368beb)" style="fill: #3498db; fill-opacity: 0.5; stroke: #ffffff; stroke-width: 0.5; stroke-linejoin: miter"/>
   </g>
   <g id="patch_37">
    <path d="M 414.616136 330.88 
L 424.643182 330.88 
L 424.643182 330.057905 
L 414.616136 330.057905 
z
" clip-path="url(#pfdb6368beb)" style="fill: #3498db; fill-opacity: 0.5; stroke: #ffffff; stroke-width: 0.5; stroke-linejoin: miter"/>
   </g>
   <g id="patch_38">
    <path d="M 424.643182 330.88 
L 434.670227 330.88 
L 434.670227 330.715581 
L 424.643182 330.715581 
z
" clip-path="url(#pfdb6368beb)" style="fill: #3498db; fill-opacity: 0.5; stroke: #ffffff; stroke-width: 0.5; stroke-linejoin: miter"/>
   </g>
   <g id="patch_39">
    <path d="M 434.670227 330.88 
L 444.697273 330.88 
L 444.697273 330.551162 
L 434.670227 330.551162 
z
" clip-path="url(#pfdb6368beb)" style="fill: #3498db; fill-opacity: 0.5; stroke: #ffffff; stroke-width: 0.5; stroke-linejoin: miter"/>
   </g>
   <g id="patch_40">
    <path d="M 444.697273 330.88 
L 454.724318 330.88 
L 454.724318 330.551162 
L 444.697273 330.551162 
z
" clip-path="url(#pfdb6368beb)" style="fill: #3498db; fill-opacity: 0.5; stroke: #ffffff; stroke-width: 0.5; stroke-linejoin: miter"/>
   </g>
   <g id="patch_41">
    <path d="M 454.724318 330.88 
L 464.751364 330.88 
L 464.751364 330.88 
L 454.724318 330.88 
z
" clip-path="url(#pfdb6368beb)" style="fill: #3498db; fill-opacity: 0.5; stroke: #ffffff; stroke-width: 0.5; stroke-linejoin: miter"/>
   </g>
   <g id="patch_42">
    <path d="M 464.751364 330.88 
L 474.778409 330.88 
L 474.778409 330.222324 
L 464.751364 330.222324 
z
" clip-path="url(#pfdb6368beb)" style="fill: #3498db; fill-opacity: 0.5; stroke: #ffffff; stroke-width: 0.5; stroke-linejoin: miter"/>
   </g>
   <g id="line2d_16">
    <path d="M 73.696591 212.122747 
L 75.712077 199.133374 
L 77.727564 188.661786 
L 79.74305 181.027938 
L 81.758537 176.256973 
L 83.774024 174.125875 
L 85.78951 174.241189 
L 87.804997 176.124785 
L 89.820483 179.289337 
L 91.83597 183.293512 
L 95.866943 192.46249 
L 101.913402 206.338439 
L 107.959862 219.303742 
L 114.006321 231.776225 
L 118.037294 239.801845 
L 122.068267 247.357583 
L 126.099241 254.191402 
L 128.114727 257.281117 
L 130.130214 260.145564 
L 132.1457 262.798246 
L 136.176673 267.590187 
L 140.207646 271.963685 
L 148.269592 280.301299 
L 152.300565 284.250175 
L 156.331538 287.897412 
L 160.362511 291.147866 
L 164.393484 293.952952 
L 168.424458 296.338596 
L 172.455431 298.432923 
L 190.594809 307.275763 
L 194.625782 308.918332 
L 198.656755 310.351365 
L 204.703215 312.244454 
L 214.780648 315.107904 
L 222.842594 317.115624 
L 234.935513 320.030545 
L 249.043918 323.741414 
L 253.074892 324.552288 
L 259.121351 325.508399 
L 265.167811 326.227898 
L 273.229757 326.900795 
L 281.291703 327.342401 
L 291.369135 327.683392 
L 301.446568 328.005683 
L 311.524001 328.651748 
L 319.585947 329.044966 
L 331.678866 329.289353 
L 343.771785 329.635736 
L 357.880191 330.080585 
L 365.942137 330.128761 
L 392.143462 329.975618 
L 456.63903 330.703607 
L 468.73195 330.621712 
L 474.778409 330.604872 
L 474.778409 330.604872 
" clip-path="url(#pfdb6368beb)" style="fill: none; stroke: #3498db; stroke-width: 1.5; stroke-linecap: round"/>
   </g>
   <g id="line2d_17">
    <path d="M 123.763956 330.88 
L 123.763956 68.64 
" clip-path="url(#pfdb6368beb)" style="fill: none; stroke-dasharray: 7.4,3.2; stroke-dashoffset: 0; stroke: #ff0000; stroke-width: 2"/>
   </g>
   <g id="line2d_18">
    <path d="M 107.120076 330.88 
L 107.120076 68.64 
" clip-path="url(#pfdb6368beb)" style="fill: none; stroke-dasharray: 7.4,3.2; stroke-dashoffset: 0; stroke: #ffa500; stroke-width: 2"/>
   </g>
   <g id="patch_43">
    <path d="M 53.6425 330.88 
L 53.6425 68.64 
" style="fill: none; stroke: #cccccc; stroke-width: 0.8; stroke-linejoin: miter; stroke-linecap: square"/>
   </g>
   <g id="patch_44">
    <path d="M 494.8325 330.88 
L 494.8325 68.64 
" style="fill: none; stroke: #cccccc; stroke-width: 0.8; stroke-linejoin: miter; stroke-linecap: square"/>
   </g>
   <g id="patch_45">
    <path d="M 53.6425 330.88 
L 494.8325 330.88 
" style="fill: none; stroke: #cccccc; stroke-width: 0.8; stroke-linejoin: miter; stroke-linecap: square"/>
   </g>
   <g id="patch_46">
    <path d="M 53.6425 68.64 
L 494.8325 68.64 
" style="fill: none; stroke: #cccccc; stroke-width: 0.8; stroke-linejoin: miter; stroke-linecap: square"/>
   </g>
   <g id="text_18">
    <!-- Distribution of Days Since Last Login -->
    <g style="fill: #262626" transform="translate(149.791719 62.64) scale(0.14 -0.14)">
     <defs>
      <path id="Arial-BoldMT-44" d="M 463 4581 
L 2153 4581 
Q 2725 4581 3025 4494 
Q 3428 4375 3715 4072 
Q 4003 3769 4153 3330 
Q 4303 2891 4303 2247 
Q 4303 1681 4163 1272 
Q 3991 772 3672 463 
Q 3431 228 3022 97 
Q 2716 0 2203 0 
L 463 0 
L 463 4581 
z
M 1388 3806 
L 1388 772 
L 2078 772 
Q 2466 772 2638 816 
Q 2863 872 3011 1006 
Q 3159 1141 3253 1448 
Q 3347 1756 3347 2288 
Q 3347 2819 3253 3103 
Q 3159 3388 2990 3547 
Q 2822 3706 2563 3763 
Q 2369 3806 1803 3806 
L 1388 3806 
z
" transform="scale(0.015625)"/>
      <path id="Arial-BoldMT-69" d="M 459 3769 
L 459 4581 
L 1338 4581 
L 1338 3769 
L 459 3769 
z
M 459 0 
L 459 3319 
L 1338 3319 
L 1338 0 
L 459 0 
z
" transform="scale(0.015625)"/>
      <path id="Arial-BoldMT-73" d="M 150 947 
L 1031 1081 
Q 1088 825 1259 692 
Q 1431 559 1741 559 
Q 2081 559 2253 684 
Q 2369 772 2369 919 
Q 2369 1019 2306 1084 
Q 2241 1147 2013 1200 
Q 950 1434 666 1628 
Q 272 1897 272 2375 
Q 272 2806 612 3100 
Q 953 3394 1669 3394 
Q 2350 3394 2681 3172 
Q 3013 2950 3138 2516 
L 2309 2363 
Q 2256 2556 2107 2659 
Q 1959 2763 1684 2763 
Q 1338 2763 1188 2666 
Q 1088 2597 1088 2488 
Q 1088 2394 1175 2328 
Q 1294 2241 1995 2081 
Q 2697 1922 2975 1691 
Q 3250 1456 3250 1038 
Q 3250 581 2869 253 
Q 2488 -75 1741 -75 
Q 1063 -75 667 200 
Q 272 475 150 947 
z
" transform="scale(0.015625)"/>
      <path id="Arial-BoldMT-74" d="M 1981 3319 
L 1981 2619 
L 1381 2619 
L 1381 1281 
Q 1381 875 1398 808 
Q 1416 741 1477 697 
Q 1538 653 1625 653 
Q 1747 653 1978 738 
L 2053 56 
Q 1747 -75 1359 -75 
Q 1122 -75 931 4 
Q 741 84 652 211 
Q 563 338 528 553 
Q 500 706 500 1172 
L 500 2619 
L 97 2619 
L 97 3319 
L 500 3319 
L 500 3978 
L 1381 4491 
L 1381 3319 
L 1981 3319 
z
" transform="scale(0.015625)"/>
      <path id="Arial-BoldMT-72" d="M 1300 0 
L 422 0 
L 422 3319 
L 1238 3319 
L 1238 2847 
Q 1447 3181 1614 3287 
Q 1781 3394 1994 3394 
Q 2294 3394 2572 3228 
L 2300 2463 
Q 2078 2606 1888 2606 
Q 1703 2606 1575 2504 
Q 1447 2403 1373 2137 
Q 1300 1872 1300 1025 
L 1300 0 
z
" transform="scale(0.015625)"/>
      <path id="Arial-BoldMT-62" d="M 422 0 
L 422 4581 
L 1300 4581 
L 1300 2931 
Q 1706 3394 2263 3394 
Q 2869 3394 3266 2955 
Q 3663 2516 3663 1694 
Q 3663 844 3258 384 
Q 2853 -75 2275 -75 
Q 1991 -75 1714 67 
Q 1438 209 1238 488 
L 1238 0 
L 422 0 
z
M 1294 1731 
Q 1294 1216 1456 969 
Q 1684 619 2063 619 
Q 2353 619 2558 867 
Q 2763 1116 2763 1650 
Q 2763 2219 2556 2470 
Q 2350 2722 2028 2722 
Q 1713 2722 1503 2476 
Q 1294 2231 1294 1731 
z
" transform="scale(0.015625)"/>
      <path id="Arial-BoldMT-75" d="M 2644 0 
L 2644 497 
Q 2463 231 2167 78 
Q 1872 -75 1544 -75 
Q 1209 -75 943 72 
Q 678 219 559 484 
Q 441 750 441 1219 
L 441 3319 
L 1319 3319 
L 1319 1794 
Q 1319 1094 1367 936 
Q 1416 778 1544 686 
Q 1672 594 1869 594 
Q 2094 594 2272 717 
Q 2450 841 2515 1023 
Q 2581 1206 2581 1919 
L 2581 3319 
L 3459 3319 
L 3459 0 
L 2644 0 
z
" transform="scale(0.015625)"/>
      <path id="Arial-BoldMT-6f" d="M 256 1706 
Q 256 2144 472 2553 
Q 688 2963 1083 3178 
Q 1478 3394 1966 3394 
Q 2719 3394 3200 2905 
Q 3681 2416 3681 1669 
Q 3681 916 3195 420 
Q 2709 -75 1972 -75 
Q 1516 -75 1102 131 
Q 688 338 472 736 
Q 256 1134 256 1706 
z
M 1156 1659 
Q 1156 1166 1390 903 
Q 1625 641 1969 641 
Q 2313 641 2545 903 
Q 2778 1166 2778 1666 
Q 2778 2153 2545 2415 
Q 2313 2678 1969 2678 
Q 1625 2678 1390 2415 
Q 1156 2153 1156 1659 
z
" transform="scale(0.015625)"/>
      <path id="Arial-BoldMT-6e" d="M 3478 0 
L 2600 0 
L 2600 1694 
Q 2600 2231 2544 2389 
Q 2488 2547 2361 2634 
Q 2234 2722 2056 2722 
Q 1828 2722 1647 2597 
Q 1466 2472 1398 2265 
Q 1331 2059 1331 1503 
L 1331 0 
L 453 0 
L 453 3319 
L 1269 3319 
L 1269 2831 
Q 1703 3394 2363 3394 
Q 2653 3394 2893 3289 
Q 3134 3184 3257 3021 
Q 3381 2859 3429 2653 
Q 3478 2447 3478 2063 
L 3478 0 
z
" transform="scale(0.015625)"/>
      <path id="Arial-BoldMT-20" transform="scale(0.015625)"/>
      <path id="Arial-BoldMT-66" d="M 75 3319 
L 563 3319 
L 563 3569 
Q 563 3988 652 4194 
Q 741 4400 980 4529 
Q 1219 4659 1584 4659 
Q 1959 4659 2319 4547 
L 2200 3934 
Q 1991 3984 1797 3984 
Q 1606 3984 1523 3895 
Q 1441 3806 1441 3553 
L 1441 3319 
L 2097 3319 
L 2097 2628 
L 1441 2628 
L 1441 0 
L 563 0 
L 563 2628 
L 75 2628 
L 75 3319 
z
" transform="scale(0.015625)"/>
      <path id="Arial-BoldMT-61" d="M 1116 2306 
L 319 2450 
Q 453 2931 781 3162 
Q 1109 3394 1756 3394 
Q 2344 3394 2631 3255 
Q 2919 3116 3036 2902 
Q 3153 2688 3153 2116 
L 3144 1091 
Q 3144 653 3186 445 
Q 3228 238 3344 0 
L 2475 0 
Q 2441 88 2391 259 
Q 2369 338 2359 363 
Q 2134 144 1878 34 
Q 1622 -75 1331 -75 
Q 819 -75 523 203 
Q 228 481 228 906 
Q 228 1188 362 1408 
Q 497 1628 739 1745 
Q 981 1863 1438 1950 
Q 2053 2066 2291 2166 
L 2291 2253 
Q 2291 2506 2166 2614 
Q 2041 2722 1694 2722 
Q 1459 2722 1328 2630 
Q 1197 2538 1116 2306 
z
M 2291 1594 
Q 2122 1538 1756 1459 
Q 1391 1381 1278 1306 
Q 1106 1184 1106 997 
Q 1106 813 1243 678 
Q 1381 544 1594 544 
Q 1831 544 2047 700 
Q 2206 819 2256 991 
Q 2291 1103 2291 1419 
L 2291 1594 
z
" transform="scale(0.015625)"/>
      <path id="Arial-BoldMT-79" d="M 44 3319 
L 978 3319 
L 1772 963 
L 2547 3319 
L 3456 3319 
L 2284 125 
L 2075 -453 
Q 1959 -744 1854 -897 
Q 1750 -1050 1614 -1145 
Q 1478 -1241 1279 -1294 
Q 1081 -1347 831 -1347 
Q 578 -1347 334 -1294 
L 256 -606 
Q 463 -647 628 -647 
Q 934 -647 1081 -467 
Q 1228 -288 1306 -9 
L 44 3319 
z
" transform="scale(0.015625)"/>
      <path id="Arial-BoldMT-53" d="M 231 1491 
L 1131 1578 
Q 1213 1125 1461 912 
Q 1709 700 2131 700 
Q 2578 700 2804 889 
Q 3031 1078 3031 1331 
Q 3031 1494 2936 1608 
Q 2841 1722 2603 1806 
Q 2441 1863 1863 2006 
Q 1119 2191 819 2459 
Q 397 2838 397 3381 
Q 397 3731 595 4036 
Q 794 4341 1167 4500 
Q 1541 4659 2069 4659 
Q 2931 4659 3367 4281 
Q 3803 3903 3825 3272 
L 2900 3231 
Q 2841 3584 2645 3739 
Q 2450 3894 2059 3894 
Q 1656 3894 1428 3728 
Q 1281 3622 1281 3444 
Q 1281 3281 1419 3166 
Q 1594 3019 2269 2859 
Q 2944 2700 3267 2529 
Q 3591 2359 3773 2064 
Q 3956 1769 3956 1334 
Q 3956 941 3737 597 
Q 3519 253 3119 86 
Q 2719 -81 2122 -81 
Q 1253 -81 787 320 
Q 322 722 231 1491 
z
" transform="scale(0.015625)"/>
      <path id="Arial-BoldMT-63" d="M 3353 2338 
L 2488 2181 
Q 2444 2441 2289 2572 
Q 2134 2703 1888 2703 
Q 1559 2703 1364 2476 
Q 1169 2250 1169 1719 
Q 1169 1128 1367 884 
Q 1566 641 1900 641 
Q 2150 641 2309 783 
Q 2469 925 2534 1272 
L 3397 1125 
Q 3263 531 2881 228 
Q 2500 -75 1859 -75 
Q 1131 -75 698 384 
Q 266 844 266 1656 
Q 266 2478 700 2936 
Q 1134 3394 1875 3394 
Q 2481 3394 2839 3133 
Q 3197 2872 3353 2338 
z
" transform="scale(0.015625)"/>
      <path id="Arial-BoldMT-65" d="M 2381 1056 
L 3256 909 
Q 3088 428 2723 176 
Q 2359 -75 1813 -75 
Q 947 -75 531 491 
Q 203 944 203 1634 
Q 203 2459 634 2926 
Q 1066 3394 1725 3394 
Q 2466 3394 2894 2905 
Q 3322 2416 3303 1406 
L 1103 1406 
Q 1113 1016 1316 798 
Q 1519 581 1822 581 
Q 2028 581 2168 693 
Q 2309 806 2381 1056 
z
M 2431 1944 
Q 2422 2325 2234 2523 
Q 2047 2722 1778 2722 
Q 1491 2722 1303 2513 
Q 1116 2303 1119 1944 
L 2431 1944 
z
" transform="scale(0.015625)"/>
      <path id="Arial-BoldMT-4c" d="M 491 0 
L 491 4544 
L 1416 4544 
L 1416 772 
L 3716 772 
L 3716 0 
L 491 0 
z
" transform="scale(0.015625)"/>
      <path id="Arial-BoldMT-67" d="M 378 -219 
L 1381 -341 
Q 1406 -516 1497 -581 
Q 1622 -675 1891 -675 
Q 2234 -675 2406 -572 
Q 2522 -503 2581 -350 
Q 2622 -241 2622 53 
L 2622 538 
Q 2228 0 1628 0 
Q 959 0 569 566 
Q 263 1013 263 1678 
Q 263 2513 664 2953 
Q 1066 3394 1663 3394 
Q 2278 3394 2678 2853 
L 2678 3319 
L 3500 3319 
L 3500 341 
Q 3500 -247 3403 -537 
Q 3306 -828 3131 -993 
Q 2956 -1159 2664 -1253 
Q 2372 -1347 1925 -1347 
Q 1081 -1347 728 -1058 
Q 375 -769 375 -325 
Q 375 -281 378 -219 
z
M 1163 1728 
Q 1163 1200 1367 954 
Q 1572 709 1872 709 
Q 2194 709 2416 961 
Q 2638 1213 2638 1706 
Q 2638 2222 2425 2472 
Q 2213 2722 1888 2722 
Q 1572 2722 1367 2476 
Q 1163 2231 1163 1728 
z
" transform="scale(0.015625)"/>
     </defs>
     <use xlink:href="#Arial-BoldMT-44"/>
     <use xlink:href="#Arial-BoldMT-69" transform="translate(72.216797 0)"/>
     <use xlink:href="#Arial-BoldMT-73" transform="translate(100 0)"/>
     <use xlink:href="#Arial-BoldMT-74" transform="translate(155.615234 0)"/>
     <use xlink:href="#Arial-BoldMT-72" transform="translate(188.916016 0)"/>
     <use xlink:href="#Arial-BoldMT-69" transform="translate(227.832031 0)"/>
     <use xlink:href="#Arial-BoldMT-62" transform="translate(255.615234 0)"/>
     <use xlink:href="#Arial-BoldMT-75" transform="translate(316.699219 0)"/>
     <use xlink:href="#Arial-BoldMT-74" transform="translate(377.783203 0)"/>
     <use xlink:href="#Arial-BoldMT-69" transform="translate(411.083984 0)"/>
     <use xlink:href="#Arial-BoldMT-6f" transform="translate(438.867188 0)"/>
     <use xlink:href="#Arial-BoldMT-6e" transform="translate(499.951172 0)"/>
     <use xlink:href="#Arial-BoldMT-20" transform="translate(561.035156 0)"/>
     <use xlink:href="#Arial-BoldMT-6f" transform="translate(588.818359 0)"/>
     <use xlink:href="#Arial-BoldMT-66" transform="translate(649.902344 0)"/>
     <use xlink:href="#Arial-BoldMT-20" transform="translate(683.203125 0)"/>
     <use xlink:href="#Arial-BoldMT-44" transform="translate(710.986328 0)"/>
     <use xlink:href="#Arial-BoldMT-61" transform="translate(783.203125 0)"/>
     <use xlink:href="#Arial-BoldMT-79" transform="translate(838.818359 0)"/>
     <use xlink:href="#Arial-BoldMT-73" transform="translate(894.433594 0)"/>
     <use xlink:href="#Arial-BoldMT-20" transform="translate(950.048828 0)"/>
     <use xlink:href="#Arial-BoldMT-53" transform="translate(977.832031 0)"/>
     <use xlink:href="#Arial-BoldMT-69" transform="translate(1044.53125 0)"/>
     <use xlink:href="#Arial-BoldMT-6e" transform="translate(1072.314453 0)"/>
     <use xlink:href="#Arial-BoldMT-63" transform="translate(1133.398438 0)"/>
     <use xlink:href="#Arial-BoldMT-65" transform="translate(1189.013672 0)"/>
     <use xlink:href="#Arial-BoldMT-20" transform="translate(1244.628906 0)"/>
     <use xlink:href="#Arial-BoldMT-4c" transform="translate(1272.412109 0)"/>
     <use xlink:href="#Arial-BoldMT-61" transform="translate(1333.496094 0)"/>
     <use xlink:href="#Arial-BoldMT-73" transform="translate(1389.111328 0)"/>
     <use xlink:href="#Arial-BoldMT-74" transform="translate(1444.726562 0)"/>
     <use xlink:href="#Arial-BoldMT-20" transform="translate(1478.027344 0)"/>
     <use xlink:href="#Arial-BoldMT-4c" transform="translate(1505.810547 0)"/>
     <use xlink:href="#Arial-BoldMT-6f" transform="translate(1566.894531 0)"/>
     <use xlink:href="#Arial-BoldMT-67" transform="translate(1627.978516 0)"/>
     <use xlink:href="#Arial-BoldMT-69" transform="translate(1689.0625 0)"/>
     <use xlink:href="#Arial-BoldMT-6e" transform="translate(1716.845703 0)"/>
    </g>
   </g>
   <g id="legend_1">
    <g id="patch_47">
     <path d="M 376.726875 108.8175 
L 487.1325 108.8175 
Q 489.3325 108.8175 489.3325 106.6175 
L 489.3325 76.34 
Q 489.3325 74.14 487.1325 74.14 
L 376.726875 74.14 
Q 374.526875 74.14 374.526875 76.34 
L 374.526875 106.6175 
Q 374.526875 108.8175 376.726875 108.8175 
z
" style="fill: #ffffff; opacity: 0.8; stroke: #cccccc; stroke-linejoin: miter"/>
    </g>
    <g id="line2d_19">
     <path d="M 378.926875 82.563594 
L 389.926875 82.563594 
L 400.926875 82.563594 
" style="fill: none; stroke-dasharray: 7.4,3.2; stroke-dashoffset: 0; stroke: #ff0000; stroke-width: 2"/>
    </g>
    <g id="text_19">
     <!-- Mean: 7.5 days -->
     <g style="fill: #262626" transform="translate(409.726875 86.413594) scale(0.11 -0.11)">
      <defs>
       <path id="ArialMT-4d" d="M 475 0 
L 475 4581 
L 1388 4581 
L 2472 1338 
Q 2622 884 2691 659 
Q 2769 909 2934 1394 
L 4031 4581 
L 4847 4581 
L 4847 0 
L 4263 0 
L 4263 3834 
L 2931 0 
L 2384 0 
L 1059 3900 
L 1059 0 
L 475 0 
z
" transform="scale(0.015625)"/>
       <path id="ArialMT-3a" d="M 578 2678 
L 578 3319 
L 1219 3319 
L 1219 2678 
L 578 2678 
z
M 578 0 
L 578 641 
L 1219 641 
L 1219 0 
L 578 0 
z
" transform="scale(0.015625)"/>
       <path id="ArialMT-37" d="M 303 3981 
L 303 4522 
L 3269 4522 
L 3269 4084 
Q 2831 3619 2401 2847 
Q 1972 2075 1738 1259 
Q 1569 684 1522 0 
L 944 0 
Q 953 541 1156 1306 
Q 1359 2072 1739 2783 
Q 2119 3494 2547 3981 
L 303 3981 
z
" transform="scale(0.015625)"/>
       <path id="ArialMT-2e" d="M 581 0 
L 581 641 
L 1222 641 
L 1222 0 
L 581 0 
z
" transform="scale(0.015625)"/>
       <path id="ArialMT-64" d="M 2575 0 
L 2575 419 
Q 2259 -75 1647 -75 
Q 1250 -75 917 144 
Q 584 363 401 755 
Q 219 1147 219 1656 
Q 219 2153 384 2558 
Q 550 2963 881 3178 
Q 1213 3394 1622 3394 
Q 1922 3394 2156 3267 
Q 2391 3141 2538 2938 
L 2538 4581 
L 3097 4581 
L 3097 0 
L 2575 0 
z
M 797 1656 
Q 797 1019 1065 703 
Q 1334 388 1700 388 
Q 2069 388 2326 689 
Q 2584 991 2584 1609 
Q 2584 2291 2321 2609 
Q 2059 2928 1675 2928 
Q 1300 2928 1048 2622 
Q 797 2316 797 1656 
z
" transform="scale(0.015625)"/>
      </defs>
      <use xlink:href="#ArialMT-4d"/>
      <use xlink:href="#ArialMT-65" transform="translate(83.300781 0)"/>
      <use xlink:href="#ArialMT-61" transform="translate(138.916016 0)"/>
      <use xlink:href="#ArialMT-6e" transform="translate(194.53125 0)"/>
      <use xlink:href="#ArialMT-3a" transform="translate(250.146484 0)"/>
      <use xlink:href="#ArialMT-20" transform="translate(277.929688 0)"/>
      <use xlink:href="#ArialMT-37" transform="translate(305.712891 0)"/>
      <use xlink:href="#ArialMT-2e" transform="translate(361.328125 0)"/>
      <use xlink:href="#ArialMT-35" transform="translate(389.111328 0)"/>
      <use xlink:href="#ArialMT-20" transform="translate(444.726562 0)"/>
      <use xlink:href="#ArialMT-64" transform="translate(472.509766 0)"/>
      <use xlink:href="#ArialMT-61" transform="translate(528.125 0)"/>
      <use xlink:href="#ArialMT-79" transform="translate(583.740234 0)"/>
      <use xlink:href="#ArialMT-73" transform="translate(633.740234 0)"/>
     </g>
    </g>
    <g id="line2d_20">
     <path d="M 378.926875 98.252344 
L 389.926875 98.252344 
L 400.926875 98.252344 
" style="fill: none; stroke-dasharray: 7.4,3.2; stroke-dashoffset: 0; stroke: #ffa500; stroke-width: 2"/>
    </g>
    <g id="text_20">
     <!-- Median: 5 days -->
     <g style="fill: #262626" transform="translate(409.726875 102.102344) scale(0.11 -0.11)">
      <use xlink:href="#ArialMT-4d"/>
      <use xlink:href="#ArialMT-65" transform="translate(83.300781 0)"/>
      <use xlink:href="#ArialMT-64" transform="translate(138.916016 0)"/>
      <use xlink:href="#ArialMT-69" transform="translate(194.53125 0)"/>
      <use xlink:href="#ArialMT-61" transform="translate(216.748047 0)"/>
      <use xlink:href="#ArialMT-6e" transform="translate(272.363281 0)"/>
      <use xlink:href="#ArialMT-3a" transform="translate(327.978516 0)"/>
      <use xlink:href="#ArialMT-20" transform="translate(355.761719 0)"/>
      <use xlink:href="#ArialMT-35" transform="translate(383.544922 0)"/>
      <use xlink:href="#ArialMT-20" transform="translate(439.160156 0)"/>
      <use xlink:href="#ArialMT-64" transform="translate(466.943359 0)"/>
      <use xlink:href="#ArialMT-61" transform="translate(522.558594 0)"/>
      <use xlink:href="#ArialMT-79" transform="translate(578.173828 0)"/>
      <use xlink:href="#ArialMT-73" transform="translate(628.173828 0)"/>
     </g>
    </g>
   </g>
  </g>
  <g id="axes_2">
   <g id="patch_48">
    <path d="M 550.1725 330.88 
L 991.3625 330.88 
L 991.3625 68.64 
L 550.1725 68.64 
z
" style="fill: #ffffff"/>
   </g>
   <g id="matplotlib.axis_3">
    <g id="xtick_8">
     <g id="line2d_21">
      <path d="M 603.990587 330.88 
L 603.990587 68.64 
" clip-path="url(#pb7b067482c)" style="fill: none; stroke: #cccccc; stroke-width: 0.8; stroke-linecap: round"/>
     </g>
     <g id="text_21">
      <!-- 0 -->
      <g style="fill: #262626" transform="translate(600.932072 345.753594) scale(0.11 -0.11)">
       <use xlink:href="#ArialMT-30"/>
      </g>
     </g>
    </g>
    <g id="xtick_9">
     <g id="line2d_22">
      <path d="M 659.582891 330.88 
L 659.582891 68.64 
" clip-path="url(#pb7b067482c)" style="fill: none; stroke: #cccccc; stroke-width: 0.8; stroke-linecap: round"/>
     </g>
     <g id="text_22">
      <!-- 10 -->
      <g style="fill: #262626" transform="translate(653.46586 345.753594) scale(0.11 -0.11)">
       <use xlink:href="#ArialMT-31"/>
       <use xlink:href="#ArialMT-30" transform="translate(55.615234 0)"/>
      </g>
     </g>
    </g>
    <g id="xtick_10">
     <g id="line2d_23">
      <path d="M 715.175196 330.88 
L 715.175196 68.64 
" clip-path="url(#pb7b067482c)" style="fill: none; stroke: #cccccc; stroke-width: 0.8; stroke-linecap: round"/>
     </g>
     <g id="text_23">
      <!-- 20 -->
      <g style="fill: #262626" transform="translate(709.058164 345.753594) scale(0.11 -0.11)">
       <use xlink:href="#ArialMT-32"/>
       <use xlink:href="#ArialMT-30" transform="translate(55.615234 0)"/>
      </g>
     </g>
    </g>
    <g id="xtick_11">
     <g id="line2d_24">
      <path d="M 770.7675 330.88 
L 770.7675 68.64 
" clip-path="url(#pb7b067482c)" style="fill: none; stroke: #cccccc; stroke-width: 0.8; stroke-linecap: round"/>
     </g>
     <g id="text_24">
      <!-- 30 -->
      <g style="fill: #262626" transform="translate(764.650469 345.753594) scale(0.11 -0.11)">
       <use xlink:href="#ArialMT-33"/>
       <use xlink:href="#ArialMT-30" transform="translate(55.615234 0)"/>
      </g>
     </g>
    </g>
    <g id="xtick_12">
     <g id="line2d_25">
      <path d="M 826.359804 330.88 
L 826.359804 68.64 
" clip-path="url(#pb7b067482c)" style="fill: none; stroke: #cccccc; stroke-width: 0.8; stroke-linecap: round"/>
     </g>
     <g id="text_25">
      <!-- 40 -->
      <g style="fill: #262626" transform="translate(820.242773 345.753594) scale(0.11 -0.11)">
       <use xlink:href="#ArialMT-34"/>
       <use xlink:href="#ArialMT-30" transform="translate(55.615234 0)"/>
      </g>
     </g>
    </g>
    <g id="xtick_13">
     <g id="line2d_26">
      <path d="M 881.952109 330.88 
L 881.952109 68.64 
" clip-path="url(#pb7b067482c)" style="fill: none; stroke: #cccccc; stroke-width: 0.8; stroke-linecap: round"/>
     </g>
     <g id="text_26">
      <!-- 50 -->
      <g style="fill: #262626" transform="translate(875.835077 345.753594) scale(0.11 -0.11)">
       <use xlink:href="#ArialMT-35"/>
       <use xlink:href="#ArialMT-30" transform="translate(55.615234 0)"/>
      </g>
     </g>
    </g>
    <g id="xtick_14">
     <g id="line2d_27">
      <path d="M 937.544413 330.88 
L 937.544413 68.64 
" clip-path="url(#pb7b067482c)" style="fill: none; stroke: #cccccc; stroke-width: 0.8; stroke-linecap: round"/>
     </g>
     <g id="text_27">
      <!-- 60 -->
      <g style="fill: #262626" transform="translate(931.427382 345.753594) scale(0.11 -0.11)">
       <use xlink:href="#ArialMT-36"/>
       <use xlink:href="#ArialMT-30" transform="translate(55.615234 0)"/>
      </g>
     </g>
    </g>
    <g id="text_28">
     <!-- Days Since Last Login -->
     <g style="fill: #262626" transform="translate(711.069375 360.675469) scale(0.12 -0.12)">
      <use xlink:href="#ArialMT-44"/>
      <use xlink:href="#ArialMT-61" transform="translate(72.216797 0)"/>
      <use xlink:href="#ArialMT-79" transform="translate(127.832031 0)"/>
      <use xlink:href="#ArialMT-73" transform="translate(177.832031 0)"/>
      <use xlink:href="#ArialMT-20" transform="translate(227.832031 0)"/>
      <use xlink:href="#ArialMT-53" transform="translate(255.615234 0)"/>
      <use xlink:href="#ArialMT-69" transform="translate(322.314453 0)"/>
      <use xlink:href="#ArialMT-6e" transform="translate(344.53125 0)"/>
      <use xlink:href="#ArialMT-63" transform="translate(400.146484 0)"/>
      <use xlink:href="#ArialMT-65" transform="translate(450.146484 0)"/>
      <use xlink:href="#ArialMT-20" transform="translate(505.761719 0)"/>
      <use xlink:href="#ArialMT-4c" transform="translate(533.544922 0)"/>
      <use xlink:href="#ArialMT-61" transform="translate(589.160156 0)"/>
      <use xlink:href="#ArialMT-73" transform="translate(644.775391 0)"/>
      <use xlink:href="#ArialMT-74" transform="translate(694.775391 0)"/>
      <use xlink:href="#ArialMT-20" transform="translate(722.558594 0)"/>
      <use xlink:href="#ArialMT-4c" transform="translate(750.341797 0)"/>
      <use xlink:href="#ArialMT-6f" transform="translate(805.957031 0)"/>
      <use xlink:href="#ArialMT-67" transform="translate(861.572266 0)"/>
      <use xlink:href="#ArialMT-69" transform="translate(917.1875 0)"/>
      <use xlink:href="#ArialMT-6e" transform="translate(939.404297 0)"/>
     </g>
    </g>
   </g>
   <g id="matplotlib.axis_4">
    <g id="ytick_9">
     <g id="line2d_28">
      <path d="M 550.1725 330.88 
L 991.3625 330.88 
" clip-path="url(#pb7b067482c)" style="fill: none; stroke: #cccccc; stroke-width: 0.8; stroke-linecap: round"/>
     </g>
     <g id="text_29">
      <!-- 0.00 -->
      <g style="fill: #262626" transform="translate(521.765469 334.816797) scale(0.11 -0.11)">
       <use xlink:href="#ArialMT-30"/>
       <use xlink:href="#ArialMT-2e" transform="translate(55.615234 0)"/>
       <use xlink:href="#ArialMT-30" transform="translate(83.398438 0)"/>
       <use xlink:href="#ArialMT-30" transform="translate(139.013672 0)"/>
      </g>
     </g>
    </g>
    <g id="ytick_10">
     <g id="line2d_29">
      <path d="M 550.1725 277.535002 
L 991.3625 277.535002 
" clip-path="url(#pb7b067482c)" style="fill: none; stroke: #cccccc; stroke-width: 0.8; stroke-linecap: round"/>
     </g>
     <g id="text_30">
      <!-- 0.02 -->
      <g style="fill: #262626" transform="translate(521.765469 281.471799) scale(0.11 -0.11)">
       <use xlink:href="#ArialMT-30"/>
       <use xlink:href="#ArialMT-2e" transform="translate(55.615234 0)"/>
       <use xlink:href="#ArialMT-30" transform="translate(83.398438 0)"/>
       <use xlink:href="#ArialMT-32" transform="translate(139.013672 0)"/>
      </g>
     </g>
    </g>
    <g id="ytick_11">
     <g id="line2d_30">
      <path d="M 550.1725 224.190005 
L 991.3625 224.190005 
" clip-path="url(#pb7b067482c)" style="fill: none; stroke: #cccccc; stroke-width: 0.8; stroke-linecap: round"/>
     </g>
     <g id="text_31">
      <!-- 0.04 -->
      <g style="fill: #262626" transform="translate(521.765469 228.126802) scale(0.11 -0.11)">
       <use xlink:href="#ArialMT-30"/>
       <use xlink:href="#ArialMT-2e" transform="translate(55.615234 0)"/>
       <use xlink:href="#ArialMT-30" transform="translate(83.398438 0)"/>
       <use xlink:href="#ArialMT-34" transform="translate(139.013672 0)"/>
      </g>
     </g>
    </g>
    <g id="ytick_12">
     <g id="line2d_31">
      <path d="M 550.1725 170.845007 
L 991.3625 170.845007 
" clip-path="url(#pb7b067482c)" style="fill: none; stroke: #cccccc; stroke-width: 0.8; stroke-linecap: round"/>
     </g>
     <g id="text_32">
      <!-- 0.06 -->
      <g style="fill: #262626" transform="translate(521.765469 174.781804) scale(0.11 -0.11)">
       <use xlink:href="#ArialMT-30"/>
       <use xlink:href="#ArialMT-2e" transform="translate(55.615234 0)"/>
       <use xlink:href="#ArialMT-30" transform="translate(83.398438 0)"/>
       <use xlink:href="#ArialMT-36" transform="translate(139.013672 0)"/>
      </g>
     </g>
    </g>
    <g id="ytick_13">
     <g id="line2d_32">
      <path d="M 550.1725 117.50001 
L 991.3625 117.50001 
" clip-path="url(#pb7b067482c)" style="fill: none; stroke: #cccccc; stroke-width: 0.8; stroke-linecap: round"/>
     </g>
     <g id="text_33">
      <!-- 0.08 -->
      <g style="fill: #262626" transform="translate(521.765469 121.436807) scale(0.11 -0.11)">
       <use xlink:href="#ArialMT-30"/>
       <use xlink:href="#ArialMT-2e" transform="translate(55.615234 0)"/>
       <use xlink:href="#ArialMT-30" transform="translate(83.398438 0)"/>
       <use xlink:href="#ArialMT-38" transform="translate(139.013672 0)"/>
      </g>
     </g>
    </g>
    <g id="text_34">
     <!-- Density -->
     <g style="fill: #262626" transform="translate(515.239844 219.76625) rotate(-90) scale(0.12 -0.12)">
      <use xlink:href="#ArialMT-44"/>
      <use xlink:href="#ArialMT-65" transform="translate(72.216797 0)"/>
      <use xlink:href="#ArialMT-6e" transform="translate(127.832031 0)"/>
      <use xlink:href="#ArialMT-73" transform="translate(183.447266 0)"/>
      <use xlink:href="#ArialMT-69" transform="translate(233.447266 0)"/>
      <use xlink:href="#ArialMT-74" transform="translate(255.664062 0)"/>
      <use xlink:href="#ArialMT-79" transform="translate(283.447266 0)"/>
     </g>
    </g>
   </g>
   <g id="FillBetweenPolyCollection_1">
    <defs>
     <path id="m31d8f245ad" d="M 581.517369 -40.632733 
L 581.517369 -39.521094 
L 583.41938 -39.521094 
L 585.321391 -39.521094 
L 587.223403 -39.521094 
L 589.125414 -39.521094 
L 591.027426 -39.521094 
L 592.929437 -39.521094 
L 594.831448 -39.521094 
L 596.73346 -39.521094 
L 598.635471 -39.521094 
L 600.537482 -39.521094 
L 602.439494 -39.521094 
L 604.341505 -39.521094 
L 606.243516 -39.521094 
L 608.145528 -39.521094 
L 610.047539 -39.521094 
L 611.949551 -39.521094 
L 613.851562 -39.521094 
L 615.753573 -39.521094 
L 617.655585 -39.521094 
L 619.557596 -39.521094 
L 621.459607 -39.521094 
L 623.361619 -39.521094 
L 625.26363 -39.521094 
L 627.165642 -39.521094 
L 629.067653 -39.521094 
L 630.969664 -39.521094 
L 632.871676 -39.521094 
L 634.773687 -39.521094 
L 636.675698 -39.521094 
L 638.57771 -39.521094 
L 640.479721 -39.521094 
L 642.381733 -39.521094 
L 644.283744 -39.521094 
L 646.185755 -39.521094 
L 648.087767 -39.521094 
L 649.989778 -39.521094 
L 651.891789 -39.521094 
L 653.793801 -39.521094 
L 655.695812 -39.521094 
L 657.597823 -39.521094 
L 659.499835 -39.521094 
L 661.401846 -39.521094 
L 663.303858 -39.521094 
L 665.205869 -39.521094 
L 667.10788 -39.521094 
L 669.009892 -39.521094 
L 670.911903 -39.521094 
L 672.813914 -39.521094 
L 674.715926 -39.521094 
L 676.617937 -39.521094 
L 678.519949 -39.521094 
L 680.42196 -39.521094 
L 682.323971 -39.521094 
L 684.225983 -39.521094 
L 686.127994 -39.521094 
L 688.030005 -39.521094 
L 689.932017 -39.521094 
L 691.834028 -39.521094 
L 693.73604 -39.521094 
L 695.638051 -39.521094 
L 697.540062 -39.521094 
L 699.442074 -39.521094 
L 701.344085 -39.521094 
L 703.246096 -39.521094 
L 705.148108 -39.521094 
L 707.050119 -39.521094 
L 708.95213 -39.521094 
L 710.854142 -39.521094 
L 712.756153 -39.521094 
L 714.658165 -39.521094 
L 716.560176 -39.521094 
L 718.462187 -39.521094 
L 720.364199 -39.521094 
L 722.26621 -39.521094 
L 724.168221 -39.521094 
L 726.070233 -39.521094 
L 727.972244 -39.521094 
L 729.874256 -39.521094 
L 731.776267 -39.521094 
L 733.678278 -39.521094 
L 735.58029 -39.521094 
L 737.482301 -39.521094 
L 739.384312 -39.521094 
L 741.286324 -39.521094 
L 743.188335 -39.521094 
L 745.090347 -39.521094 
L 746.992358 -39.521094 
L 748.894369 -39.521094 
L 750.796381 -39.521094 
L 752.698392 -39.521094 
L 754.600403 -39.521094 
L 756.502415 -39.521094 
L 758.404426 -39.521094 
L 760.306437 -39.521094 
L 762.208449 -39.521094 
L 764.11046 -39.521094 
L 766.012472 -39.521094 
L 767.914483 -39.521094 
L 769.816494 -39.521094 
L 771.718506 -39.521094 
L 773.620517 -39.521094 
L 775.522528 -39.521094 
L 777.42454 -39.521094 
L 779.326551 -39.521094 
L 781.228563 -39.521094 
L 783.130574 -39.521094 
L 785.032585 -39.521094 
L 786.934597 -39.521094 
L 788.836608 -39.521094 
L 790.738619 -39.521094 
L 792.640631 -39.521094 
L 794.542642 -39.521094 
L 796.444653 -39.521094 
L 798.346665 -39.521094 
L 800.248676 -39.521094 
L 802.150688 -39.521094 
L 804.052699 -39.521094 
L 805.95471 -39.521094 
L 807.856722 -39.521094 
L 809.758733 -39.521094 
L 811.660744 -39.521094 
L 813.562756 -39.521094 
L 815.464767 -39.521094 
L 817.366779 -39.521094 
L 819.26879 -39.521094 
L 821.170801 -39.521094 
L 823.072813 -39.521094 
L 824.974824 -39.521094 
L 826.876835 -39.521094 
L 828.778847 -39.521094 
L 830.680858 -39.521094 
L 832.58287 -39.521094 
L 834.484881 -39.521094 
L 836.386892 -39.521094 
L 838.288904 -39.521094 
L 840.190915 -39.521094 
L 842.092926 -39.521094 
L 843.994938 -39.521094 
L 845.896949 -39.521094 
L 847.79896 -39.521094 
L 849.700972 -39.521094 
L 851.602983 -39.521094 
L 853.504995 -39.521094 
L 855.407006 -39.521094 
L 857.309017 -39.521094 
L 859.211029 -39.521094 
L 861.11304 -39.521094 
L 863.015051 -39.521094 
L 864.917063 -39.521094 
L 866.819074 -39.521094 
L 868.721086 -39.521094 
L 870.623097 -39.521094 
L 872.525108 -39.521094 
L 874.42712 -39.521094 
L 876.329131 -39.521094 
L 878.231142 -39.521094 
L 880.133154 -39.521094 
L 882.035165 -39.521094 
L 883.937177 -39.521094 
L 885.839188 -39.521094 
L 887.741199 -39.521094 
L 889.643211 -39.521094 
L 891.545222 -39.521094 
L 893.447233 -39.521094 
L 895.349245 -39.521094 
L 897.251256 -39.521094 
L 899.153267 -39.521094 
L 901.055279 -39.521094 
L 902.95729 -39.521094 
L 904.859302 -39.521094 
L 906.761313 -39.521094 
L 908.663324 -39.521094 
L 910.565336 -39.521094 
L 912.467347 -39.521094 
L 914.369358 -39.521094 
L 916.27137 -39.521094 
L 918.173381 -39.521094 
L 920.075393 -39.521094 
L 921.977404 -39.521094 
L 923.879415 -39.521094 
L 925.781427 -39.521094 
L 927.683438 -39.521094 
L 929.585449 -39.521094 
L 931.487461 -39.521094 
L 933.389472 -39.521094 
L 935.291484 -39.521094 
L 937.193495 -39.521094 
L 939.095506 -39.521094 
L 940.997518 -39.521094 
L 942.899529 -39.521094 
L 944.80154 -39.521094 
L 946.703552 -39.521094 
L 948.605563 -39.521094 
L 950.507574 -39.521094 
L 952.409586 -39.521094 
L 954.311597 -39.521094 
L 956.213609 -39.521094 
L 958.11562 -39.521094 
L 960.017631 -39.521094 
L 960.017631 -39.522789 
L 960.017631 -39.522789 
L 958.11562 -39.524609 
L 956.213609 -39.527929 
L 954.311597 -39.533555 
L 952.409586 -39.542394 
L 950.507574 -39.55523 
L 948.605563 -39.572389 
L 946.703552 -39.593366 
L 944.80154 -39.616583 
L 942.899529 -39.639429 
L 940.997518 -39.658707 
L 939.095506 -39.67141 
L 937.193495 -39.675637 
L 935.291484 -39.671286 
L 933.389472 -39.66027 
L 931.487461 -39.646133 
L 929.585449 -39.633182 
L 927.683438 -39.625415 
L 925.781427 -39.625584 
L 923.879415 -39.634639 
L 921.977404 -39.651717 
L 920.075393 -39.67462 
L 918.173381 -39.700658 
L 916.27137 -39.727545 
L 914.369358 -39.754051 
L 912.467347 -39.78016 
L 910.565336 -39.806694 
L 908.663324 -39.834597 
L 906.761313 -39.864235 
L 904.859302 -39.89503 
L 902.95729 -39.925581 
L 901.055279 -39.954174 
L 899.153267 -39.979428 
L 897.251256 -40.000806 
L 895.349245 -40.018845 
L 893.447233 -40.035089 
L 891.545222 -40.051808 
L 889.643211 -40.071587 
L 887.741199 -40.096864 
L 885.839188 -40.129483 
L 883.937177 -40.170333 
L 882.035165 -40.219188 
L 880.133154 -40.274841 
L 878.231142 -40.335555 
L 876.329131 -40.39967 
L 874.42712 -40.466107 
L 872.525108 -40.534458 
L 870.623097 -40.604491 
L 868.721086 -40.67516 
L 866.819074 -40.743528 
L 864.917063 -40.804172 
L 863.015051 -40.84958 
L 861.11304 -40.871713 
L 859.211029 -40.864403 
L 857.309017 -40.825802 
L 855.407006 -40.75994 
L 853.504995 -40.676673 
L 851.602983 -40.589877 
L 849.700972 -40.514431 
L 847.79896 -40.463013 
L 845.896949 -40.443789 
L 843.994938 -40.459663 
L 842.092926 -40.509098 
L 840.190915 -40.587883 
L 838.288904 -40.690992 
L 836.386892 -40.813811 
L 834.484881 -40.952401 
L 832.58287 -41.102956 
L 830.680858 -41.26086 
L 828.778847 -41.419859 
L 826.876835 -41.571768 
L 824.974824 -41.706912 
L 823.072813 -41.815318 
L 821.170801 -41.888409 
L 819.26879 -41.92083 
L 817.366779 -41.911994 
L 815.464767 -41.867031 
L 813.562756 -41.796938 
L 811.660744 -41.717865 
L 809.758733 -41.649471 
L 807.856722 -41.612383 
L 805.95471 -41.624923 
L 804.052699 -41.699592 
L 802.150688 -41.84018 
L 800.248676 -42.040536 
L 798.346665 -42.285777 
L 796.444653 -42.555967 
L 794.542642 -42.831244 
L 792.640631 -43.096637 
L 790.738619 -43.344704 
L 788.836608 -43.575018 
L 786.934597 -43.790884 
L 785.032585 -43.995012 
L 783.130574 -44.186288 
L 781.228563 -44.359199 
L 779.326551 -44.506111 
L 777.42454 -44.621235 
L 775.522528 -44.70441 
L 773.620517 -44.763038 
L 771.718506 -44.81143 
L 769.816494 -44.867915 
L 767.914483 -44.950814 
L 766.012472 -45.074601 
L 764.11046 -45.247307 
L 762.208449 -45.469777 
L 760.306437 -45.736922 
L 758.404426 -46.040697 
L 756.502415 -46.374097 
L 754.600403 -46.735012 
L 752.698392 -47.128494 
L 750.796381 -47.566222 
L 748.894369 -48.062732 
L 746.992358 -48.62925 
L 745.090347 -49.267154 
L 743.188335 -49.96366 
L 741.286324 -50.691934 
L 739.384312 -51.41651 
L 737.482301 -52.103025 
L 735.58029 -52.729511 
L 733.678278 -53.295508 
L 731.776267 -53.825529 
L 729.874256 -54.365058 
L 727.972244 -54.969796 
L 726.070233 -55.691397 
L 724.168221 -56.564352 
L 722.26621 -57.598296 
L 720.364199 -58.778038 
L 718.462187 -60.070799 
L 716.560176 -61.437852 
L 714.658165 -62.846658 
L 712.756153 -64.279967 
L 710.854142 -65.739642 
L 708.95213 -67.244605 
L 707.050119 -68.823743 
L 705.148108 -70.505737 
L 703.246096 -72.308394 
L 701.344085 -74.230236 
L 699.442074 -76.24668 
L 697.540062 -78.312236 
L 695.638051 -80.36886 
L 693.73604 -82.359132 
L 691.834028 -84.241571 
L 689.932017 -86.004332 
L 688.030005 -87.673185 
L 686.127994 -89.310516 
L 684.225983 -91.004237 
L 682.323971 -92.848695 
L 680.42196 -94.922791 
L 678.519949 -97.272182 
L 676.617937 -99.901447 
L 674.715926 -102.778508 
L 672.813914 -105.848747 
L 670.911903 -109.052579 
L 669.009892 -112.339614 
L 667.10788 -115.675557 
L 665.205869 -119.042827 
L 663.303858 -122.439522 
L 661.401846 -125.881387 
L 659.499835 -129.407791 
L 657.597823 -133.087886 
L 655.695812 -137.020517 
L 653.793801 -141.323079 
L 651.891789 -146.109535 
L 649.989778 -151.463236 
L 648.087767 -157.413066 
L 646.185755 -163.920554 
L 644.283744 -170.881855 
L 642.381733 -178.144097 
L 640.479721 -185.532326 
L 638.57771 -192.881818 
L 636.675698 -200.070421 
L 634.773687 -207.045864 
L 632.871676 -213.842962 
L 630.969664 -220.585397 
L 629.067653 -227.467156 
L 627.165642 -234.710769 
L 625.26363 -242.503867 
L 623.361619 -250.921462 
L 621.459607 -259.846706 
L 619.557596 -268.905705 
L 617.655585 -277.431512 
L 615.753573 -284.470629 
L 613.851562 -288.844059 
L 611.949551 -289.273475 
L 610.047539 -284.575796 
L 608.145528 -273.910194 
L 606.243516 -257.03073 
L 604.341505 -234.46881 
L 602.439494 -207.564306 
L 600.537482 -178.298322 
L 598.635471 -148.948635 
L 596.73346 -121.660832 
L 594.831448 -98.065975 
L 592.929437 -79.057174 
L 591.027426 -64.772091 
L 589.125414 -54.750615 
L 587.223403 -48.184157 
L 585.321391 -44.163929 
L 583.41938 -41.863432 
L 581.517369 -40.632733 
z
" style="stroke: #2ecc71; stroke-width: 2"/>
    </defs>
    <g clip-path="url(#pb7b067482c)">
     <use xlink:href="#m31d8f245ad" x="0" y="370.401094" style="fill: #2ecc71; fill-opacity: 0.35; stroke: #2ecc71; stroke-width: 2"/>
    </g>
   </g>
   <g id="FillBetweenPolyCollection_2">
    <defs>
     <path id="m7411dff459" d="M 570.226591 -40.252499 
L 570.226591 -39.521094 
L 572.242077 -39.521094 
L 574.257564 -39.521094 
L 576.27305 -39.521094 
L 578.288537 -39.521094 
L 580.304024 -39.521094 
L 582.31951 -39.521094 
L 584.334997 -39.521094 
L 586.350483 -39.521094 
L 588.36597 -39.521094 
L 590.381456 -39.521094 
L 592.396943 -39.521094 
L 594.412429 -39.521094 
L 596.427916 -39.521094 
L 598.443402 -39.521094 
L 600.458889 -39.521094 
L 602.474375 -39.521094 
L 604.489862 -39.521094 
L 606.505348 -39.521094 
L 608.520835 -39.521094 
L 610.536321 -39.521094 
L 612.551808 -39.521094 
L 614.567294 -39.521094 
L 616.582781 -39.521094 
L 618.598267 -39.521094 
L 620.613754 -39.521094 
L 622.629241 -39.521094 
L 624.644727 -39.521094 
L 626.660214 -39.521094 
L 628.6757 -39.521094 
L 630.691187 -39.521094 
L 632.706673 -39.521094 
L 634.72216 -39.521094 
L 636.737646 -39.521094 
L 638.753133 -39.521094 
L 640.768619 -39.521094 
L 642.784106 -39.521094 
L 644.799592 -39.521094 
L 646.815079 -39.521094 
L 648.830565 -39.521094 
L 650.846052 -39.521094 
L 652.861538 -39.521094 
L 654.877025 -39.521094 
L 656.892511 -39.521094 
L 658.907998 -39.521094 
L 660.923484 -39.521094 
L 662.938971 -39.521094 
L 664.954458 -39.521094 
L 666.969944 -39.521094 
L 668.985431 -39.521094 
L 671.000917 -39.521094 
L 673.016404 -39.521094 
L 675.03189 -39.521094 
L 677.047377 -39.521094 
L 679.062863 -39.521094 
L 681.07835 -39.521094 
L 683.093836 -39.521094 
L 685.109323 -39.521094 
L 687.124809 -39.521094 
L 689.140296 -39.521094 
L 691.155782 -39.521094 
L 693.171269 -39.521094 
L 695.186755 -39.521094 
L 697.202242 -39.521094 
L 699.217728 -39.521094 
L 701.233215 -39.521094 
L 703.248701 -39.521094 
L 705.264188 -39.521094 
L 707.279675 -39.521094 
L 709.295161 -39.521094 
L 711.310648 -39.521094 
L 713.326134 -39.521094 
L 715.341621 -39.521094 
L 717.357107 -39.521094 
L 719.372594 -39.521094 
L 721.38808 -39.521094 
L 723.403567 -39.521094 
L 725.419053 -39.521094 
L 727.43454 -39.521094 
L 729.450026 -39.521094 
L 731.465513 -39.521094 
L 733.480999 -39.521094 
L 735.496486 -39.521094 
L 737.511972 -39.521094 
L 739.527459 -39.521094 
L 741.542945 -39.521094 
L 743.558432 -39.521094 
L 745.573918 -39.521094 
L 747.589405 -39.521094 
L 749.604892 -39.521094 
L 751.620378 -39.521094 
L 753.635865 -39.521094 
L 755.651351 -39.521094 
L 757.666838 -39.521094 
L 759.682324 -39.521094 
L 761.697811 -39.521094 
L 763.713297 -39.521094 
L 765.728784 -39.521094 
L 767.74427 -39.521094 
L 769.759757 -39.521094 
L 771.775243 -39.521094 
L 773.79073 -39.521094 
L 775.806216 -39.521094 
L 777.821703 -39.521094 
L 779.837189 -39.521094 
L 781.852676 -39.521094 
L 783.868162 -39.521094 
L 785.883649 -39.521094 
L 787.899135 -39.521094 
L 789.914622 -39.521094 
L 791.930108 -39.521094 
L 793.945595 -39.521094 
L 795.961082 -39.521094 
L 797.976568 -39.521094 
L 799.992055 -39.521094 
L 802.007541 -39.521094 
L 804.023028 -39.521094 
L 806.038514 -39.521094 
L 808.054001 -39.521094 
L 810.069487 -39.521094 
L 812.084974 -39.521094 
L 814.10046 -39.521094 
L 816.115947 -39.521094 
L 818.131433 -39.521094 
L 820.14692 -39.521094 
L 822.162406 -39.521094 
L 824.177893 -39.521094 
L 826.193379 -39.521094 
L 828.208866 -39.521094 
L 830.224352 -39.521094 
L 832.239839 -39.521094 
L 834.255325 -39.521094 
L 836.270812 -39.521094 
L 838.286299 -39.521094 
L 840.301785 -39.521094 
L 842.317272 -39.521094 
L 844.332758 -39.521094 
L 846.348245 -39.521094 
L 848.363731 -39.521094 
L 850.379218 -39.521094 
L 852.394704 -39.521094 
L 854.410191 -39.521094 
L 856.425677 -39.521094 
L 858.441164 -39.521094 
L 860.45665 -39.521094 
L 862.472137 -39.521094 
L 864.487623 -39.521094 
L 866.50311 -39.521094 
L 868.518596 -39.521094 
L 870.534083 -39.521094 
L 872.549569 -39.521094 
L 874.565056 -39.521094 
L 876.580542 -39.521094 
L 878.596029 -39.521094 
L 880.611516 -39.521094 
L 882.627002 -39.521094 
L 884.642489 -39.521094 
L 886.657975 -39.521094 
L 888.673462 -39.521094 
L 890.688948 -39.521094 
L 892.704435 -39.521094 
L 894.719921 -39.521094 
L 896.735408 -39.521094 
L 898.750894 -39.521094 
L 900.766381 -39.521094 
L 902.781867 -39.521094 
L 904.797354 -39.521094 
L 906.81284 -39.521094 
L 908.828327 -39.521094 
L 910.843813 -39.521094 
L 912.8593 -39.521094 
L 914.874786 -39.521094 
L 916.890273 -39.521094 
L 918.905759 -39.521094 
L 920.921246 -39.521094 
L 922.936733 -39.521094 
L 924.952219 -39.521094 
L 926.967706 -39.521094 
L 928.983192 -39.521094 
L 930.998679 -39.521094 
L 933.014165 -39.521094 
L 935.029652 -39.521094 
L 937.045138 -39.521094 
L 939.060625 -39.521094 
L 941.076111 -39.521094 
L 943.091598 -39.521094 
L 945.107084 -39.521094 
L 947.122571 -39.521094 
L 949.138057 -39.521094 
L 951.153544 -39.521094 
L 953.16903 -39.521094 
L 955.184517 -39.521094 
L 957.200003 -39.521094 
L 959.21549 -39.521094 
L 961.230976 -39.521094 
L 963.246463 -39.521094 
L 965.26195 -39.521094 
L 967.277436 -39.521094 
L 969.292923 -39.521094 
L 971.308409 -39.521094 
L 971.308409 -39.527979 
L 971.308409 -39.527979 
L 969.292923 -39.532788 
L 967.277436 -39.540342 
L 965.26195 -39.551801 
L 963.246463 -39.568578 
L 961.230976 -39.59227 
L 959.21549 -39.624524 
L 957.200003 -39.666822 
L 955.184517 -39.720196 
L 953.16903 -39.784924 
L 951.153544 -39.860239 
L 949.138057 -39.944135 
L 947.122571 -40.033343 
L 945.107084 -40.123513 
L 943.091598 -40.209634 
L 941.076111 -40.286632 
L 939.060625 -40.350066 
L 937.045138 -40.396795 
L 935.029652 -40.425459 
L 933.014165 -40.436683 
L 930.998679 -40.432935 
L 928.983192 -40.418068 
L 926.967706 -40.396648 
L 924.952219 -40.373209 
L 922.936733 -40.351609 
L 920.921246 -40.33462 
L 918.905759 -40.323814 
L 916.890273 -40.319745 
L 914.874786 -40.322329 
L 912.8593 -40.331291 
L 910.843813 -40.346539 
L 908.828327 -40.368365 
L 906.81284 -40.39742 
L 904.797354 -40.434512 
L 902.781867 -40.480297 
L 900.766381 -40.534993 
L 898.750894 -40.59819 
L 896.735408 -40.668834 
L 894.719921 -40.745344 
L 892.704435 -40.825831 
L 890.688948 -40.90832 
L 888.673462 -40.990911 
L 886.657975 -41.071845 
L 884.642489 -41.149484 
L 882.627002 -41.222264 
L 880.611516 -41.288661 
L 878.596029 -41.347231 
L 876.580542 -41.39672 
L 874.565056 -41.436208 
L 872.549569 -41.465255 
L 870.534083 -41.483969 
L 868.518596 -41.492998 
L 866.50311 -41.493415 
L 864.487623 -41.486566 
L 862.472137 -41.473892 
L 860.45665 -41.456796 
L 858.441164 -41.43656 
L 856.425677 -41.414341 
L 854.410191 -41.391206 
L 852.394704 -41.368199 
L 850.379218 -41.346412 
L 848.363731 -41.327038 
L 846.348245 -41.311401 
L 844.332758 -41.300953 
L 842.317272 -41.297266 
L 840.301785 -41.302014 
L 838.286299 -41.316989 
L 836.270812 -41.344148 
L 834.255325 -41.385703 
L 832.239839 -41.444224 
L 830.224352 -41.522729 
L 828.208866 -41.624683 
L 826.193379 -41.753851 
L 824.177893 -41.913983 
L 822.162406 -42.108311 
L 820.14692 -42.338927 
L 818.131433 -42.606131 
L 816.115947 -42.90786 
L 814.10046 -43.239334 
L 812.084974 -43.592991 
L 810.069487 -43.958755 
L 808.054001 -44.324645 
L 806.038514 -44.677662 
L 804.023028 -45.004881 
L 802.007541 -45.294651 
L 799.992055 -45.537809 
L 797.976568 -45.728769 
L 795.961082 -45.866397 
L 793.945595 -45.954531 
L 791.930108 -46.002059 
L 789.914622 -46.022483 
L 787.899135 -46.032961 
L 785.883649 -46.052911 
L 783.868162 -46.102314 
L 781.852676 -46.199956 
L 779.837189 -46.361855 
L 777.821703 -46.60013 
L 775.806216 -46.922479 
L 773.79073 -47.33237 
L 771.775243 -47.829857 
L 769.759757 -48.412863 
L 767.74427 -49.078638 
L 765.728784 -49.825066 
L 763.713297 -50.651558 
L 761.697811 -51.559329 
L 759.682324 -52.551024 
L 757.666838 -53.629795 
L 755.651351 -54.798063 
L 753.635865 -56.056249 
L 751.620378 -57.401743 
L 749.604892 -58.828288 
L 747.589405 -60.325838 
L 745.573918 -61.880797 
L 743.558432 -63.476485 
L 741.542945 -65.093648 
L 739.527459 -66.710899 
L 737.511972 -68.305113 
L 735.496486 -69.851881 
L 733.480999 -71.326235 
L 731.465513 -72.703779 
L 729.450026 -73.962279 
L 727.43454 -75.083562 
L 725.419053 -76.055427 
L 723.403567 -76.873199 
L 721.38808 -77.540578 
L 719.372594 -78.069608 
L 717.357107 -78.47979 
L 715.341621 -78.796577 
L 713.326134 -79.049578 
L 711.310648 -79.270823 
L 709.295161 -79.493313 
L 707.279675 -79.749899 
L 705.264188 -80.072399 
L 703.248701 -80.49074 
L 701.233215 -81.031984 
L 699.217728 -81.71917 
L 697.202242 -82.570107 
L 695.186755 -83.596403 
L 693.171269 -84.803065 
L 691.155782 -86.188991 
L 689.140296 -87.748445 
L 687.124809 -89.473402 
L 685.109323 -91.356335 
L 683.093836 -93.392833 
L 681.07835 -95.583402 
L 679.062863 -97.933896 
L 677.047377 -100.454336 
L 675.03189 -103.156258 
L 673.016404 -106.049138 
L 671.000917 -109.136726 
L 668.985431 -112.414226 
L 666.969944 -115.867154 
L 664.954458 -119.472354 
L 662.938971 -123.201229 
L 660.923484 -127.024761 
L 658.907998 -130.919519 
L 656.892511 -134.873627 
L 654.877025 -138.891634 
L 652.861538 -142.997325 
L 650.846052 -147.233772 
L 648.830565 -151.660259 
L 646.815079 -156.346075 
L 644.799592 -161.361599 
L 642.784106 -166.767518 
L 640.768619 -172.603345 
L 638.753133 -178.876628 
L 636.737646 -185.55419 
L 634.72216 -192.55647 
L 632.706673 -199.755479 
L 630.691187 -206.976267 
L 628.6757 -214.001226 
L 626.660214 -220.576313 
L 624.644727 -226.418437 
L 622.629241 -231.223843 
L 620.613754 -234.678119 
L 618.598267 -236.469149 
L 616.582781 -236.304482 
L 614.567294 -233.933937 
L 612.551808 -229.176826 
L 610.536321 -221.951113 
L 608.520835 -212.299864 
L 606.505348 -200.409176 
L 604.489862 -186.611918 
L 602.474375 -171.373532 
L 600.458889 -155.259315 
L 598.443402 -138.886525 
L 596.427916 -122.868054 
L 594.412429 -107.756498 
L 592.396943 -93.997457 
L 590.381456 -81.898939 
L 588.36597 -71.620344 
L 586.350483 -63.180536 
L 584.334997 -56.481188 
L 582.31951 -51.339407 
L 580.304024 -47.523141 
L 578.288537 -44.78372 
L 576.27305 -42.881695 
L 574.257564 -41.604237 
L 572.242077 -40.774231 
L 570.226591 -40.252499 
z
" style="stroke: #e74c3c; stroke-width: 2"/>
    </defs>
    <g clip-path="url(#pb7b067482c)">
     <use xlink:href="#m7411dff459" x="0" y="370.401094" style="fill: #e74c3c; fill-opacity: 0.35; stroke: #e74c3c; stroke-width: 2"/>
    </g>
   </g>
   <g id="patch_49">
    <path d="M 550.1725 330.88 
L 550.1725 68.64 
" style="fill: none; stroke: #cccccc; stroke-width: 0.8; stroke-linejoin: miter; stroke-linecap: square"/>
   </g>
   <g id="patch_50">
    <path d="M 991.3625 330.88 
L 991.3625 68.64 
" style="fill: none; stroke: #cccccc; stroke-width: 0.8; stroke-linejoin: miter; stroke-linecap: square"/>
   </g>
   <g id="patch_51">
    <path d="M 550.1725 330.88 
L 991.3625 330.88 
" style="fill: none; stroke: #cccccc; stroke-width: 0.8; stroke-linejoin: miter; stroke-linecap: square"/>
   </g>
   <g id="patch_52">
    <path d="M 550.1725 68.64 
L 991.3625 68.64 
" style="fill: none; stroke: #cccccc; stroke-width: 0.8; stroke-linejoin: miter; stroke-linecap: square"/>
   </g>
   <g id="text_35">
    <!-- LastLoginDays Distribution by Churn -->
    <g style="fill: #262626" transform="translate(646.717656 62.64) scale(0.14 -0.14)">
     <defs>
      <path id="Arial-BoldMT-43" d="M 3397 1684 
L 4294 1400 
Q 4088 650 3608 286 
Q 3128 -78 2391 -78 
Q 1478 -78 890 545 
Q 303 1169 303 2250 
Q 303 3394 893 4026 
Q 1484 4659 2447 4659 
Q 3288 4659 3813 4163 
Q 4125 3869 4281 3319 
L 3366 3100 
Q 3284 3456 3026 3662 
Q 2769 3869 2400 3869 
Q 1891 3869 1573 3503 
Q 1256 3138 1256 2319 
Q 1256 1450 1568 1081 
Q 1881 713 2381 713 
Q 2750 713 3015 947 
Q 3281 1181 3397 1684 
z
" transform="scale(0.015625)"/>
      <path id="Arial-BoldMT-68" d="M 1334 4581 
L 1334 2897 
Q 1759 3394 2350 3394 
Q 2653 3394 2897 3281 
Q 3141 3169 3264 2994 
Q 3388 2819 3433 2606 
Q 3478 2394 3478 1947 
L 3478 0 
L 2600 0 
L 2600 1753 
Q 2600 2275 2550 2415 
Q 2500 2556 2373 2639 
Q 2247 2722 2056 2722 
Q 1838 2722 1666 2615 
Q 1494 2509 1414 2295 
Q 1334 2081 1334 1663 
L 1334 0 
L 456 0 
L 456 4581 
L 1334 4581 
z
" transform="scale(0.015625)"/>
     </defs>
     <use xlink:href="#Arial-BoldMT-4c"/>
     <use xlink:href="#Arial-BoldMT-61" transform="translate(61.083984 0)"/>
     <use xlink:href="#Arial-BoldMT-73" transform="translate(116.699219 0)"/>
     <use xlink:href="#Arial-BoldMT-74" transform="translate(172.314453 0)"/>
     <use xlink:href="#Arial-BoldMT-4c" transform="translate(205.615234 0)"/>
     <use xlink:href="#Arial-BoldMT-6f" transform="translate(266.699219 0)"/>
     <use xlink:href="#Arial-BoldMT-67" transform="translate(327.783203 0)"/>
     <use xlink:href="#Arial-BoldMT-69" transform="translate(388.867188 0)"/>
     <use xlink:href="#Arial-BoldMT-6e" transform="translate(416.650391 0)"/>
     <use xlink:href="#Arial-BoldMT-44" transform="translate(477.734375 0)"/>
     <use xlink:href="#Arial-BoldMT-61" transform="translate(549.951172 0)"/>
     <use xlink:href="#Arial-BoldMT-79" transform="translate(605.566406 0)"/>
     <use xlink:href="#Arial-BoldMT-73" transform="translate(661.181641 0)"/>
     <use xlink:href="#Arial-BoldMT-20" transform="translate(716.796875 0)"/>
     <use xlink:href="#Arial-BoldMT-44" transform="translate(744.580078 0)"/>
     <use xlink:href="#Arial-BoldMT-69" transform="translate(816.796875 0)"/>
     <use xlink:href="#Arial-BoldMT-73" transform="translate(844.580078 0)"/>
     <use xlink:href="#Arial-BoldMT-74" transform="translate(900.195312 0)"/>
     <use xlink:href="#Arial-BoldMT-72" transform="translate(933.496094 0)"/>
     <use xlink:href="#Arial-BoldMT-69" transform="translate(972.412109 0)"/>
     <use xlink:href="#Arial-BoldMT-62" transform="translate(1000.195312 0)"/>
     <use xlink:href="#Arial-BoldMT-75" transform="translate(1061.279297 0)"/>
     <use xlink:href="#Arial-BoldMT-74" transform="translate(1122.363281 0)"/>
     <use xlink:href="#Arial-BoldMT-69" transform="translate(1155.664062 0)"/>
     <use xlink:href="#Arial-BoldMT-6f" transform="translate(1183.447266 0)"/>
     <use xlink:href="#Arial-BoldMT-6e" transform="translate(1244.53125 0)"/>
     <use xlink:href="#Arial-BoldMT-20" transform="translate(1305.615234 0)"/>
     <use xlink:href="#Arial-BoldMT-62" transform="translate(1333.398438 0)"/>
     <use xlink:href="#Arial-BoldMT-79" transform="translate(1394.482422 0)"/>
     <use xlink:href="#Arial-BoldMT-20" transform="translate(1450.097656 0)"/>
     <use xlink:href="#Arial-BoldMT-43" transform="translate(1477.880859 0)"/>
     <use xlink:href="#Arial-BoldMT-68" transform="translate(1550.097656 0)"/>
     <use xlink:href="#Arial-BoldMT-75" transform="translate(1611.181641 0)"/>
     <use xlink:href="#Arial-BoldMT-72" transform="translate(1672.265625 0)"/>
     <use xlink:href="#Arial-BoldMT-6e" transform="translate(1711.181641 0)"/>
    </g>
   </g>
   <g id="legend_2">
    <g id="patch_53">
     <path d="M 843.682344 109.085625 
L 983.6625 109.085625 
Q 985.8625 109.085625 985.8625 106.885625 
L 985.8625 76.34 
Q 985.8625 74.14 983.6625 74.14 
L 843.682344 74.14 
Q 841.482344 74.14 841.482344 76.34 
L 841.482344 106.885625 
Q 841.482344 109.085625 843.682344 109.085625 
z
" style="fill: #ffffff; opacity: 0.8; stroke: #cccccc; stroke-linejoin: miter"/>
    </g>
    <g id="patch_54">
     <path d="M 845.882344 86.547656 
L 867.882344 86.547656 
L 867.882344 78.847656 
L 845.882344 78.847656 
z
" style="fill: #2ecc71; fill-opacity: 0.35; stroke: #2ecc71; stroke-width: 2; stroke-linejoin: miter"/>
    </g>
    <g id="text_36">
     <!-- Churn=No (n=5,176) -->
     <g style="fill: #262626" transform="translate(876.682344 86.547656) scale(0.11 -0.11)">
      <defs>
       <path id="ArialMT-68" d="M 422 0 
L 422 4581 
L 984 4581 
L 984 2938 
Q 1378 3394 1978 3394 
Q 2347 3394 2619 3248 
Q 2891 3103 3008 2847 
Q 3125 2591 3125 2103 
L 3125 0 
L 2563 0 
L 2563 2103 
Q 2563 2525 2380 2717 
Q 2197 2909 1863 2909 
Q 1613 2909 1392 2779 
Q 1172 2650 1078 2428 
Q 984 2206 984 1816 
L 984 0 
L 422 0 
z
" transform="scale(0.015625)"/>
       <path id="ArialMT-3d" d="M 3381 2694 
L 356 2694 
L 356 3219 
L 3381 3219 
L 3381 2694 
z
M 3381 1303 
L 356 1303 
L 356 1828 
L 3381 1828 
L 3381 1303 
z
" transform="scale(0.015625)"/>
       <path id="ArialMT-4e" d="M 488 0 
L 488 4581 
L 1109 4581 
L 3516 984 
L 3516 4581 
L 4097 4581 
L 4097 0 
L 3475 0 
L 1069 3600 
L 1069 0 
L 488 0 
z
" transform="scale(0.015625)"/>
       <path id="ArialMT-28" d="M 1497 -1347 
Q 1031 -759 709 28 
Q 388 816 388 1659 
Q 388 2403 628 3084 
Q 909 3875 1497 4659 
L 1900 4659 
Q 1522 4009 1400 3731 
Q 1209 3300 1100 2831 
Q 966 2247 966 1656 
Q 966 153 1900 -1347 
L 1497 -1347 
z
" transform="scale(0.015625)"/>
       <path id="ArialMT-2c" d="M 569 0 
L 569 641 
L 1209 641 
L 1209 0 
Q 1209 -353 1084 -570 
Q 959 -788 688 -906 
L 531 -666 
Q 709 -588 793 -436 
Q 878 -284 888 0 
L 569 0 
z
" transform="scale(0.015625)"/>
       <path id="ArialMT-29" d="M 791 -1347 
L 388 -1347 
Q 1322 153 1322 1656 
Q 1322 2244 1188 2822 
Q 1081 3291 891 3722 
Q 769 4003 388 4659 
L 791 4659 
Q 1378 3875 1659 3084 
Q 1900 2403 1900 1659 
Q 1900 816 1576 28 
Q 1253 -759 791 -1347 
z
" transform="scale(0.015625)"/>
      </defs>
      <use xlink:href="#ArialMT-43"/>
      <use xlink:href="#ArialMT-68" transform="translate(72.216797 0)"/>
      <use xlink:href="#ArialMT-75" transform="translate(127.832031 0)"/>
      <use xlink:href="#ArialMT-72" transform="translate(183.447266 0)"/>
      <use xlink:href="#ArialMT-6e" transform="translate(216.748047 0)"/>
      <use xlink:href="#ArialMT-3d" transform="translate(272.363281 0)"/>
      <use xlink:href="#ArialMT-4e" transform="translate(330.761719 0)"/>
      <use xlink:href="#ArialMT-6f" transform="translate(402.978516 0)"/>
      <use xlink:href="#ArialMT-20" transform="translate(458.59375 0)"/>
      <use xlink:href="#ArialMT-28" transform="translate(486.376953 0)"/>
      <use xlink:href="#ArialMT-6e" transform="translate(519.677734 0)"/>
      <use xlink:href="#ArialMT-3d" transform="translate(575.292969 0)"/>
      <use xlink:href="#ArialMT-35" transform="translate(633.691406 0)"/>
      <use xlink:href="#ArialMT-2c" transform="translate(689.306641 0)"/>
      <use xlink:href="#ArialMT-31" transform="translate(717.089844 0)"/>
      <use xlink:href="#ArialMT-37" transform="translate(772.705078 0)"/>
      <use xlink:href="#ArialMT-36" transform="translate(828.320312 0)"/>
      <use xlink:href="#ArialMT-29" transform="translate(883.935547 0)"/>
     </g>
    </g>
    <g id="patch_55">
     <path d="M 845.882344 102.370469 
L 867.882344 102.370469 
L 867.882344 94.670469 
L 845.882344 94.670469 
z
" style="fill: #e74c3c; fill-opacity: 0.35; stroke: #e74c3c; stroke-width: 2; stroke-linejoin: miter"/>
    </g>
    <g id="text_37">
     <!-- Churn=Yes (n=1,867) -->
     <g style="fill: #262626" transform="translate(876.682344 102.370469) scale(0.11 -0.11)">
      <defs>
       <path id="ArialMT-59" d="M 1784 0 
L 1784 1941 
L 19 4581 
L 756 4581 
L 1659 3200 
Q 1909 2813 2125 2425 
Q 2331 2784 2625 3234 
L 3513 4581 
L 4219 4581 
L 2391 1941 
L 2391 0 
L 1784 0 
z
" transform="scale(0.015625)"/>
      </defs>
      <use xlink:href="#ArialMT-43"/>
      <use xlink:href="#ArialMT-68" transform="translate(72.216797 0)"/>
      <use xlink:href="#ArialMT-75" transform="translate(127.832031 0)"/>
      <use xlink:href="#ArialMT-72" transform="translate(183.447266 0)"/>
      <use xlink:href="#ArialMT-6e" transform="translate(216.748047 0)"/>
      <use xlink:href="#ArialMT-3d" transform="translate(272.363281 0)"/>
      <use xlink:href="#ArialMT-59" transform="translate(330.761719 0)"/>
      <use xlink:href="#ArialMT-65" transform="translate(388.335938 0)"/>
      <use xlink:href="#ArialMT-73" transform="translate(443.951172 0)"/>
      <use xlink:href="#ArialMT-20" transform="translate(493.951172 0)"/>
      <use xlink:href="#ArialMT-28" transform="translate(521.734375 0)"/>
      <use xlink:href="#ArialMT-6e" transform="translate(555.035156 0)"/>
      <use xlink:href="#ArialMT-3d" transform="translate(610.650391 0)"/>
      <use xlink:href="#ArialMT-31" transform="translate(669.048828 0)"/>
      <use xlink:href="#ArialMT-2c" transform="translate(724.664062 0)"/>
      <use xlink:href="#ArialMT-38" transform="translate(752.447266 0)"/>
      <use xlink:href="#ArialMT-36" transform="translate(808.0625 0)"/>
      <use xlink:href="#ArialMT-37" transform="translate(863.677734 0)"/>
      <use xlink:href="#ArialMT-29" transform="translate(919.292969 0)"/>
     </g>
    </g>
   </g>
  </g>
  <g id="text_38">
   <!-- Login Recency Analysis -->
   <g style="fill: #262626" transform="translate(413.251484 17.936719) scale(0.15 -0.15)">
    <defs>
     <path id="Arial-BoldMT-52" d="M 469 0 
L 469 4581 
L 2416 4581 
Q 3150 4581 3483 4457 
Q 3816 4334 4016 4018 
Q 4216 3703 4216 3297 
Q 4216 2781 3912 2445 
Q 3609 2109 3006 2022 
Q 3306 1847 3501 1637 
Q 3697 1428 4028 894 
L 4588 0 
L 3481 0 
L 2813 997 
Q 2456 1531 2325 1670 
Q 2194 1809 2047 1861 
Q 1900 1913 1581 1913 
L 1394 1913 
L 1394 0 
L 469 0 
z
M 1394 2644 
L 2078 2644 
Q 2744 2644 2909 2700 
Q 3075 2756 3169 2893 
Q 3263 3031 3263 3238 
Q 3263 3469 3139 3611 
Q 3016 3753 2791 3791 
Q 2678 3806 2116 3806 
L 1394 3806 
L 1394 2644 
z
" transform="scale(0.015625)"/>
     <path id="Arial-BoldMT-41" d="M 4597 0 
L 3591 0 
L 3191 1041 
L 1359 1041 
L 981 0 
L 0 0 
L 1784 4581 
L 2763 4581 
L 4597 0 
z
M 2894 1813 
L 2263 3513 
L 1644 1813 
L 2894 1813 
z
" transform="scale(0.015625)"/>
     <path id="Arial-BoldMT-6c" d="M 459 0 
L 459 4581 
L 1338 4581 
L 1338 0 
L 459 0 
z
" transform="scale(0.015625)"/>
    </defs>
    <use xlink:href="#Arial-BoldMT-4c"/>
    <use xlink:href="#Arial-BoldMT-6f" transform="translate(61.083984 0)"/>
    <use xlink:href="#Arial-BoldMT-67" transform="translate(122.167969 0)"/>
    <use xlink:href="#Arial-BoldMT-69" transform="translate(183.251953 0)"/>
    <use xlink:href="#Arial-BoldMT-6e" transform="translate(211.035156 0)"/>
    <use xlink:href="#Arial-BoldMT-20" transform="translate(272.119141 0)"/>
    <use xlink:href="#Arial-BoldMT-52" transform="translate(299.902344 0)"/>
    <use xlink:href="#Arial-BoldMT-65" transform="translate(372.119141 0)"/>
    <use xlink:href="#Arial-BoldMT-63" transform="translate(427.734375 0)"/>
    <use xlink:href="#Arial-BoldMT-65" transform="translate(483.349609 0)"/>
    <use xlink:href="#Arial-BoldMT-6e" transform="translate(538.964844 0)"/>
    <use xlink:href="#Arial-BoldMT-63" transform="translate(600.048828 0)"/>
    <use xlink:href="#Arial-BoldMT-79" transform="translate(655.664062 0)"/>
    <use xlink:href="#Arial-BoldMT-20" transform="translate(711.279297 0)"/>
    <use xlink:href="#Arial-BoldMT-41" transform="translate(735.3125 0)"/>
    <use xlink:href="#Arial-BoldMT-6e" transform="translate(807.529297 0)"/>
    <use xlink:href="#Arial-BoldMT-61" transform="translate(868.613281 0)"/>
    <use xlink:href="#Arial-BoldMT-6c" transform="translate(924.228516 0)"/>
    <use xlink:href="#Arial-BoldMT-79" transform="translate(952.011719 0)"/>
    <use xlink:href="#Arial-BoldMT-73" transform="translate(1007.626953 0)"/>
    <use xlink:href="#Arial-BoldMT-69" transform="translate(1063.242188 0)"/>
    <use xlink:href="#Arial-BoldMT-73" transform="translate(1091.025391 0)"/>
   </g>
  </g>
 </g>
 <defs>
  <clipPath id="pfdb6368beb">
   <rect x="53.6425" y="68.64" width="441.19" height="262.24"/>
  </clipPath>
  <clipPath id="pb7b067482c">
   <rect x="550.1725" y="68.64" width="441.19" height="262.24"/>
  </clipPath>
 </defs>
</svg>
