<?xml version="1.0" encoding="utf-8" standalone="no"?>
<!DOCTYPE svg PUBLIC "-//W3C//DTD SVG 1.1//EN"
  "http://www.w3.org/Graphics/SVG/1.1/DTD/svg11.dtd">
<svg xmlns:xlink="http://www.w3.org/1999/xlink" width="998.565469pt" height="370.401094pt" viewBox="0 0 998.565469 370.401094" xmlns="http://www.w3.org/2000/svg" version="1.1">
 <metadata>
  <rdf:RDF xmlns:dc="http://purl.org/dc/elements/1.1/" xmlns:cc="http://creativecommons.org/ns#" xmlns:rdf="http://www.w3.org/1999/02/22-rdf-syntax-ns#">
   <cc:Work>
    <dc:type rdf:resource="http://purl.org/dc/dcmitype/StillImage"/>
    <dc:date>2026-06-14T17:44:10.965174</dc:date>
    <dc:format>image/svg+xml</dc:format>
    <dc:creator>
     <cc:Agent>
      <dc:title>Matplotlib v3.10.8, https://matplotlib.org/</dc:title>
     </cc:Agent>
    </dc:creator>
   </cc:Work>
  </rdf:RDF>
 </metadata>
 <defs>
  <style type="text/css">*{stroke-linejoin: round; stroke-linecap: butt}</style>
 </defs>
 <g id="figure_1">
  <g id="patch_1">
   <path d="M 0 370.401094 
L 998.565469 370.401094 
L 998.565469 0 
L 0 0 
z
" style="fill: #ffffff"/>
  </g>
  <g id="axes_1">
   <g id="patch_2">
    <path d="M 47.525469 330.88 
L 488.715469 330.88 
L 488.715469 68.64 
L 47.525469 68.64 
z
" style="fill: #ffffff"/>
   </g>
   <g id="matplotlib.axis_1">
    <g id="xtick_1">
     <g id="line2d_1">
      <path d="M 67.57956 330.88 
L 67.57956 68.64 
" clip-path="url(#p80d4fa008b)" style="fill: none; stroke: #cccccc; stroke-width: 0.8; stroke-linecap: round"/>
     </g>
     <g id="text_1">
      <!-- 0 -->
      <g style="fill: #262626" transform="translate(64.521044 345.753594) scale(0.11 -0.11)">
       <defs>
        <path id="ArialMT-30" d="M 266 2259 
Q 266 3072 433 3567 
Q 600 4063 929 4331 
Q 1259 4600 1759 4600 
Q 2128 4600 2406 4451 
Q 2684 4303 2865 4023 
Q 3047 3744 3150 3342 
Q 3253 2941 3253 2259 
Q 3253 1453 3087 958 
Q 2922 463 2592 192 
Q 2263 -78 1759 -78 
Q 1097 -78 719 397 
Q 266 969 266 2259 
z
M 844 2259 
Q 844 1131 1108 757 
Q 1372 384 1759 384 
Q 2147 384 2411 759 
Q 2675 1134 2675 2259 
Q 2675 3391 2411 3762 
Q 2147 4134 1753 4134 
Q 1366 4134 1134 3806 
Q 844 3388 844 2259 
z
" transform="scale(0.015625)"/>
       </defs>
       <use xlink:href="#ArialMT-30"/>
      </g>
     </g>
    </g>
    <g id="xtick_2">
     <g id="line2d_2">
      <path d="M 123.285368 330.88 
L 123.285368 68.64 
" clip-path="url(#p80d4fa008b)" style="fill: none; stroke: #cccccc; stroke-width: 0.8; stroke-linecap: round"/>
     </g>
     <g id="text_2">
      <!-- 10 -->
      <g style="fill: #262626" transform="translate(117.168336 345.753594) scale(0.11 -0.11)">
       <defs>
        <path id="ArialMT-31" d="M 2384 0 
L 1822 0 
L 1822 3584 
Q 1619 3391 1289 3197 
Q 959 3003 697 2906 
L 697 3450 
Q 1169 3672 1522 3987 
Q 1875 4303 2022 4600 
L 2384 4600 
L 2384 0 
z
" transform="scale(0.015625)"/>
       </defs>
       <use xlink:href="#ArialMT-31"/>
       <use xlink:href="#ArialMT-30" transform="translate(55.615234 0)"/>
      </g>
     </g>
    </g>
    <g id="xtick_3">
     <g id="line2d_3">
      <path d="M 178.991176 330.88 
L 178.991176 68.64 
" clip-path="url(#p80d4fa008b)" style="fill: none; stroke: #cccccc; stroke-width: 0.8; stroke-linecap: round"/>
     </g>
     <g id="text_3">
      <!-- 20 -->
      <g style="fill: #262626" transform="translate(172.874145 345.753594) scale(0.11 -0.11)">
       <defs>
        <path id="ArialMT-32" d="M 3222 541 
L 3222 0 
L 194 0 
Q 188 203 259 391 
Q 375 700 629 1000 
Q 884 1300 1366 1694 
Q 2113 2306 2375 2664 
Q 2638 3022 2638 3341 
Q 2638 3675 2398 3904 
Q 2159 4134 1775 4134 
Q 1369 4134 1125 3890 
Q 881 3647 878 3216 
L 300 3275 
Q 359 3922 746 4261 
Q 1134 4600 1788 4600 
Q 2447 4600 2831 4234 
Q 3216 3869 3216 3328 
Q 3216 3053 3103 2787 
Q 2991 2522 2730 2228 
Q 2469 1934 1863 1422 
Q 1356 997 1212 845 
Q 1069 694 975 541 
L 3222 541 
z
" transform="scale(0.015625)"/>
       </defs>
       <use xlink:href="#ArialMT-32"/>
       <use xlink:href="#ArialMT-30" transform="translate(55.615234 0)"/>
      </g>
     </g>
    </g>
    <g id="xtick_4">
     <g id="line2d_4">
      <path d="M 234.696984 330.88 
L 234.696984 68.64 
" clip-path="url(#p80d4fa008b)" style="fill: none; stroke: #cccccc; stroke-width: 0.8; stroke-linecap: round"/>
     </g>
     <g id="text_4">
      <!-- 30 -->
      <g style="fill: #262626" transform="translate(228.579953 345.753594) scale(0.11 -0.11)">
       <defs>
        <path id="ArialMT-33" d="M 269 1209 
L 831 1284 
Q 928 806 1161 595 
Q 1394 384 1728 384 
Q 2125 384 2398 659 
Q 2672 934 2672 1341 
Q 2672 1728 2419 1979 
Q 2166 2231 1775 2231 
Q 1616 2231 1378 2169 
L 1441 2663 
Q 1497 2656 1531 2656 
Q 1891 2656 2178 2843 
Q 2466 3031 2466 3422 
Q 2466 3731 2256 3934 
Q 2047 4138 1716 4138 
Q 1388 4138 1169 3931 
Q 950 3725 888 3313 
L 325 3413 
Q 428 3978 793 4289 
Q 1159 4600 1703 4600 
Q 2078 4600 2393 4439 
Q 2709 4278 2876 4000 
Q 3044 3722 3044 3409 
Q 3044 3113 2884 2869 
Q 2725 2625 2413 2481 
Q 2819 2388 3044 2092 
Q 3269 1797 3269 1353 
Q 3269 753 2831 336 
Q 2394 -81 1725 -81 
Q 1122 -81 723 278 
Q 325 638 269 1209 
z
" transform="scale(0.015625)"/>
       </defs>
       <use xlink:href="#ArialMT-33"/>
       <use xlink:href="#ArialMT-30" transform="translate(55.615234 0)"/>
      </g>
     </g>
    </g>
    <g id="xtick_5">
     <g id="line2d_5">
      <path d="M 290.402792 330.88 
L 290.402792 68.64 
" clip-path="url(#p80d4fa008b)" style="fill: none; stroke: #cccccc; stroke-width: 0.8; stroke-linecap: round"/>
     </g>
     <g id="text_5">
      <!-- 40 -->
      <g style="fill: #262626" transform="translate(284.285761 345.753594) scale(0.11 -0.11)">
       <defs>
        <path id="ArialMT-34" d="M 2069 0 
L 2069 1097 
L 81 1097 
L 81 1613 
L 2172 4581 
L 2631 4581 
L 2631 1613 
L 3250 1613 
L 3250 1097 
L 2631 1097 
L 2631 0 
L 2069 0 
z
M 2069 1613 
L 2069 3678 
L 634 1613 
L 2069 1613 
z
" transform="scale(0.015625)"/>
       </defs>
       <use xlink:href="#ArialMT-34"/>
       <use xlink:href="#ArialMT-30" transform="translate(55.615234 0)"/>
      </g>
     </g>
    </g>
    <g id="xtick_6">
     <g id="line2d_6">
      <path d="M 346.1086 330.88 
L 346.1086 68.64 
" clip-path="url(#p80d4fa008b)" style="fill: none; stroke: #cccccc; stroke-width: 0.8; stroke-linecap: round"/>
     </g>
     <g id="text_6">
      <!-- 50 -->
      <g style="fill: #262626" transform="translate(339.991569 345.753594) scale(0.11 -0.11)">
       <defs>
        <path id="ArialMT-35" d="M 266 1200 
L 856 1250 
Q 922 819 1161 601 
Q 1400 384 1738 384 
Q 2144 384 2425 690 
Q 2706 997 2706 1503 
Q 2706 1984 2436 2262 
Q 2166 2541 1728 2541 
Q 1456 2541 1237 2417 
Q 1019 2294 894 2097 
L 366 2166 
L 809 4519 
L 3088 4519 
L 3088 3981 
L 1259 3981 
L 1013 2750 
Q 1425 3038 1878 3038 
Q 2478 3038 2890 2622 
Q 3303 2206 3303 1553 
Q 3303 931 2941 478 
Q 2500 -78 1738 -78 
Q 1113 -78 717 272 
Q 322 622 266 1200 
z
" transform="scale(0.015625)"/>
       </defs>
       <use xlink:href="#ArialMT-35"/>
       <use xlink:href="#ArialMT-30" transform="translate(55.615234 0)"/>
      </g>
     </g>
    </g>
    <g id="xtick_7">
     <g id="line2d_7">
      <path d="M 401.814408 330.88 
L 401.814408 68.64 
" clip-path="url(#p80d4fa008b)" style="fill: none; stroke: #cccccc; stroke-width: 0.8; stroke-linecap: round"/>
     </g>
     <g id="text_7">
      <!-- 60 -->
      <g style="fill: #262626" transform="translate(395.697377 345.753594) scale(0.11 -0.11)">
       <defs>
        <path id="ArialMT-36" d="M 3184 3459 
L 2625 3416 
Q 2550 3747 2413 3897 
Q 2184 4138 1850 4138 
Q 1581 4138 1378 3988 
Q 1113 3794 959 3422 
Q 806 3050 800 2363 
Q 1003 2672 1297 2822 
Q 1591 2972 1913 2972 
Q 2475 2972 2870 2558 
Q 3266 2144 3266 1488 
Q 3266 1056 3080 686 
Q 2894 316 2569 119 
Q 2244 -78 1831 -78 
Q 1128 -78 684 439 
Q 241 956 241 2144 
Q 241 3472 731 4075 
Q 1159 4600 1884 4600 
Q 2425 4600 2770 4297 
Q 3116 3994 3184 3459 
z
M 888 1484 
Q 888 1194 1011 928 
Q 1134 663 1356 523 
Q 1578 384 1822 384 
Q 2178 384 2434 671 
Q 2691 959 2691 1453 
Q 2691 1928 2437 2201 
Q 2184 2475 1800 2475 
Q 1419 2475 1153 2201 
Q 888 1928 888 1484 
z
" transform="scale(0.015625)"/>
       </defs>
       <use xlink:href="#ArialMT-36"/>
       <use xlink:href="#ArialMT-30" transform="translate(55.615234 0)"/>
      </g>
     </g>
    </g>
    <g id="xtick_8">
     <g id="line2d_8">
      <path d="M 457.520216 330.88 
L 457.520216 68.64 
" clip-path="url(#p80d4fa008b)" style="fill: none; stroke: #cccccc; stroke-width: 0.8; stroke-linecap: round"/>
     </g>
     <g id="text_8">
      <!-- 70 -->
      <g style="fill: #262626" transform="translate(451.403185 345.753594) scale(0.11 -0.11)">
       <defs>
        <path id="ArialMT-37" d="M 303 3981 
L 303 4522 
L 3269 4522 
L 3269 4084 
Q 2831 3619 2401 2847 
Q 1972 2075 1738 1259 
Q 1569 684 1522 0 
L 944 0 
Q 953 541 1156 1306 
Q 1359 2072 1739 2783 
Q 2119 3494 2547 3981 
L 303 3981 
z
" transform="scale(0.015625)"/>
       </defs>
       <use xlink:href="#ArialMT-37"/>
       <use xlink:href="#ArialMT-30" transform="translate(55.615234 0)"/>
      </g>
     </g>
    </g>
    <g id="text_9">
     <!-- Tenure (Months) -->
     <g style="fill: #262626" transform="translate(224.442344 360.675469) scale(0.12 -0.12)">
      <defs>
       <path id="ArialMT-54" d="M 1659 0 
L 1659 4041 
L 150 4041 
L 150 4581 
L 3781 4581 
L 3781 4041 
L 2266 4041 
L 2266 0 
L 1659 0 
z
" transform="scale(0.015625)"/>
       <path id="ArialMT-65" d="M 2694 1069 
L 3275 997 
Q 3138 488 2766 206 
Q 2394 -75 1816 -75 
Q 1088 -75 661 373 
Q 234 822 234 1631 
Q 234 2469 665 2931 
Q 1097 3394 1784 3394 
Q 2450 3394 2872 2941 
Q 3294 2488 3294 1666 
Q 3294 1616 3291 1516 
L 816 1516 
Q 847 969 1125 678 
Q 1403 388 1819 388 
Q 2128 388 2347 550 
Q 2566 713 2694 1069 
z
M 847 1978 
L 2700 1978 
Q 2663 2397 2488 2606 
Q 2219 2931 1791 2931 
Q 1403 2931 1139 2672 
Q 875 2413 847 1978 
z
" transform="scale(0.015625)"/>
       <path id="ArialMT-6e" d="M 422 0 
L 422 3319 
L 928 3319 
L 928 2847 
Q 1294 3394 1984 3394 
Q 2284 3394 2536 3286 
Q 2788 3178 2913 3003 
Q 3038 2828 3088 2588 
Q 3119 2431 3119 2041 
L 3119 0 
L 2556 0 
L 2556 2019 
Q 2556 2363 2490 2533 
Q 2425 2703 2258 2804 
Q 2091 2906 1866 2906 
Q 1506 2906 1245 2678 
Q 984 2450 984 1813 
L 984 0 
L 422 0 
z
" transform="scale(0.015625)"/>
       <path id="ArialMT-75" d="M 2597 0 
L 2597 488 
Q 2209 -75 1544 -75 
Q 1250 -75 995 37 
Q 741 150 617 320 
Q 494 491 444 738 
Q 409 903 409 1263 
L 409 3319 
L 972 3319 
L 972 1478 
Q 972 1038 1006 884 
Q 1059 663 1231 536 
Q 1403 409 1656 409 
Q 1909 409 2131 539 
Q 2353 669 2445 892 
Q 2538 1116 2538 1541 
L 2538 3319 
L 3100 3319 
L 3100 0 
L 2597 0 
z
" transform="scale(0.015625)"/>
       <path id="ArialMT-72" d="M 416 0 
L 416 3319 
L 922 3319 
L 922 2816 
Q 1116 3169 1280 3281 
Q 1444 3394 1641 3394 
Q 1925 3394 2219 3213 
L 2025 2691 
Q 1819 2813 1613 2813 
Q 1428 2813 1281 2702 
Q 1134 2591 1072 2394 
Q 978 2094 978 1738 
L 978 0 
L 416 0 
z
" transform="scale(0.015625)"/>
       <path id="ArialMT-20" transform="scale(0.015625)"/>
       <path id="ArialMT-28" d="M 1497 -1347 
Q 1031 -759 709 28 
Q 388 816 388 1659 
Q 388 2403 628 3084 
Q 909 3875 1497 4659 
L 1900 4659 
Q 1522 4009 1400 3731 
Q 1209 3300 1100 2831 
Q 966 2247 966 1656 
Q 966 153 1900 -1347 
L 1497 -1347 
z
" transform="scale(0.015625)"/>
       <path id="ArialMT-4d" d="M 475 0 
L 475 4581 
L 1388 4581 
L 2472 1338 
Q 2622 884 2691 659 
Q 2769 909 2934 1394 
L 4031 4581 
L 4847 4581 
L 4847 0 
L 4263 0 
L 4263 3834 
L 2931 0 
L 2384 0 
L 1059 3900 
L 1059 0 
L 475 0 
z
" transform="scale(0.015625)"/>
       <path id="ArialMT-6f" d="M 213 1659 
Q 213 2581 725 3025 
Q 1153 3394 1769 3394 
Q 2453 3394 2887 2945 
Q 3322 2497 3322 1706 
Q 3322 1066 3130 698 
Q 2938 331 2570 128 
Q 2203 -75 1769 -75 
Q 1072 -75 642 372 
Q 213 819 213 1659 
z
M 791 1659 
Q 791 1022 1069 705 
Q 1347 388 1769 388 
Q 2188 388 2466 706 
Q 2744 1025 2744 1678 
Q 2744 2294 2464 2611 
Q 2184 2928 1769 2928 
Q 1347 2928 1069 2612 
Q 791 2297 791 1659 
z
" transform="scale(0.015625)"/>
       <path id="ArialMT-74" d="M 1650 503 
L 1731 6 
Q 1494 -44 1306 -44 
Q 1000 -44 831 53 
Q 663 150 594 308 
Q 525 466 525 972 
L 525 2881 
L 113 2881 
L 113 3319 
L 525 3319 
L 525 4141 
L 1084 4478 
L 1084 3319 
L 1650 3319 
L 1650 2881 
L 1084 2881 
L 1084 941 
Q 1084 700 1114 631 
Q 1144 563 1211 522 
Q 1278 481 1403 481 
Q 1497 481 1650 503 
z
" transform="scale(0.015625)"/>
       <path id="ArialMT-68" d="M 422 0 
L 422 4581 
L 984 4581 
L 984 2938 
Q 1378 3394 1978 3394 
Q 2347 3394 2619 3248 
Q 2891 3103 3008 2847 
Q 3125 2591 3125 2103 
L 3125 0 
L 2563 0 
L 2563 2103 
Q 2563 2525 2380 2717 
Q 2197 2909 1863 2909 
Q 1613 2909 1392 2779 
Q 1172 2650 1078 2428 
Q 984 2206 984 1816 
L 984 0 
L 422 0 
z
" transform="scale(0.015625)"/>
       <path id="ArialMT-73" d="M 197 991 
L 753 1078 
Q 800 744 1014 566 
Q 1228 388 1613 388 
Q 2000 388 2187 545 
Q 2375 703 2375 916 
Q 2375 1106 2209 1216 
Q 2094 1291 1634 1406 
Q 1016 1563 777 1677 
Q 538 1791 414 1992 
Q 291 2194 291 2438 
Q 291 2659 392 2848 
Q 494 3038 669 3163 
Q 800 3259 1026 3326 
Q 1253 3394 1513 3394 
Q 1903 3394 2198 3281 
Q 2494 3169 2634 2976 
Q 2775 2784 2828 2463 
L 2278 2388 
Q 2241 2644 2061 2787 
Q 1881 2931 1553 2931 
Q 1166 2931 1000 2803 
Q 834 2675 834 2503 
Q 834 2394 903 2306 
Q 972 2216 1119 2156 
Q 1203 2125 1616 2013 
Q 2213 1853 2448 1751 
Q 2684 1650 2818 1456 
Q 2953 1263 2953 975 
Q 2953 694 2789 445 
Q 2625 197 2315 61 
Q 2006 -75 1616 -75 
Q 969 -75 630 194 
Q 291 463 197 991 
z
" transform="scale(0.015625)"/>
       <path id="ArialMT-29" d="M 791 -1347 
L 388 -1347 
Q 1322 153 1322 1656 
Q 1322 2244 1188 2822 
Q 1081 3291 891 3722 
Q 769 4003 388 4659 
L 791 4659 
Q 1378 3875 1659 3084 
Q 1900 2403 1900 1659 
Q 1900 816 1576 28 
Q 1253 -759 791 -1347 
z
" transform="scale(0.015625)"/>
      </defs>
      <use xlink:href="#ArialMT-54"/>
      <use xlink:href="#ArialMT-65" transform="translate(49.958984 0)"/>
      <use xlink:href="#ArialMT-6e" transform="translate(105.574219 0)"/>
      <use xlink:href="#ArialMT-75" transform="translate(161.189453 0)"/>
      <use xlink:href="#ArialMT-72" transform="translate(216.804688 0)"/>
      <use xlink:href="#ArialMT-65" transform="translate(250.105469 0)"/>
      <use xlink:href="#ArialMT-20" transform="translate(305.720703 0)"/>
      <use xlink:href="#ArialMT-28" transform="translate(333.503906 0)"/>
      <use xlink:href="#ArialMT-4d" transform="translate(366.804688 0)"/>
      <use xlink:href="#ArialMT-6f" transform="translate(450.105469 0)"/>
      <use xlink:href="#ArialMT-6e" transform="translate(505.720703 0)"/>
      <use xlink:href="#ArialMT-74" transform="translate(561.335938 0)"/>
      <use xlink:href="#ArialMT-68" transform="translate(589.119141 0)"/>
      <use xlink:href="#ArialMT-73" transform="translate(644.734375 0)"/>
      <use xlink:href="#ArialMT-29" transform="translate(694.734375 0)"/>
     </g>
    </g>
   </g>
   <g id="matplotlib.axis_2">
    <g id="ytick_1">
     <g id="line2d_9">
      <path d="M 47.525469 330.88 
L 488.715469 330.88 
" clip-path="url(#p80d4fa008b)" style="fill: none; stroke: #cccccc; stroke-width: 0.8; stroke-linecap: round"/>
     </g>
     <g id="text_10">
      <!-- 0 -->
      <g style="fill: #262626" transform="translate(34.408438 334.816797) scale(0.11 -0.11)">
       <use xlink:href="#ArialMT-30"/>
      </g>
     </g>
    </g>
    <g id="ytick_2">
     <g id="line2d_10">
      <path d="M 47.525469 301.288486 
L 488.715469 301.288486 
" clip-path="url(#p80d4fa008b)" style="fill: none; stroke: #cccccc; stroke-width: 0.8; stroke-linecap: round"/>
     </g>
     <g id="text_11">
      <!-- 25 -->
      <g style="fill: #262626" transform="translate(28.291406 305.225283) scale(0.11 -0.11)">
       <use xlink:href="#ArialMT-32"/>
       <use xlink:href="#ArialMT-35" transform="translate(55.615234 0)"/>
      </g>
     </g>
    </g>
    <g id="ytick_3">
     <g id="line2d_11">
      <path d="M 47.525469 271.696971 
L 488.715469 271.696971 
" clip-path="url(#p80d4fa008b)" style="fill: none; stroke: #cccccc; stroke-width: 0.8; stroke-linecap: round"/>
     </g>
     <g id="text_12">
      <!-- 50 -->
      <g style="fill: #262626" transform="translate(28.291406 275.633768) scale(0.11 -0.11)">
       <use xlink:href="#ArialMT-35"/>
       <use xlink:href="#ArialMT-30" transform="translate(55.615234 0)"/>
      </g>
     </g>
    </g>
    <g id="ytick_4">
     <g id="line2d_12">
      <path d="M 47.525469 242.105457 
L 488.715469 242.105457 
" clip-path="url(#p80d4fa008b)" style="fill: none; stroke: #cccccc; stroke-width: 0.8; stroke-linecap: round"/>
     </g>
     <g id="text_13">
      <!-- 75 -->
      <g style="fill: #262626" transform="translate(28.291406 246.042254) scale(0.11 -0.11)">
       <use xlink:href="#ArialMT-37"/>
       <use xlink:href="#ArialMT-35" transform="translate(55.615234 0)"/>
      </g>
     </g>
    </g>
    <g id="ytick_5">
     <g id="line2d_13">
      <path d="M 47.525469 212.513943 
L 488.715469 212.513943 
" clip-path="url(#p80d4fa008b)" style="fill: none; stroke: #cccccc; stroke-width: 0.8; stroke-linecap: round"/>
     </g>
     <g id="text_14">
      <!-- 100 -->
      <g style="fill: #262626" transform="translate(22.174375 216.45074) scale(0.11 -0.11)">
       <use xlink:href="#ArialMT-31"/>
       <use xlink:href="#ArialMT-30" transform="translate(55.615234 0)"/>
       <use xlink:href="#ArialMT-30" transform="translate(111.230469 0)"/>
      </g>
     </g>
    </g>
    <g id="ytick_6">
     <g id="line2d_14">
      <path d="M 47.525469 182.922428 
L 488.715469 182.922428 
" clip-path="url(#p80d4fa008b)" style="fill: none; stroke: #cccccc; stroke-width: 0.8; stroke-linecap: round"/>
     </g>
     <g id="text_15">
      <!-- 125 -->
      <g style="fill: #262626" transform="translate(22.174375 186.859225) scale(0.11 -0.11)">
       <use xlink:href="#ArialMT-31"/>
       <use xlink:href="#ArialMT-32" transform="translate(55.615234 0)"/>
       <use xlink:href="#ArialMT-35" transform="translate(111.230469 0)"/>
      </g>
     </g>
    </g>
    <g id="ytick_7">
     <g id="line2d_15">
      <path d="M 47.525469 153.330914 
L 488.715469 153.330914 
" clip-path="url(#p80d4fa008b)" style="fill: none; stroke: #cccccc; stroke-width: 0.8; stroke-linecap: round"/>
     </g>
     <g id="text_16">
      <!-- 150 -->
      <g style="fill: #262626" transform="translate(22.174375 157.267711) scale(0.11 -0.11)">
       <use xlink:href="#ArialMT-31"/>
       <use xlink:href="#ArialMT-35" transform="translate(55.615234 0)"/>
       <use xlink:href="#ArialMT-30" transform="translate(111.230469 0)"/>
      </g>
     </g>
    </g>
    <g id="ytick_8">
     <g id="line2d_16">
      <path d="M 47.525469 123.7394 
L 488.715469 123.7394 
" clip-path="url(#p80d4fa008b)" style="fill: none; stroke: #cccccc; stroke-width: 0.8; stroke-linecap: round"/>
     </g>
     <g id="text_17">
      <!-- 175 -->
      <g style="fill: #262626" transform="translate(22.174375 127.676197) scale(0.11 -0.11)">
       <use xlink:href="#ArialMT-31"/>
       <use xlink:href="#ArialMT-37" transform="translate(55.615234 0)"/>
       <use xlink:href="#ArialMT-35" transform="translate(111.230469 0)"/>
      </g>
     </g>
    </g>
    <g id="ytick_9">
     <g id="line2d_17">
      <path d="M 47.525469 94.147885 
L 488.715469 94.147885 
" clip-path="url(#p80d4fa008b)" style="fill: none; stroke: #cccccc; stroke-width: 0.8; stroke-linecap: round"/>
     </g>
     <g id="text_18">
      <!-- 200 -->
      <g style="fill: #262626" transform="translate(22.174375 98.084682) scale(0.11 -0.11)">
       <use xlink:href="#ArialMT-32"/>
       <use xlink:href="#ArialMT-30" transform="translate(55.615234 0)"/>
       <use xlink:href="#ArialMT-30" transform="translate(111.230469 0)"/>
      </g>
     </g>
    </g>
    <g id="text_19">
     <!-- Customer Count -->
     <g style="fill: #262626" transform="translate(15.789375 243.441875) rotate(-90) scale(0.12 -0.12)">
      <defs>
       <path id="ArialMT-43" d="M 3763 1606 
L 4369 1453 
Q 4178 706 3683 314 
Q 3188 -78 2472 -78 
Q 1731 -78 1267 223 
Q 803 525 561 1097 
Q 319 1669 319 2325 
Q 319 3041 592 3573 
Q 866 4106 1370 4382 
Q 1875 4659 2481 4659 
Q 3169 4659 3637 4309 
Q 4106 3959 4291 3325 
L 3694 3184 
Q 3534 3684 3231 3912 
Q 2928 4141 2469 4141 
Q 1941 4141 1586 3887 
Q 1231 3634 1087 3207 
Q 944 2781 944 2328 
Q 944 1744 1114 1308 
Q 1284 872 1643 656 
Q 2003 441 2422 441 
Q 2931 441 3284 734 
Q 3638 1028 3763 1606 
z
" transform="scale(0.015625)"/>
       <path id="ArialMT-6d" d="M 422 0 
L 422 3319 
L 925 3319 
L 925 2853 
Q 1081 3097 1340 3245 
Q 1600 3394 1931 3394 
Q 2300 3394 2536 3241 
Q 2772 3088 2869 2813 
Q 3263 3394 3894 3394 
Q 4388 3394 4653 3120 
Q 4919 2847 4919 2278 
L 4919 0 
L 4359 0 
L 4359 2091 
Q 4359 2428 4304 2576 
Q 4250 2725 4106 2815 
Q 3963 2906 3769 2906 
Q 3419 2906 3187 2673 
Q 2956 2441 2956 1928 
L 2956 0 
L 2394 0 
L 2394 2156 
Q 2394 2531 2256 2718 
Q 2119 2906 1806 2906 
Q 1569 2906 1367 2781 
Q 1166 2656 1075 2415 
Q 984 2175 984 1722 
L 984 0 
L 422 0 
z
" transform="scale(0.015625)"/>
      </defs>
      <use xlink:href="#ArialMT-43"/>
      <use xlink:href="#ArialMT-75" transform="translate(72.216797 0)"/>
      <use xlink:href="#ArialMT-73" transform="translate(127.832031 0)"/>
      <use xlink:href="#ArialMT-74" transform="translate(177.832031 0)"/>
      <use xlink:href="#ArialMT-6f" transform="translate(205.615234 0)"/>
      <use xlink:href="#ArialMT-6d" transform="translate(261.230469 0)"/>
      <use xlink:href="#ArialMT-65" transform="translate(344.53125 0)"/>
      <use xlink:href="#ArialMT-72" transform="translate(400.146484 0)"/>
      <use xlink:href="#ArialMT-20" transform="translate(433.447266 0)"/>
      <use xlink:href="#ArialMT-43" transform="translate(461.230469 0)"/>
      <use xlink:href="#ArialMT-6f" transform="translate(533.447266 0)"/>
      <use xlink:href="#ArialMT-75" transform="translate(589.0625 0)"/>
      <use xlink:href="#ArialMT-6e" transform="translate(644.677734 0)"/>
      <use xlink:href="#ArialMT-74" transform="translate(700.292969 0)"/>
     </g>
    </g>
   </g>
   <g id="patch_3">
    <path d="M 67.57956 330.88 
L 77.606605 330.88 
L 77.606605 84.678601 
L 67.57956 84.678601 
z
" clip-path="url(#p80d4fa008b)" style="fill: #9b59b6; fill-opacity: 0.5; stroke: #ffffff; stroke-width: 0.5; stroke-linejoin: miter"/>
   </g>
   <g id="patch_4">
    <path d="M 77.606605 330.88 
L 87.633651 330.88 
L 87.633651 141.494308 
L 77.606605 141.494308 
z
" clip-path="url(#p80d4fa008b)" style="fill: #9b59b6; fill-opacity: 0.5; stroke: #ffffff; stroke-width: 0.5; stroke-linejoin: miter"/>
   </g>
   <g id="patch_5">
    <path d="M 87.633651 330.88 
L 97.660696 330.88 
L 97.660696 104.800831 
L 87.633651 104.800831 
z
" clip-path="url(#p80d4fa008b)" style="fill: #9b59b6; fill-opacity: 0.5; stroke: #ffffff; stroke-width: 0.5; stroke-linejoin: miter"/>
   </g>
   <g id="patch_6">
    <path d="M 97.660696 330.88 
L 107.687741 330.88 
L 107.687741 94.147885 
L 97.660696 94.147885 
z
" clip-path="url(#p80d4fa008b)" style="fill: #9b59b6; fill-opacity: 0.5; stroke: #ffffff; stroke-width: 0.5; stroke-linejoin: miter"/>
   </g>
   <g id="patch_7">
    <path d="M 107.687741 330.88 
L 117.714787 330.88 
L 117.714787 206.59564 
L 107.687741 206.59564 
z
" clip-path="url(#p80d4fa008b)" style="fill: #9b59b6; fill-opacity: 0.5; stroke: #ffffff; stroke-width: 0.5; stroke-linejoin: miter"/>
   </g>
   <g id="patch_8">
    <path d="M 117.714787 330.88 
L 127.741832 330.88 
L 127.741832 129.657703 
L 117.714787 129.657703 
z
" clip-path="url(#p80d4fa008b)" style="fill: #9b59b6; fill-opacity: 0.5; stroke: #ffffff; stroke-width: 0.5; stroke-linejoin: miter"/>
   </g>
   <g id="patch_9">
    <path d="M 127.741832 330.88 
L 137.768878 330.88 
L 137.768878 91.780564 
L 127.741832 91.780564 
z
" clip-path="url(#p80d4fa008b)" style="fill: #9b59b6; fill-opacity: 0.5; stroke: #ffffff; stroke-width: 0.5; stroke-linejoin: miter"/>
   </g>
   <g id="patch_10">
    <path d="M 137.768878 330.88 
L 147.795923 330.88 
L 147.795923 104.800831 
L 137.768878 104.800831 
z
" clip-path="url(#p80d4fa008b)" style="fill: #9b59b6; fill-opacity: 0.5; stroke: #ffffff; stroke-width: 0.5; stroke-linejoin: miter"/>
   </g>
   <g id="patch_11">
    <path d="M 147.795923 330.88 
L 157.822969 330.88 
L 157.822969 89.413243 
L 147.795923 89.413243 
z
" clip-path="url(#p80d4fa008b)" style="fill: #9b59b6; fill-opacity: 0.5; stroke: #ffffff; stroke-width: 0.5; stroke-linejoin: miter"/>
   </g>
   <g id="patch_12">
    <path d="M 157.822969 330.88 
L 167.850014 330.88 
L 167.850014 210.146622 
L 157.822969 210.146622 
z
" clip-path="url(#p80d4fa008b)" style="fill: #9b59b6; fill-opacity: 0.5; stroke: #ffffff; stroke-width: 0.5; stroke-linejoin: miter"/>
   </g>
   <g id="patch_13">
    <path d="M 167.850014 330.88 
L 177.87706 330.88 
L 177.87706 108.351812 
L 167.850014 108.351812 
z
" clip-path="url(#p80d4fa008b)" style="fill: #9b59b6; fill-opacity: 0.5; stroke: #ffffff; stroke-width: 0.5; stroke-linejoin: miter"/>
   </g>
   <g id="patch_14">
    <path d="M 177.87706 330.88 
L 187.904105 330.88 
L 187.904105 124.92306 
L 177.87706 124.92306 
z
" clip-path="url(#p80d4fa008b)" style="fill: #9b59b6; fill-opacity: 0.5; stroke: #ffffff; stroke-width: 0.5; stroke-linejoin: miter"/>
   </g>
   <g id="patch_15">
    <path d="M 187.904105 330.88 
L 197.931151 330.88 
L 197.931151 115.453776 
L 187.904105 115.453776 
z
" clip-path="url(#p80d4fa008b)" style="fill: #9b59b6; fill-opacity: 0.5; stroke: #ffffff; stroke-width: 0.5; stroke-linejoin: miter"/>
   </g>
   <g id="patch_16">
    <path d="M 197.931151 330.88 
L 207.958196 330.88 
L 207.958196 95.331546 
L 197.931151 95.331546 
z
" clip-path="url(#p80d4fa008b)" style="fill: #9b59b6; fill-opacity: 0.5; stroke: #ffffff; stroke-width: 0.5; stroke-linejoin: miter"/>
   </g>
   <g id="patch_17">
    <path d="M 207.958196 330.88 
L 217.985241 330.88 
L 217.985241 221.983227 
L 207.958196 221.983227 
z
" clip-path="url(#p80d4fa008b)" style="fill: #9b59b6; fill-opacity: 0.5; stroke: #ffffff; stroke-width: 0.5; stroke-linejoin: miter"/>
   </g>
   <g id="patch_18">
    <path d="M 217.985241 330.88 
L 228.012287 330.88 
L 228.012287 100.066188 
L 217.985241 100.066188 
z
" clip-path="url(#p80d4fa008b)" style="fill: #9b59b6; fill-opacity: 0.5; stroke: #ffffff; stroke-width: 0.5; stroke-linejoin: miter"/>
   </g>
   <g id="patch_19">
    <path d="M 228.012287 330.88 
L 238.039332 330.88 
L 238.039332 90.596904 
L 228.012287 90.596904 
z
" clip-path="url(#p80d4fa008b)" style="fill: #9b59b6; fill-opacity: 0.5; stroke: #ffffff; stroke-width: 0.5; stroke-linejoin: miter"/>
   </g>
   <g id="patch_20">
    <path d="M 238.039332 330.88 
L 248.066378 330.88 
L 248.066378 101.249849 
L 238.039332 101.249849 
z
" clip-path="url(#p80d4fa008b)" style="fill: #9b59b6; fill-opacity: 0.5; stroke: #ffffff; stroke-width: 0.5; stroke-linejoin: miter"/>
   </g>
   <g id="patch_21">
    <path d="M 248.066378 330.88 
L 258.093423 330.88 
L 258.093423 95.331546 
L 248.066378 95.331546 
z
" clip-path="url(#p80d4fa008b)" style="fill: #9b59b6; fill-opacity: 0.5; stroke: #ffffff; stroke-width: 0.5; stroke-linejoin: miter"/>
   </g>
   <g id="patch_22">
    <path d="M 258.093423 330.88 
L 268.120469 330.88 
L 268.120469 217.248585 
L 258.093423 217.248585 
z
" clip-path="url(#p80d4fa008b)" style="fill: #9b59b6; fill-opacity: 0.5; stroke: #ffffff; stroke-width: 0.5; stroke-linejoin: miter"/>
   </g>
   <g id="patch_23">
    <path d="M 268.120469 330.88 
L 278.147514 330.88 
L 278.147514 113.086455 
L 268.120469 113.086455 
z
" clip-path="url(#p80d4fa008b)" style="fill: #9b59b6; fill-opacity: 0.5; stroke: #ffffff; stroke-width: 0.5; stroke-linejoin: miter"/>
   </g>
   <g id="patch_24">
    <path d="M 278.147514 330.88 
L 288.17456 330.88 
L 288.17456 98.882528 
L 278.147514 98.882528 
z
" clip-path="url(#p80d4fa008b)" style="fill: #9b59b6; fill-opacity: 0.5; stroke: #ffffff; stroke-width: 0.5; stroke-linejoin: miter"/>
   </g>
   <g id="patch_25">
    <path d="M 288.17456 330.88 
L 298.201605 330.88 
L 298.201605 103.61717 
L 288.17456 103.61717 
z
" clip-path="url(#p80d4fa008b)" style="fill: #9b59b6; fill-opacity: 0.5; stroke: #ffffff; stroke-width: 0.5; stroke-linejoin: miter"/>
   </g>
   <g id="patch_26">
    <path d="M 298.201605 330.88 
L 308.228651 330.88 
L 308.228651 115.453776 
L 298.201605 115.453776 
z
" clip-path="url(#p80d4fa008b)" style="fill: #9b59b6; fill-opacity: 0.5; stroke: #ffffff; stroke-width: 0.5; stroke-linejoin: miter"/>
   </g>
   <g id="patch_27">
    <path d="M 308.228651 330.88 
L 318.255696 330.88 
L 318.255696 221.983227 
L 308.228651 221.983227 
z
" clip-path="url(#p80d4fa008b)" style="fill: #9b59b6; fill-opacity: 0.5; stroke: #ffffff; stroke-width: 0.5; stroke-linejoin: miter"/>
   </g>
   <g id="patch_28">
    <path d="M 318.255696 330.88 
L 328.282741 330.88 
L 328.282741 101.249849 
L 318.255696 101.249849 
z
" clip-path="url(#p80d4fa008b)" style="fill: #9b59b6; fill-opacity: 0.5; stroke: #ffffff; stroke-width: 0.5; stroke-linejoin: miter"/>
   </g>
   <g id="patch_29">
    <path d="M 328.282741 330.88 
L 338.309787 330.88 
L 338.309787 81.127619 
L 328.282741 81.127619 
z
" clip-path="url(#p80d4fa008b)" style="fill: #9b59b6; fill-opacity: 0.5; stroke: #ffffff; stroke-width: 0.5; stroke-linejoin: miter"/>
   </g>
   <g id="patch_30">
    <path d="M 338.309787 330.88 
L 348.336832 330.88 
L 348.336832 87.045922 
L 338.309787 87.045922 
z
" clip-path="url(#p80d4fa008b)" style="fill: #9b59b6; fill-opacity: 0.5; stroke: #ffffff; stroke-width: 0.5; stroke-linejoin: miter"/>
   </g>
   <g id="patch_31">
    <path d="M 348.336832 330.88 
L 358.363878 330.88 
L 358.363878 97.698867 
L 348.336832 97.698867 
z
" clip-path="url(#p80d4fa008b)" style="fill: #9b59b6; fill-opacity: 0.5; stroke: #ffffff; stroke-width: 0.5; stroke-linejoin: miter"/>
   </g>
   <g id="patch_32">
    <path d="M 358.363878 330.88 
L 368.390923 330.88 
L 368.390923 207.7793 
L 358.363878 207.7793 
z
" clip-path="url(#p80d4fa008b)" style="fill: #9b59b6; fill-opacity: 0.5; stroke: #ffffff; stroke-width: 0.5; stroke-linejoin: miter"/>
   </g>
   <g id="patch_33">
    <path d="M 368.390923 330.88 
L 378.417969 330.88 
L 378.417969 120.188418 
L 368.390923 120.188418 
z
" clip-path="url(#p80d4fa008b)" style="fill: #9b59b6; fill-opacity: 0.5; stroke: #ffffff; stroke-width: 0.5; stroke-linejoin: miter"/>
   </g>
   <g id="patch_34">
    <path d="M 378.417969 330.88 
L 388.445014 330.88 
L 388.445014 114.270115 
L 378.417969 114.270115 
z
" clip-path="url(#p80d4fa008b)" style="fill: #9b59b6; fill-opacity: 0.5; stroke: #ffffff; stroke-width: 0.5; stroke-linejoin: miter"/>
   </g>
   <g id="patch_35">
    <path d="M 388.445014 330.88 
L 398.47206 330.88 
L 398.47206 101.249849 
L 388.445014 101.249849 
z
" clip-path="url(#p80d4fa008b)" style="fill: #9b59b6; fill-opacity: 0.5; stroke: #ffffff; stroke-width: 0.5; stroke-linejoin: miter"/>
   </g>
   <g id="patch_36">
    <path d="M 398.47206 330.88 
L 408.499105 330.88 
L 408.499105 105.984491 
L 398.47206 105.984491 
z
" clip-path="url(#p80d4fa008b)" style="fill: #9b59b6; fill-opacity: 0.5; stroke: #ffffff; stroke-width: 0.5; stroke-linejoin: miter"/>
   </g>
   <g id="patch_37">
    <path d="M 408.499105 330.88 
L 418.526151 330.88 
L 418.526151 208.962961 
L 408.499105 208.962961 
z
" clip-path="url(#p80d4fa008b)" style="fill: #9b59b6; fill-opacity: 0.5; stroke: #ffffff; stroke-width: 0.5; stroke-linejoin: miter"/>
   </g>
   <g id="patch_38">
    <path d="M 418.526151 330.88 
L 428.553196 330.88 
L 428.553196 85.862261 
L 418.526151 85.862261 
z
" clip-path="url(#p80d4fa008b)" style="fill: #9b59b6; fill-opacity: 0.5; stroke: #ffffff; stroke-width: 0.5; stroke-linejoin: miter"/>
   </g>
   <g id="patch_39">
    <path d="M 428.553196 330.88 
L 438.580241 330.88 
L 438.580241 114.270115 
L 428.553196 114.270115 
z
" clip-path="url(#p80d4fa008b)" style="fill: #9b59b6; fill-opacity: 0.5; stroke: #ffffff; stroke-width: 0.5; stroke-linejoin: miter"/>
   </g>
   <g id="patch_40">
    <path d="M 438.580241 330.88 
L 448.607287 330.88 
L 448.607287 84.678601 
L 438.580241 84.678601 
z
" clip-path="url(#p80d4fa008b)" style="fill: #9b59b6; fill-opacity: 0.5; stroke: #ffffff; stroke-width: 0.5; stroke-linejoin: miter"/>
   </g>
   <g id="patch_41">
    <path d="M 448.607287 330.88 
L 458.634332 330.88 
L 458.634332 90.596904 
L 448.607287 90.596904 
z
" clip-path="url(#p80d4fa008b)" style="fill: #9b59b6; fill-opacity: 0.5; stroke: #ffffff; stroke-width: 0.5; stroke-linejoin: miter"/>
   </g>
   <g id="patch_42">
    <path d="M 458.634332 330.88 
L 468.661378 330.88 
L 468.661378 116.637436 
L 458.634332 116.637436 
z
" clip-path="url(#p80d4fa008b)" style="fill: #9b59b6; fill-opacity: 0.5; stroke: #ffffff; stroke-width: 0.5; stroke-linejoin: miter"/>
   </g>
   <g id="line2d_18">
    <path d="M 67.57956 218.463752 
L 71.610533 202.77419 
L 75.641506 188.123596 
L 77.656992 181.336098 
L 79.672479 174.967182 
L 81.687965 169.048711 
L 83.703452 163.601809 
L 85.718938 158.637171 
L 87.734425 154.15571 
L 89.749911 150.149471 
L 91.765398 146.60274 
L 93.780884 143.493264 
L 95.796371 140.793527 
L 97.811858 138.472005 
L 99.827344 136.494366 
L 101.842831 134.824591 
L 103.858317 133.425975 
L 105.873804 132.262026 
L 107.88929 131.297242 
L 109.904777 130.497788 
L 113.93575 129.271191 
L 117.966723 128.364292 
L 126.028669 126.912459 
L 138.121588 124.905377 
L 142.152561 124.408504 
L 146.183534 124.119769 
L 150.214507 124.106404 
L 154.24548 124.408896 
L 158.276453 125.029789 
L 162.307426 125.928541 
L 168.353886 127.609932 
L 174.400345 129.330962 
L 178.431318 130.284452 
L 182.462292 130.953003 
L 186.493265 131.262751 
L 190.524238 131.182704 
L 194.555211 130.725418 
L 198.586184 129.941019 
L 202.617157 128.906859 
L 210.679103 126.464601 
L 216.725562 124.676734 
L 220.756535 123.659763 
L 224.787508 122.855044 
L 228.818482 122.303194 
L 232.849455 122.023021 
L 236.880428 122.010126 
L 240.911401 122.237584 
L 244.942374 122.65946 
L 250.988833 123.527574 
L 265.097239 125.682554 
L 273.159185 126.627919 
L 281.221131 127.361118 
L 287.267591 127.753797 
L 293.31405 127.897082 
L 297.345023 127.770079 
L 301.375996 127.406924 
L 305.406969 126.777247 
L 309.437942 125.881993 
L 313.468916 124.760625 
L 327.577321 120.405107 
L 331.608294 119.519977 
L 335.639267 118.979304 
L 339.67024 118.834648 
L 343.701213 119.097597 
L 347.732186 119.741277 
L 351.763159 120.705859 
L 355.794133 121.906258 
L 369.902538 126.445512 
L 373.933511 127.408701 
L 377.964484 128.071425 
L 381.995457 128.389673 
L 386.02643 128.350375 
L 390.057403 127.97214 
L 394.088376 127.303102 
L 398.11935 126.416432 
L 412.227755 123.036295 
L 416.258728 122.460908 
L 418.274215 122.315102 
L 420.289701 122.286507 
L 422.305188 122.393471 
L 424.320674 122.655814 
L 426.336161 123.095132 
L 428.351647 123.735053 
L 430.367134 124.601401 
L 432.38262 125.722226 
L 434.398107 127.127662 
L 436.413593 128.849566 
L 438.42908 130.920917 
L 440.444567 133.37497 
L 442.460053 136.244156 
L 444.47554 139.558766 
L 446.491026 143.34547 
L 448.506513 147.625719 
L 450.521999 152.414142 
L 452.537486 157.717011 
L 454.552972 163.530892 
L 456.568459 169.841572 
L 458.583945 176.623372 
L 462.614918 191.439278 
L 466.645891 207.547069 
L 468.661378 215.908937 
L 468.661378 215.908937 
" clip-path="url(#p80d4fa008b)" style="fill: none; stroke: #9b59b6; stroke-width: 1.5; stroke-linecap: round"/>
   </g>
   <g id="line2d_19">
    <path d="M 269.083041 330.88 
L 269.083041 68.64 
" clip-path="url(#p80d4fa008b)" style="fill: none; stroke-dasharray: 7.4,3.2; stroke-dashoffset: 0; stroke: #ff0000; stroke-width: 2"/>
   </g>
   <g id="line2d_20">
    <path d="M 268.120469 330.88 
L 268.120469 68.64 
" clip-path="url(#p80d4fa008b)" style="fill: none; stroke-dasharray: 7.4,3.2; stroke-dashoffset: 0; stroke: #ffa500; stroke-width: 2"/>
   </g>
   <g id="patch_43">
    <path d="M 47.525469 330.88 
L 47.525469 68.64 
" style="fill: none; stroke: #cccccc; stroke-width: 0.8; stroke-linejoin: miter; stroke-linecap: square"/>
   </g>
   <g id="patch_44">
    <path d="M 488.715469 330.88 
L 488.715469 68.64 
" style="fill: none; stroke: #cccccc; stroke-width: 0.8; stroke-linejoin: miter; stroke-linecap: square"/>
   </g>
   <g id="patch_45">
    <path d="M 47.525469 330.88 
L 488.715469 330.88 
" style="fill: none; stroke: #cccccc; stroke-width: 0.8; stroke-linejoin: miter; stroke-linecap: square"/>
   </g>
   <g id="patch_46">
    <path d="M 47.525469 68.64 
L 488.715469 68.64 
" style="fill: none; stroke: #cccccc; stroke-width: 0.8; stroke-linejoin: miter; stroke-linecap: square"/>
   </g>
   <g id="text_20">
    <!-- Distribution of Customer Tenure -->
    <g style="fill: #262626" transform="translate(160.91875 62.64) scale(0.14 -0.14)">
     <defs>
      <path id="Arial-BoldMT-44" d="M 463 4581 
L 2153 4581 
Q 2725 4581 3025 4494 
Q 3428 4375 3715 4072 
Q 4003 3769 4153 3330 
Q 4303 2891 4303 2247 
Q 4303 1681 4163 1272 
Q 3991 772 3672 463 
Q 3431 228 3022 97 
Q 2716 0 2203 0 
L 463 0 
L 463 4581 
z
M 1388 3806 
L 1388 772 
L 2078 772 
Q 2466 772 2638 816 
Q 2863 872 3011 1006 
Q 3159 1141 3253 1448 
Q 3347 1756 3347 2288 
Q 3347 2819 3253 3103 
Q 3159 3388 2990 3547 
Q 2822 3706 2563 3763 
Q 2369 3806 1803 3806 
L 1388 3806 
z
" transform="scale(0.015625)"/>
      <path id="Arial-BoldMT-69" d="M 459 3769 
L 459 4581 
L 1338 4581 
L 1338 3769 
L 459 3769 
z
M 459 0 
L 459 3319 
L 1338 3319 
L 1338 0 
L 459 0 
z
" transform="scale(0.015625)"/>
      <path id="Arial-BoldMT-73" d="M 150 947 
L 1031 1081 
Q 1088 825 1259 692 
Q 1431 559 1741 559 
Q 2081 559 2253 684 
Q 2369 772 2369 919 
Q 2369 1019 2306 1084 
Q 2241 1147 2013 1200 
Q 950 1434 666 1628 
Q 272 1897 272 2375 
Q 272 2806 612 3100 
Q 953 3394 1669 3394 
Q 2350 3394 2681 3172 
Q 3013 2950 3138 2516 
L 2309 2363 
Q 2256 2556 2107 2659 
Q 1959 2763 1684 2763 
Q 1338 2763 1188 2666 
Q 1088 2597 1088 2488 
Q 1088 2394 1175 2328 
Q 1294 2241 1995 2081 
Q 2697 1922 2975 1691 
Q 3250 1456 3250 1038 
Q 3250 581 2869 253 
Q 2488 -75 1741 -75 
Q 1063 -75 667 200 
Q 272 475 150 947 
z
" transform="scale(0.015625)"/>
      <path id="Arial-BoldMT-74" d="M 1981 3319 
L 1981 2619 
L 1381 2619 
L 1381 1281 
Q 1381 875 1398 808 
Q 1416 741 1477 697 
Q 1538 653 1625 653 
Q 1747 653 1978 738 
L 2053 56 
Q 1747 -75 1359 -75 
Q 1122 -75 931 4 
Q 741 84 652 211 
Q 563 338 528 553 
Q 500 706 500 1172 
L 500 2619 
L 97 2619 
L 97 3319 
L 500 3319 
L 500 3978 
L 1381 4491 
L 1381 3319 
L 1981 3319 
z
" transform="scale(0.015625)"/>
      <path id="Arial-BoldMT-72" d="M 1300 0 
L 422 0 
L 422 3319 
L 1238 3319 
L 1238 2847 
Q 1447 3181 1614 3287 
Q 1781 3394 1994 3394 
Q 2294 3394 2572 3228 
L 2300 2463 
Q 2078 2606 1888 2606 
Q 1703 2606 1575 2504 
Q 1447 2403 1373 2137 
Q 1300 1872 1300 1025 
L 1300 0 
z
" transform="scale(0.015625)"/>
      <path id="Arial-BoldMT-62" d="M 422 0 
L 422 4581 
L 1300 4581 
L 1300 2931 
Q 1706 3394 2263 3394 
Q 2869 3394 3266 2955 
Q 3663 2516 3663 1694 
Q 3663 844 3258 384 
Q 2853 -75 2275 -75 
Q 1991 -75 1714 67 
Q 1438 209 1238 488 
L 1238 0 
L 422 0 
z
M 1294 1731 
Q 1294 1216 1456 969 
Q 1684 619 2063 619 
Q 2353 619 2558 867 
Q 2763 1116 2763 1650 
Q 2763 2219 2556 2470 
Q 2350 2722 2028 2722 
Q 1713 2722 1503 2476 
Q 1294 2231 1294 1731 
z
" transform="scale(0.015625)"/>
      <path id="Arial-BoldMT-75" d="M 2644 0 
L 2644 497 
Q 2463 231 2167 78 
Q 1872 -75 1544 -75 
Q 1209 -75 943 72 
Q 678 219 559 484 
Q 441 750 441 1219 
L 441 3319 
L 1319 3319 
L 1319 1794 
Q 1319 1094 1367 936 
Q 1416 778 1544 686 
Q 1672 594 1869 594 
Q 2094 594 2272 717 
Q 2450 841 2515 1023 
Q 2581 1206 2581 1919 
L 2581 3319 
L 3459 3319 
L 3459 0 
L 2644 0 
z
" transform="scale(0.015625)"/>
      <path id="Arial-BoldMT-6f" d="M 256 1706 
Q 256 2144 472 2553 
Q 688 2963 1083 3178 
Q 1478 3394 1966 3394 
Q 2719 3394 3200 2905 
Q 3681 2416 3681 1669 
Q 3681 916 3195 420 
Q 2709 -75 1972 -75 
Q 1516 -75 1102 131 
Q 688 338 472 736 
Q 256 1134 256 1706 
z
M 1156 1659 
Q 1156 1166 1390 903 
Q 1625 641 1969 641 
Q 2313 641 2545 903 
Q 2778 1166 2778 1666 
Q 2778 2153 2545 2415 
Q 2313 2678 1969 2678 
Q 1625 2678 1390 2415 
Q 1156 2153 1156 1659 
z
" transform="scale(0.015625)"/>
      <path id="Arial-BoldMT-6e" d="M 3478 0 
L 2600 0 
L 2600 1694 
Q 2600 2231 2544 2389 
Q 2488 2547 2361 2634 
Q 2234 2722 2056 2722 
Q 1828 2722 1647 2597 
Q 1466 2472 1398 2265 
Q 1331 2059 1331 1503 
L 1331 0 
L 453 0 
L 453 3319 
L 1269 3319 
L 1269 2831 
Q 1703 3394 2363 3394 
Q 2653 3394 2893 3289 
Q 3134 3184 3257 3021 
Q 3381 2859 3429 2653 
Q 3478 2447 3478 2063 
L 3478 0 
z
" transform="scale(0.015625)"/>
      <path id="Arial-BoldMT-20" transform="scale(0.015625)"/>
      <path id="Arial-BoldMT-66" d="M 75 3319 
L 563 3319 
L 563 3569 
Q 563 3988 652 4194 
Q 741 4400 980 4529 
Q 1219 4659 1584 4659 
Q 1959 4659 2319 4547 
L 2200 3934 
Q 1991 3984 1797 3984 
Q 1606 3984 1523 3895 
Q 1441 3806 1441 3553 
L 1441 3319 
L 2097 3319 
L 2097 2628 
L 1441 2628 
L 1441 0 
L 563 0 
L 563 2628 
L 75 2628 
L 75 3319 
z
" transform="scale(0.015625)"/>
      <path id="Arial-BoldMT-43" d="M 3397 1684 
L 4294 1400 
Q 4088 650 3608 286 
Q 3128 -78 2391 -78 
Q 1478 -78 890 545 
Q 303 1169 303 2250 
Q 303 3394 893 4026 
Q 1484 4659 2447 4659 
Q 3288 4659 3813 4163 
Q 4125 3869 4281 3319 
L 3366 3100 
Q 3284 3456 3026 3662 
Q 2769 3869 2400 3869 
Q 1891 3869 1573 3503 
Q 1256 3138 1256 2319 
Q 1256 1450 1568 1081 
Q 1881 713 2381 713 
Q 2750 713 3015 947 
Q 3281 1181 3397 1684 
z
" transform="scale(0.015625)"/>
      <path id="Arial-BoldMT-6d" d="M 394 3319 
L 1203 3319 
L 1203 2866 
Q 1638 3394 2238 3394 
Q 2556 3394 2790 3262 
Q 3025 3131 3175 2866 
Q 3394 3131 3647 3262 
Q 3900 3394 4188 3394 
Q 4553 3394 4806 3245 
Q 5059 3097 5184 2809 
Q 5275 2597 5275 2122 
L 5275 0 
L 4397 0 
L 4397 1897 
Q 4397 2391 4306 2534 
Q 4184 2722 3931 2722 
Q 3747 2722 3584 2609 
Q 3422 2497 3350 2280 
Q 3278 2063 3278 1594 
L 3278 0 
L 2400 0 
L 2400 1819 
Q 2400 2303 2353 2443 
Q 2306 2584 2207 2653 
Q 2109 2722 1941 2722 
Q 1738 2722 1575 2612 
Q 1413 2503 1342 2297 
Q 1272 2091 1272 1613 
L 1272 0 
L 394 0 
L 394 3319 
z
" transform="scale(0.015625)"/>
      <path id="Arial-BoldMT-65" d="M 2381 1056 
L 3256 909 
Q 3088 428 2723 176 
Q 2359 -75 1813 -75 
Q 947 -75 531 491 
Q 203 944 203 1634 
Q 203 2459 634 2926 
Q 1066 3394 1725 3394 
Q 2466 3394 2894 2905 
Q 3322 2416 3303 1406 
L 1103 1406 
Q 1113 1016 1316 798 
Q 1519 581 1822 581 
Q 2028 581 2168 693 
Q 2309 806 2381 1056 
z
M 2431 1944 
Q 2422 2325 2234 2523 
Q 2047 2722 1778 2722 
Q 1491 2722 1303 2513 
Q 1116 2303 1119 1944 
L 2431 1944 
z
" transform="scale(0.015625)"/>
      <path id="Arial-BoldMT-54" d="M 1497 0 
L 1497 3806 
L 138 3806 
L 138 4581 
L 3778 4581 
L 3778 3806 
L 2422 3806 
L 2422 0 
L 1497 0 
z
" transform="scale(0.015625)"/>
     </defs>
     <use xlink:href="#Arial-BoldMT-44"/>
     <use xlink:href="#Arial-BoldMT-69" transform="translate(72.216797 0)"/>
     <use xlink:href="#Arial-BoldMT-73" transform="translate(100 0)"/>
     <use xlink:href="#Arial-BoldMT-74" transform="translate(155.615234 0)"/>
     <use xlink:href="#Arial-BoldMT-72" transform="translate(188.916016 0)"/>
     <use xlink:href="#Arial-BoldMT-69" transform="translate(227.832031 0)"/>
     <use xlink:href="#Arial-BoldMT-62" transform="translate(255.615234 0)"/>
     <use xlink:href="#Arial-BoldMT-75" transform="translate(316.699219 0)"/>
     <use xlink:href="#Arial-BoldMT-74" transform="translate(377.783203 0)"/>
     <use xlink:href="#Arial-BoldMT-69" transform="translate(411.083984 0)"/>
     <use xlink:href="#Arial-BoldMT-6f" transform="translate(438.867188 0)"/>
     <use xlink:href="#Arial-BoldMT-6e" transform="translate(499.951172 0)"/>
     <use xlink:href="#Arial-BoldMT-20" transform="translate(561.035156 0)"/>
     <use xlink:href="#Arial-BoldMT-6f" transform="translate(588.818359 0)"/>
     <use xlink:href="#Arial-BoldMT-66" transform="translate(649.902344 0)"/>
     <use xlink:href="#Arial-BoldMT-20" transform="translate(683.203125 0)"/>
     <use xlink:href="#Arial-BoldMT-43" transform="translate(710.986328 0)"/>
     <use xlink:href="#Arial-BoldMT-75" transform="translate(783.203125 0)"/>
     <use xlink:href="#Arial-BoldMT-73" transform="translate(844.287109 0)"/>
     <use xlink:href="#Arial-BoldMT-74" transform="translate(899.902344 0)"/>
     <use xlink:href="#Arial-BoldMT-6f" transform="translate(933.203125 0)"/>
     <use xlink:href="#Arial-BoldMT-6d" transform="translate(994.287109 0)"/>
     <use xlink:href="#Arial-BoldMT-65" transform="translate(1083.203125 0)"/>
     <use xlink:href="#Arial-BoldMT-72" transform="translate(1138.818359 0)"/>
     <use xlink:href="#Arial-BoldMT-20" transform="translate(1177.734375 0)"/>
     <use xlink:href="#Arial-BoldMT-54" transform="translate(1205.517578 0)"/>
     <use xlink:href="#Arial-BoldMT-65" transform="translate(1259.226562 0)"/>
     <use xlink:href="#Arial-BoldMT-6e" transform="translate(1314.841797 0)"/>
     <use xlink:href="#Arial-BoldMT-75" transform="translate(1375.925781 0)"/>
     <use xlink:href="#Arial-BoldMT-72" transform="translate(1437.009766 0)"/>
     <use xlink:href="#Arial-BoldMT-65" transform="translate(1475.925781 0)"/>
    </g>
   </g>
   <g id="legend_1">
    <g id="patch_47">
     <path d="M 351.657187 108.559687 
L 481.015469 108.559687 
Q 483.215469 108.559687 483.215469 106.359687 
L 483.215469 76.34 
Q 483.215469 74.14 481.015469 74.14 
L 351.657187 74.14 
Q 349.457187 74.14 349.457187 76.34 
L 349.457187 106.359687 
Q 349.457187 108.559687 351.657187 108.559687 
z
" style="fill: #ffffff; opacity: 0.8; stroke: #cccccc; stroke-linejoin: miter"/>
    </g>
    <g id="line2d_21">
     <path d="M 353.857187 82.563594 
L 364.857187 82.563594 
L 375.857187 82.563594 
" style="fill: none; stroke-dasharray: 7.4,3.2; stroke-dashoffset: 0; stroke: #ff0000; stroke-width: 2"/>
    </g>
    <g id="text_21">
     <!-- Mean: 36.2 months -->
     <g style="fill: #262626" transform="translate(384.657187 86.413594) scale(0.11 -0.11)">
      <defs>
       <path id="ArialMT-61" d="M 2588 409 
Q 2275 144 1986 34 
Q 1697 -75 1366 -75 
Q 819 -75 525 192 
Q 231 459 231 875 
Q 231 1119 342 1320 
Q 453 1522 633 1644 
Q 813 1766 1038 1828 
Q 1203 1872 1538 1913 
Q 2219 1994 2541 2106 
Q 2544 2222 2544 2253 
Q 2544 2597 2384 2738 
Q 2169 2928 1744 2928 
Q 1347 2928 1158 2789 
Q 969 2650 878 2297 
L 328 2372 
Q 403 2725 575 2942 
Q 747 3159 1072 3276 
Q 1397 3394 1825 3394 
Q 2250 3394 2515 3294 
Q 2781 3194 2906 3042 
Q 3031 2891 3081 2659 
Q 3109 2516 3109 2141 
L 3109 1391 
Q 3109 606 3145 398 
Q 3181 191 3288 0 
L 2700 0 
Q 2613 175 2588 409 
z
M 2541 1666 
Q 2234 1541 1622 1453 
Q 1275 1403 1131 1340 
Q 988 1278 909 1158 
Q 831 1038 831 891 
Q 831 666 1001 516 
Q 1172 366 1500 366 
Q 1825 366 2078 508 
Q 2331 650 2450 897 
Q 2541 1088 2541 1459 
L 2541 1666 
z
" transform="scale(0.015625)"/>
       <path id="ArialMT-3a" d="M 578 2678 
L 578 3319 
L 1219 3319 
L 1219 2678 
L 578 2678 
z
M 578 0 
L 578 641 
L 1219 641 
L 1219 0 
L 578 0 
z
" transform="scale(0.015625)"/>
       <path id="ArialMT-2e" d="M 581 0 
L 581 641 
L 1222 641 
L 1222 0 
L 581 0 
z
" transform="scale(0.015625)"/>
      </defs>
      <use xlink:href="#ArialMT-4d"/>
      <use xlink:href="#ArialMT-65" transform="translate(83.300781 0)"/>
      <use xlink:href="#ArialMT-61" transform="translate(138.916016 0)"/>
      <use xlink:href="#ArialMT-6e" transform="translate(194.53125 0)"/>
      <use xlink:href="#ArialMT-3a" transform="translate(250.146484 0)"/>
      <use xlink:href="#ArialMT-20" transform="translate(277.929688 0)"/>
      <use xlink:href="#ArialMT-33" transform="translate(305.712891 0)"/>
      <use xlink:href="#ArialMT-36" transform="translate(361.328125 0)"/>
      <use xlink:href="#ArialMT-2e" transform="translate(416.943359 0)"/>
      <use xlink:href="#ArialMT-32" transform="translate(444.726562 0)"/>
      <use xlink:href="#ArialMT-20" transform="translate(500.341797 0)"/>
      <use xlink:href="#ArialMT-6d" transform="translate(528.125 0)"/>
      <use xlink:href="#ArialMT-6f" transform="translate(611.425781 0)"/>
      <use xlink:href="#ArialMT-6e" transform="translate(667.041016 0)"/>
      <use xlink:href="#ArialMT-74" transform="translate(722.65625 0)"/>
      <use xlink:href="#ArialMT-68" transform="translate(750.439453 0)"/>
      <use xlink:href="#ArialMT-73" transform="translate(806.054688 0)"/>
     </g>
    </g>
    <g id="line2d_22">
     <path d="M 353.857187 98.123437 
L 364.857187 98.123437 
L 375.857187 98.123437 
" style="fill: none; stroke-dasharray: 7.4,3.2; stroke-dashoffset: 0; stroke: #ffa500; stroke-width: 2"/>
    </g>
    <g id="text_22">
     <!-- Median: 36 months -->
     <g style="fill: #262626" transform="translate(384.657187 101.973437) scale(0.11 -0.11)">
      <defs>
       <path id="ArialMT-64" d="M 2575 0 
L 2575 419 
Q 2259 -75 1647 -75 
Q 1250 -75 917 144 
Q 584 363 401 755 
Q 219 1147 219 1656 
Q 219 2153 384 2558 
Q 550 2963 881 3178 
Q 1213 3394 1622 3394 
Q 1922 3394 2156 3267 
Q 2391 3141 2538 2938 
L 2538 4581 
L 3097 4581 
L 3097 0 
L 2575 0 
z
M 797 1656 
Q 797 1019 1065 703 
Q 1334 388 1700 388 
Q 2069 388 2326 689 
Q 2584 991 2584 1609 
Q 2584 2291 2321 2609 
Q 2059 2928 1675 2928 
Q 1300 2928 1048 2622 
Q 797 2316 797 1656 
z
" transform="scale(0.015625)"/>
       <path id="ArialMT-69" d="M 425 3934 
L 425 4581 
L 988 4581 
L 988 3934 
L 425 3934 
z
M 425 0 
L 425 3319 
L 988 3319 
L 988 0 
L 425 0 
z
" transform="scale(0.015625)"/>
      </defs>
      <use xlink:href="#ArialMT-4d"/>
      <use xlink:href="#ArialMT-65" transform="translate(83.300781 0)"/>
      <use xlink:href="#ArialMT-64" transform="translate(138.916016 0)"/>
      <use xlink:href="#ArialMT-69" transform="translate(194.53125 0)"/>
      <use xlink:href="#ArialMT-61" transform="translate(216.748047 0)"/>
      <use xlink:href="#ArialMT-6e" transform="translate(272.363281 0)"/>
      <use xlink:href="#ArialMT-3a" transform="translate(327.978516 0)"/>
      <use xlink:href="#ArialMT-20" transform="translate(355.761719 0)"/>
      <use xlink:href="#ArialMT-33" transform="translate(383.544922 0)"/>
      <use xlink:href="#ArialMT-36" transform="translate(439.160156 0)"/>
      <use xlink:href="#ArialMT-20" transform="translate(494.775391 0)"/>
      <use xlink:href="#ArialMT-6d" transform="translate(522.558594 0)"/>
      <use xlink:href="#ArialMT-6f" transform="translate(605.859375 0)"/>
      <use xlink:href="#ArialMT-6e" transform="translate(661.474609 0)"/>
      <use xlink:href="#ArialMT-74" transform="translate(717.089844 0)"/>
      <use xlink:href="#ArialMT-68" transform="translate(744.873047 0)"/>
      <use xlink:href="#ArialMT-73" transform="translate(800.488281 0)"/>
     </g>
    </g>
   </g>
  </g>
  <g id="axes_2">
   <g id="patch_48">
    <path d="M 550.175469 330.88 
L 991.365469 330.88 
L 991.365469 68.64 
L 550.175469 68.64 
z
" style="fill: #ffffff"/>
   </g>
   <g id="matplotlib.axis_3">
    <g id="xtick_9">
     <g id="line2d_23">
      <path d="M 625.283006 330.88 
L 625.283006 68.64 
" clip-path="url(#p3a45ee8120)" style="fill: none; stroke: #cccccc; stroke-width: 0.8; stroke-linecap: round"/>
     </g>
     <g id="text_23">
      <!-- 0 -->
      <g style="fill: #262626" transform="translate(622.22449 345.753594) scale(0.11 -0.11)">
       <use xlink:href="#ArialMT-30"/>
      </g>
     </g>
    </g>
    <g id="xtick_10">
     <g id="line2d_24">
      <path d="M 706.109374 330.88 
L 706.109374 68.64 
" clip-path="url(#p3a45ee8120)" style="fill: none; stroke: #cccccc; stroke-width: 0.8; stroke-linecap: round"/>
     </g>
     <g id="text_24">
      <!-- 20 -->
      <g style="fill: #262626" transform="translate(699.992343 345.753594) scale(0.11 -0.11)">
       <use xlink:href="#ArialMT-32"/>
       <use xlink:href="#ArialMT-30" transform="translate(55.615234 0)"/>
      </g>
     </g>
    </g>
    <g id="xtick_11">
     <g id="line2d_25">
      <path d="M 786.935742 330.88 
L 786.935742 68.64 
" clip-path="url(#p3a45ee8120)" style="fill: none; stroke: #cccccc; stroke-width: 0.8; stroke-linecap: round"/>
     </g>
     <g id="text_25">
      <!-- 40 -->
      <g style="fill: #262626" transform="translate(780.818711 345.753594) scale(0.11 -0.11)">
       <use xlink:href="#ArialMT-34"/>
       <use xlink:href="#ArialMT-30" transform="translate(55.615234 0)"/>
      </g>
     </g>
    </g>
    <g id="xtick_12">
     <g id="line2d_26">
      <path d="M 867.762111 330.88 
L 867.762111 68.64 
" clip-path="url(#p3a45ee8120)" style="fill: none; stroke: #cccccc; stroke-width: 0.8; stroke-linecap: round"/>
     </g>
     <g id="text_26">
      <!-- 60 -->
      <g style="fill: #262626" transform="translate(861.645079 345.753594) scale(0.11 -0.11)">
       <use xlink:href="#ArialMT-36"/>
       <use xlink:href="#ArialMT-30" transform="translate(55.615234 0)"/>
      </g>
     </g>
    </g>
    <g id="xtick_13">
     <g id="line2d_27">
      <path d="M 948.588479 330.88 
L 948.588479 68.64 
" clip-path="url(#p3a45ee8120)" style="fill: none; stroke: #cccccc; stroke-width: 0.8; stroke-linecap: round"/>
     </g>
     <g id="text_27">
      <!-- 80 -->
      <g style="fill: #262626" transform="translate(942.471448 345.753594) scale(0.11 -0.11)">
       <defs>
        <path id="ArialMT-38" d="M 1131 2484 
Q 781 2613 612 2850 
Q 444 3088 444 3419 
Q 444 3919 803 4259 
Q 1163 4600 1759 4600 
Q 2359 4600 2725 4251 
Q 3091 3903 3091 3403 
Q 3091 3084 2923 2848 
Q 2756 2613 2416 2484 
Q 2838 2347 3058 2040 
Q 3278 1734 3278 1309 
Q 3278 722 2862 322 
Q 2447 -78 1769 -78 
Q 1091 -78 675 323 
Q 259 725 259 1325 
Q 259 1772 486 2073 
Q 713 2375 1131 2484 
z
M 1019 3438 
Q 1019 3113 1228 2906 
Q 1438 2700 1772 2700 
Q 2097 2700 2305 2904 
Q 2513 3109 2513 3406 
Q 2513 3716 2298 3927 
Q 2084 4138 1766 4138 
Q 1444 4138 1231 3931 
Q 1019 3725 1019 3438 
z
M 838 1322 
Q 838 1081 952 856 
Q 1066 631 1291 507 
Q 1516 384 1775 384 
Q 2178 384 2440 643 
Q 2703 903 2703 1303 
Q 2703 1709 2433 1975 
Q 2163 2241 1756 2241 
Q 1359 2241 1098 1978 
Q 838 1716 838 1322 
z
" transform="scale(0.015625)"/>
       </defs>
       <use xlink:href="#ArialMT-38"/>
       <use xlink:href="#ArialMT-30" transform="translate(55.615234 0)"/>
      </g>
     </g>
    </g>
    <g id="text_28">
     <!-- Tenure (Months) -->
     <g style="fill: #262626" transform="translate(727.092344 360.675469) scale(0.12 -0.12)">
      <use xlink:href="#ArialMT-54"/>
      <use xlink:href="#ArialMT-65" transform="translate(49.958984 0)"/>
      <use xlink:href="#ArialMT-6e" transform="translate(105.574219 0)"/>
      <use xlink:href="#ArialMT-75" transform="translate(161.189453 0)"/>
      <use xlink:href="#ArialMT-72" transform="translate(216.804688 0)"/>
      <use xlink:href="#ArialMT-65" transform="translate(250.105469 0)"/>
      <use xlink:href="#ArialMT-20" transform="translate(305.720703 0)"/>
      <use xlink:href="#ArialMT-28" transform="translate(333.503906 0)"/>
      <use xlink:href="#ArialMT-4d" transform="translate(366.804688 0)"/>
      <use xlink:href="#ArialMT-6f" transform="translate(450.105469 0)"/>
      <use xlink:href="#ArialMT-6e" transform="translate(505.720703 0)"/>
      <use xlink:href="#ArialMT-74" transform="translate(561.335938 0)"/>
      <use xlink:href="#ArialMT-68" transform="translate(589.119141 0)"/>
      <use xlink:href="#ArialMT-73" transform="translate(644.734375 0)"/>
      <use xlink:href="#ArialMT-29" transform="translate(694.734375 0)"/>
     </g>
    </g>
   </g>
   <g id="matplotlib.axis_4">
    <g id="ytick_10">
     <g id="line2d_28">
      <path d="M 550.175469 330.88 
L 991.365469 330.88 
" clip-path="url(#p3a45ee8120)" style="fill: none; stroke: #cccccc; stroke-width: 0.8; stroke-linecap: round"/>
     </g>
     <g id="text_29">
      <!-- 0.000 -->
      <g style="fill: #262626" transform="translate(515.651406 334.816797) scale(0.11 -0.11)">
       <use xlink:href="#ArialMT-30"/>
       <use xlink:href="#ArialMT-2e" transform="translate(55.615234 0)"/>
       <use xlink:href="#ArialMT-30" transform="translate(83.398438 0)"/>
       <use xlink:href="#ArialMT-30" transform="translate(139.013672 0)"/>
       <use xlink:href="#ArialMT-30" transform="translate(194.628906 0)"/>
      </g>
     </g>
    </g>
    <g id="ytick_11">
     <g id="line2d_29">
      <path d="M 550.175469 300.398167 
L 991.365469 300.398167 
" clip-path="url(#p3a45ee8120)" style="fill: none; stroke: #cccccc; stroke-width: 0.8; stroke-linecap: round"/>
     </g>
     <g id="text_30">
      <!-- 0.002 -->
      <g style="fill: #262626" transform="translate(515.651406 304.334964) scale(0.11 -0.11)">
       <use xlink:href="#ArialMT-30"/>
       <use xlink:href="#ArialMT-2e" transform="translate(55.615234 0)"/>
       <use xlink:href="#ArialMT-30" transform="translate(83.398438 0)"/>
       <use xlink:href="#ArialMT-30" transform="translate(139.013672 0)"/>
       <use xlink:href="#ArialMT-32" transform="translate(194.628906 0)"/>
      </g>
     </g>
    </g>
    <g id="ytick_12">
     <g id="line2d_30">
      <path d="M 550.175469 269.916335 
L 991.365469 269.916335 
" clip-path="url(#p3a45ee8120)" style="fill: none; stroke: #cccccc; stroke-width: 0.8; stroke-linecap: round"/>
     </g>
     <g id="text_31">
      <!-- 0.004 -->
      <g style="fill: #262626" transform="translate(515.651406 273.853132) scale(0.11 -0.11)">
       <use xlink:href="#ArialMT-30"/>
       <use xlink:href="#ArialMT-2e" transform="translate(55.615234 0)"/>
       <use xlink:href="#ArialMT-30" transform="translate(83.398438 0)"/>
       <use xlink:href="#ArialMT-30" transform="translate(139.013672 0)"/>
       <use xlink:href="#ArialMT-34" transform="translate(194.628906 0)"/>
      </g>
     </g>
    </g>
    <g id="ytick_13">
     <g id="line2d_31">
      <path d="M 550.175469 239.434502 
L 991.365469 239.434502 
" clip-path="url(#p3a45ee8120)" style="fill: none; stroke: #cccccc; stroke-width: 0.8; stroke-linecap: round"/>
     </g>
     <g id="text_32">
      <!-- 0.006 -->
      <g style="fill: #262626" transform="translate(515.651406 243.371299) scale(0.11 -0.11)">
       <use xlink:href="#ArialMT-30"/>
       <use xlink:href="#ArialMT-2e" transform="translate(55.615234 0)"/>
       <use xlink:href="#ArialMT-30" transform="translate(83.398438 0)"/>
       <use xlink:href="#ArialMT-30" transform="translate(139.013672 0)"/>
       <use xlink:href="#ArialMT-36" transform="translate(194.628906 0)"/>
      </g>
     </g>
    </g>
    <g id="ytick_14">
     <g id="line2d_32">
      <path d="M 550.175469 208.95267 
L 991.365469 208.95267 
" clip-path="url(#p3a45ee8120)" style="fill: none; stroke: #cccccc; stroke-width: 0.8; stroke-linecap: round"/>
     </g>
     <g id="text_33">
      <!-- 0.008 -->
      <g style="fill: #262626" transform="translate(515.651406 212.889466) scale(0.11 -0.11)">
       <use xlink:href="#ArialMT-30"/>
       <use xlink:href="#ArialMT-2e" transform="translate(55.615234 0)"/>
       <use xlink:href="#ArialMT-30" transform="translate(83.398438 0)"/>
       <use xlink:href="#ArialMT-30" transform="translate(139.013672 0)"/>
       <use xlink:href="#ArialMT-38" transform="translate(194.628906 0)"/>
      </g>
     </g>
    </g>
    <g id="ytick_15">
     <g id="line2d_33">
      <path d="M 550.175469 178.470837 
L 991.365469 178.470837 
" clip-path="url(#p3a45ee8120)" style="fill: none; stroke: #cccccc; stroke-width: 0.8; stroke-linecap: round"/>
     </g>
     <g id="text_34">
      <!-- 0.010 -->
      <g style="fill: #262626" transform="translate(515.651406 182.407634) scale(0.11 -0.11)">
       <use xlink:href="#ArialMT-30"/>
       <use xlink:href="#ArialMT-2e" transform="translate(55.615234 0)"/>
       <use xlink:href="#ArialMT-30" transform="translate(83.398438 0)"/>
       <use xlink:href="#ArialMT-31" transform="translate(139.013672 0)"/>
       <use xlink:href="#ArialMT-30" transform="translate(194.628906 0)"/>
      </g>
     </g>
    </g>
    <g id="ytick_16">
     <g id="line2d_34">
      <path d="M 550.175469 147.989004 
L 991.365469 147.989004 
" clip-path="url(#p3a45ee8120)" style="fill: none; stroke: #cccccc; stroke-width: 0.8; stroke-linecap: round"/>
     </g>
     <g id="text_35">
      <!-- 0.012 -->
      <g style="fill: #262626" transform="translate(515.651406 151.925801) scale(0.11 -0.11)">
       <use xlink:href="#ArialMT-30"/>
       <use xlink:href="#ArialMT-2e" transform="translate(55.615234 0)"/>
       <use xlink:href="#ArialMT-30" transform="translate(83.398438 0)"/>
       <use xlink:href="#ArialMT-31" transform="translate(139.013672 0)"/>
       <use xlink:href="#ArialMT-32" transform="translate(194.628906 0)"/>
      </g>
     </g>
    </g>
    <g id="ytick_17">
     <g id="line2d_35">
      <path d="M 550.175469 117.507172 
L 991.365469 117.507172 
" clip-path="url(#p3a45ee8120)" style="fill: none; stroke: #cccccc; stroke-width: 0.8; stroke-linecap: round"/>
     </g>
     <g id="text_36">
      <!-- 0.014 -->
      <g style="fill: #262626" transform="translate(515.651406 121.443969) scale(0.11 -0.11)">
       <use xlink:href="#ArialMT-30"/>
       <use xlink:href="#ArialMT-2e" transform="translate(55.615234 0)"/>
       <use xlink:href="#ArialMT-30" transform="translate(83.398438 0)"/>
       <use xlink:href="#ArialMT-31" transform="translate(139.013672 0)"/>
       <use xlink:href="#ArialMT-34" transform="translate(194.628906 0)"/>
      </g>
     </g>
    </g>
    <g id="ytick_18">
     <g id="line2d_36">
      <path d="M 550.175469 87.025339 
L 991.365469 87.025339 
" clip-path="url(#p3a45ee8120)" style="fill: none; stroke: #cccccc; stroke-width: 0.8; stroke-linecap: round"/>
     </g>
     <g id="text_37">
      <!-- 0.016 -->
      <g style="fill: #262626" transform="translate(515.651406 90.962136) scale(0.11 -0.11)">
       <use xlink:href="#ArialMT-30"/>
       <use xlink:href="#ArialMT-2e" transform="translate(55.615234 0)"/>
       <use xlink:href="#ArialMT-30" transform="translate(83.398438 0)"/>
       <use xlink:href="#ArialMT-31" transform="translate(139.013672 0)"/>
       <use xlink:href="#ArialMT-36" transform="translate(194.628906 0)"/>
      </g>
     </g>
    </g>
    <g id="text_38">
     <!-- Density -->
     <g style="fill: #262626" transform="translate(509.125781 219.76625) rotate(-90) scale(0.12 -0.12)">
      <defs>
       <path id="ArialMT-44" d="M 494 0 
L 494 4581 
L 2072 4581 
Q 2606 4581 2888 4516 
Q 3281 4425 3559 4188 
Q 3922 3881 4101 3404 
Q 4281 2928 4281 2316 
Q 4281 1794 4159 1391 
Q 4038 988 3847 723 
Q 3656 459 3429 307 
Q 3203 156 2883 78 
Q 2563 0 2147 0 
L 494 0 
z
M 1100 541 
L 2078 541 
Q 2531 541 2789 625 
Q 3047 709 3200 863 
Q 3416 1078 3536 1442 
Q 3656 1806 3656 2325 
Q 3656 3044 3420 3430 
Q 3184 3816 2847 3947 
Q 2603 4041 2063 4041 
L 1100 4041 
L 1100 541 
z
" transform="scale(0.015625)"/>
       <path id="ArialMT-79" d="M 397 -1278 
L 334 -750 
Q 519 -800 656 -800 
Q 844 -800 956 -737 
Q 1069 -675 1141 -563 
Q 1194 -478 1313 -144 
Q 1328 -97 1363 -6 
L 103 3319 
L 709 3319 
L 1400 1397 
Q 1534 1031 1641 628 
Q 1738 1016 1872 1384 
L 2581 3319 
L 3144 3319 
L 1881 -56 
Q 1678 -603 1566 -809 
Q 1416 -1088 1222 -1217 
Q 1028 -1347 759 -1347 
Q 597 -1347 397 -1278 
z
" transform="scale(0.015625)"/>
      </defs>
      <use xlink:href="#ArialMT-44"/>
      <use xlink:href="#ArialMT-65" transform="translate(72.216797 0)"/>
      <use xlink:href="#ArialMT-6e" transform="translate(127.832031 0)"/>
      <use xlink:href="#ArialMT-73" transform="translate(183.447266 0)"/>
      <use xlink:href="#ArialMT-69" transform="translate(233.447266 0)"/>
      <use xlink:href="#ArialMT-74" transform="translate(255.664062 0)"/>
      <use xlink:href="#ArialMT-79" transform="translate(283.447266 0)"/>
     </g>
    </g>
   </g>
   <g id="FillBetweenPolyCollection_1">
    <defs>
     <path id="m0fef687c88" d="M 579.051285 -39.901267 
L 579.051285 -39.521094 
L 580.978111 -39.521094 
L 582.904937 -39.521094 
L 584.831763 -39.521094 
L 586.758589 -39.521094 
L 588.685415 -39.521094 
L 590.612241 -39.521094 
L 592.539067 -39.521094 
L 594.465893 -39.521094 
L 596.392719 -39.521094 
L 598.319545 -39.521094 
L 600.246371 -39.521094 
L 602.173197 -39.521094 
L 604.100023 -39.521094 
L 606.026849 -39.521094 
L 607.953674 -39.521094 
L 609.8805 -39.521094 
L 611.807326 -39.521094 
L 613.734152 -39.521094 
L 615.660978 -39.521094 
L 617.587804 -39.521094 
L 619.51463 -39.521094 
L 621.441456 -39.521094 
L 623.368282 -39.521094 
L 625.295108 -39.521094 
L 627.221934 -39.521094 
L 629.14876 -39.521094 
L 631.075586 -39.521094 
L 633.002412 -39.521094 
L 634.929238 -39.521094 
L 636.856064 -39.521094 
L 638.78289 -39.521094 
L 640.709716 -39.521094 
L 642.636542 -39.521094 
L 644.563368 -39.521094 
L 646.490194 -39.521094 
L 648.41702 -39.521094 
L 650.343846 -39.521094 
L 652.270672 -39.521094 
L 654.197498 -39.521094 
L 656.124324 -39.521094 
L 658.05115 -39.521094 
L 659.977976 -39.521094 
L 661.904802 -39.521094 
L 663.831628 -39.521094 
L 665.758454 -39.521094 
L 667.685279 -39.521094 
L 669.612105 -39.521094 
L 671.538931 -39.521094 
L 673.465757 -39.521094 
L 675.392583 -39.521094 
L 677.319409 -39.521094 
L 679.246235 -39.521094 
L 681.173061 -39.521094 
L 683.099887 -39.521094 
L 685.026713 -39.521094 
L 686.953539 -39.521094 
L 688.880365 -39.521094 
L 690.807191 -39.521094 
L 692.734017 -39.521094 
L 694.660843 -39.521094 
L 696.587669 -39.521094 
L 698.514495 -39.521094 
L 700.441321 -39.521094 
L 702.368147 -39.521094 
L 704.294973 -39.521094 
L 706.221799 -39.521094 
L 708.148625 -39.521094 
L 710.075451 -39.521094 
L 712.002277 -39.521094 
L 713.929103 -39.521094 
L 715.855929 -39.521094 
L 717.782755 -39.521094 
L 719.709581 -39.521094 
L 721.636407 -39.521094 
L 723.563233 -39.521094 
L 725.490059 -39.521094 
L 727.416884 -39.521094 
L 729.34371 -39.521094 
L 731.270536 -39.521094 
L 733.197362 -39.521094 
L 735.124188 -39.521094 
L 737.051014 -39.521094 
L 738.97784 -39.521094 
L 740.904666 -39.521094 
L 742.831492 -39.521094 
L 744.758318 -39.521094 
L 746.685144 -39.521094 
L 748.61197 -39.521094 
L 750.538796 -39.521094 
L 752.465622 -39.521094 
L 754.392448 -39.521094 
L 756.319274 -39.521094 
L 758.2461 -39.521094 
L 760.172926 -39.521094 
L 762.099752 -39.521094 
L 764.026578 -39.521094 
L 765.953404 -39.521094 
L 767.88023 -39.521094 
L 769.807056 -39.521094 
L 771.733882 -39.521094 
L 773.660708 -39.521094 
L 775.587534 -39.521094 
L 777.51436 -39.521094 
L 779.441186 -39.521094 
L 781.368012 -39.521094 
L 783.294838 -39.521094 
L 785.221664 -39.521094 
L 787.148489 -39.521094 
L 789.075315 -39.521094 
L 791.002141 -39.521094 
L 792.928967 -39.521094 
L 794.855793 -39.521094 
L 796.782619 -39.521094 
L 798.709445 -39.521094 
L 800.636271 -39.521094 
L 802.563097 -39.521094 
L 804.489923 -39.521094 
L 806.416749 -39.521094 
L 808.343575 -39.521094 
L 810.270401 -39.521094 
L 812.197227 -39.521094 
L 814.124053 -39.521094 
L 816.050879 -39.521094 
L 817.977705 -39.521094 
L 819.904531 -39.521094 
L 821.831357 -39.521094 
L 823.758183 -39.521094 
L 825.685009 -39.521094 
L 827.611835 -39.521094 
L 829.538661 -39.521094 
L 831.465487 -39.521094 
L 833.392313 -39.521094 
L 835.319139 -39.521094 
L 837.245965 -39.521094 
L 839.172791 -39.521094 
L 841.099617 -39.521094 
L 843.026443 -39.521094 
L 844.953269 -39.521094 
L 846.880094 -39.521094 
L 848.80692 -39.521094 
L 850.733746 -39.521094 
L 852.660572 -39.521094 
L 854.587398 -39.521094 
L 856.514224 -39.521094 
L 858.44105 -39.521094 
L 860.367876 -39.521094 
L 862.294702 -39.521094 
L 864.221528 -39.521094 
L 866.148354 -39.521094 
L 868.07518 -39.521094 
L 870.002006 -39.521094 
L 871.928832 -39.521094 
L 873.855658 -39.521094 
L 875.782484 -39.521094 
L 877.70931 -39.521094 
L 879.636136 -39.521094 
L 881.562962 -39.521094 
L 883.489788 -39.521094 
L 885.416614 -39.521094 
L 887.34344 -39.521094 
L 889.270266 -39.521094 
L 891.197092 -39.521094 
L 893.123918 -39.521094 
L 895.050744 -39.521094 
L 896.97757 -39.521094 
L 898.904396 -39.521094 
L 900.831222 -39.521094 
L 902.758048 -39.521094 
L 904.684873 -39.521094 
L 906.611699 -39.521094 
L 908.538525 -39.521094 
L 910.465351 -39.521094 
L 912.392177 -39.521094 
L 914.319003 -39.521094 
L 916.245829 -39.521094 
L 918.172655 -39.521094 
L 920.099481 -39.521094 
L 922.026307 -39.521094 
L 923.953133 -39.521094 
L 925.879959 -39.521094 
L 927.806785 -39.521094 
L 929.733611 -39.521094 
L 931.660437 -39.521094 
L 933.587263 -39.521094 
L 935.514089 -39.521094 
L 937.440915 -39.521094 
L 939.367741 -39.521094 
L 941.294567 -39.521094 
L 943.221393 -39.521094 
L 945.148219 -39.521094 
L 947.075045 -39.521094 
L 949.001871 -39.521094 
L 950.928697 -39.521094 
L 952.855523 -39.521094 
L 954.782349 -39.521094 
L 956.709175 -39.521094 
L 958.636001 -39.521094 
L 960.562827 -39.521094 
L 962.489653 -39.521094 
L 962.489653 -39.974077 
L 962.489653 -39.974077 
L 960.562827 -40.191068 
L 958.636001 -40.497807 
L 956.709175 -40.924688 
L 954.782349 -41.50955 
L 952.855523 -42.298425 
L 950.928697 -43.345963 
L 949.001871 -44.715384 
L 947.075045 -46.477795 
L 945.148219 -48.710739 
L 943.221393 -51.495869 
L 941.294567 -54.915711 
L 939.367741 -59.04956 
L 937.440915 -63.968656 
L 935.514089 -69.730896 
L 933.587263 -76.375432 
L 931.660437 -83.917601 
L 929.733611 -92.344657 
L 927.806785 -101.612787 
L 925.879959 -111.645822 
L 923.953133 -122.335955 
L 922.026307 -133.546587 
L 920.099481 -145.117259 
L 918.172655 -156.870402 
L 916.245829 -168.619452 
L 914.319003 -180.177727 
L 912.392177 -191.367367 
L 910.465351 -202.027629 
L 908.538525 -212.021889 
L 906.611699 -221.242812 
L 904.684873 -229.615366 
L 902.758048 -237.097557 
L 900.831222 -243.678976 
L 898.904396 -249.37745 
L 896.97757 -254.234266 
L 895.050744 -258.308484 
L 893.123918 -261.670937 
L 891.197092 -264.39844 
L 889.270266 -266.568673 
L 887.34344 -268.256044 
L 885.416614 -269.528746 
L 883.489788 -270.447007 
L 881.562962 -271.062489 
L 879.636136 -271.418611 
L 877.70931 -271.551579 
L 875.782484 -271.491835 
L 873.855658 -271.265665 
L 871.928832 -270.896742 
L 870.002006 -270.407426 
L 868.07518 -269.819712 
L 866.148354 -269.155778 
L 864.221528 -268.43813 
L 862.294702 -267.689409 
L 860.367876 -266.931916 
L 858.44105 -266.18696 
L 856.514224 -265.474113 
L 854.587398 -264.810458 
L 852.660572 -264.2099 
L 850.733746 -263.682576 
L 848.80692 -263.234411 
L 846.880094 -262.866827 
L 844.953269 -262.576613 
L 843.026443 -262.355966 
L 841.099617 -262.192693 
L 839.172791 -262.0706 
L 837.245965 -261.97007 
L 835.319139 -261.868841 
L 833.392313 -261.742994 
L 831.465487 -261.568147 
L 829.538661 -261.320808 
L 827.611835 -260.97985 
L 825.685009 -260.527991 
L 823.758183 -259.953185 
L 821.831357 -259.249767 
L 819.904531 -258.419245 
L 817.977705 -257.470593 
L 816.050879 -256.419995 
L 814.124053 -255.289999 
L 812.197227 -254.108125 
L 810.270401 -252.905034 
L 808.343575 -251.71241 
L 806.416749 -250.560753 
L 804.489923 -249.477301 
L 802.563097 -248.484266 
L 800.636271 -247.597562 
L 798.709445 -246.826128 
L 796.782619 -246.171887 
L 794.855793 -245.630319 
L 792.928967 -245.191552 
L 791.002141 -244.841838 
L 789.075315 -244.565229 
L 787.148489 -244.345288 
L 785.221664 -244.16665 
L 783.294838 -244.016295 
L 781.368012 -243.884435 
L 779.441186 -243.764953 
L 777.51436 -243.655394 
L 775.587534 -243.556546 
L 773.660708 -243.471693 
L 771.733882 -243.405633 
L 769.807056 -243.363591 
L 767.88023 -243.350136 
L 765.953404 -243.368222 
L 764.026578 -243.418434 
L 762.099752 -243.49852 
L 760.172926 -243.603227 
L 758.2461 -243.72446 
L 756.319274 -243.851729 
L 754.392448 -243.972821 
L 752.465622 -244.074638 
L 750.538796 -244.144092 
L 748.61197 -244.168975 
L 746.685144 -244.138721 
L 744.758318 -244.044992 
L 742.831492 -243.882056 
L 740.904666 -243.646942 
L 738.97784 -243.339399 
L 737.051014 -242.961699 
L 735.124188 -242.518347 
L 733.197362 -242.015761 
L 731.270536 -241.46197 
L 729.34371 -240.866366 
L 727.416884 -240.239525 
L 725.490059 -239.593065 
L 723.563233 -238.939523 
L 721.636407 -238.292179 
L 719.709581 -237.6648 
L 717.782755 -237.071249 
L 715.855929 -236.524951 
L 713.929103 -236.038235 
L 712.002277 -235.621596 
L 710.075451 -235.282938 
L 708.148625 -235.02689 
L 706.221799 -234.854266 
L 704.294973 -234.761758 
L 702.368147 -234.741894 
L 700.441321 -234.783279 
L 698.514495 -234.871128 
L 696.587669 -234.988026 
L 694.660843 -235.11487 
L 692.734017 -235.23192 
L 690.807191 -235.319877 
L 688.880365 -235.360924 
L 686.953539 -235.339659 
L 685.026713 -235.24386 
L 683.099887 -235.065043 
L 681.173061 -234.798757 
L 679.246235 -234.444581 
L 677.319409 -234.005795 
L 675.392583 -233.488711 
L 673.465757 -232.901662 
L 671.538931 -232.253678 
L 669.612105 -231.552901 
L 667.685279 -230.804844 
L 665.758454 -230.010574 
L 663.831628 -229.164985 
L 661.904802 -228.255278 
L 659.977976 -227.259801 
L 658.05115 -226.147355 
L 656.124324 -224.877082 
L 654.197498 -223.398992 
L 652.270672 -221.655164 
L 650.343846 -219.581637 
L 648.41702 -217.11094 
L 646.490194 -214.175206 
L 644.563368 -210.709756 
L 642.636542 -206.657009 
L 640.709716 -201.970528 
L 638.78289 -196.618954 
L 636.856064 -190.589578 
L 634.929238 -183.891245 
L 633.002412 -176.5563 
L 631.075586 -168.641343 
L 629.14876 -160.226576 
L 627.221934 -151.413684 
L 625.295108 -142.322263 
L 623.368282 -133.084979 
L 621.441456 -123.841755 
L 619.51463 -114.733391 
L 617.587804 -105.895083 
L 615.660978 -97.450345 
L 613.734152 -89.50578 
L 611.807326 -82.147066 
L 609.8805 -75.436415 
L 607.953674 -69.411609 
L 606.026849 -64.086553 
L 604.100023 -59.453185 
L 602.173197 -55.484459 
L 600.246371 -52.138049 
L 598.319545 -49.360419 
L 596.392719 -47.090913 
L 594.465893 -45.265564 
L 592.539067 -43.820409 
L 590.612241 -42.694158 
L 588.685415 -41.830174 
L 586.758589 -41.177757 
L 584.831763 -40.692811 
L 582.904937 -40.337989 
L 580.978111 -40.082439 
L 579.051285 -39.901267 
z
" style="stroke: #2ecc71; stroke-width: 2"/>
    </defs>
    <g clip-path="url(#p3a45ee8120)">
     <use xlink:href="#m0fef687c88" x="0" y="370.401094" style="fill: #2ecc71; fill-opacity: 0.35; stroke: #2ecc71; stroke-width: 2"/>
    </g>
   </g>
   <g id="FillBetweenPolyCollection_2">
    <defs>
     <path id="mfabd93f37a" d="M 570.22956 -40.027949 
L 570.22956 -39.521094 
L 572.245046 -39.521094 
L 574.260533 -39.521094 
L 576.276019 -39.521094 
L 578.291506 -39.521094 
L 580.306992 -39.521094 
L 582.322479 -39.521094 
L 584.337965 -39.521094 
L 586.353452 -39.521094 
L 588.368938 -39.521094 
L 590.384425 -39.521094 
L 592.399911 -39.521094 
L 594.415398 -39.521094 
L 596.430884 -39.521094 
L 598.446371 -39.521094 
L 600.461858 -39.521094 
L 602.477344 -39.521094 
L 604.492831 -39.521094 
L 606.508317 -39.521094 
L 608.523804 -39.521094 
L 610.53929 -39.521094 
L 612.554777 -39.521094 
L 614.570263 -39.521094 
L 616.58575 -39.521094 
L 618.601236 -39.521094 
L 620.616723 -39.521094 
L 622.632209 -39.521094 
L 624.647696 -39.521094 
L 626.663182 -39.521094 
L 628.678669 -39.521094 
L 630.694155 -39.521094 
L 632.709642 -39.521094 
L 634.725128 -39.521094 
L 636.740615 -39.521094 
L 638.756101 -39.521094 
L 640.771588 -39.521094 
L 642.787075 -39.521094 
L 644.802561 -39.521094 
L 646.818048 -39.521094 
L 648.833534 -39.521094 
L 650.849021 -39.521094 
L 652.864507 -39.521094 
L 654.879994 -39.521094 
L 656.89548 -39.521094 
L 658.910967 -39.521094 
L 660.926453 -39.521094 
L 662.94194 -39.521094 
L 664.957426 -39.521094 
L 666.972913 -39.521094 
L 668.988399 -39.521094 
L 671.003886 -39.521094 
L 673.019372 -39.521094 
L 675.034859 -39.521094 
L 677.050345 -39.521094 
L 679.065832 -39.521094 
L 681.081318 -39.521094 
L 683.096805 -39.521094 
L 685.112292 -39.521094 
L 687.127778 -39.521094 
L 689.143265 -39.521094 
L 691.158751 -39.521094 
L 693.174238 -39.521094 
L 695.189724 -39.521094 
L 697.205211 -39.521094 
L 699.220697 -39.521094 
L 701.236184 -39.521094 
L 703.25167 -39.521094 
L 705.267157 -39.521094 
L 707.282643 -39.521094 
L 709.29813 -39.521094 
L 711.313616 -39.521094 
L 713.329103 -39.521094 
L 715.344589 -39.521094 
L 717.360076 -39.521094 
L 719.375562 -39.521094 
L 721.391049 -39.521094 
L 723.406535 -39.521094 
L 725.422022 -39.521094 
L 727.437508 -39.521094 
L 729.452995 -39.521094 
L 731.468482 -39.521094 
L 733.483968 -39.521094 
L 735.499455 -39.521094 
L 737.514941 -39.521094 
L 739.530428 -39.521094 
L 741.545914 -39.521094 
L 743.561401 -39.521094 
L 745.576887 -39.521094 
L 747.592374 -39.521094 
L 749.60786 -39.521094 
L 751.623347 -39.521094 
L 753.638833 -39.521094 
L 755.65432 -39.521094 
L 757.669806 -39.521094 
L 759.685293 -39.521094 
L 761.700779 -39.521094 
L 763.716266 -39.521094 
L 765.731752 -39.521094 
L 767.747239 -39.521094 
L 769.762725 -39.521094 
L 771.778212 -39.521094 
L 773.793699 -39.521094 
L 775.809185 -39.521094 
L 777.824672 -39.521094 
L 779.840158 -39.521094 
L 781.855645 -39.521094 
L 783.871131 -39.521094 
L 785.886618 -39.521094 
L 787.902104 -39.521094 
L 789.917591 -39.521094 
L 791.933077 -39.521094 
L 793.948564 -39.521094 
L 795.96405 -39.521094 
L 797.979537 -39.521094 
L 799.995023 -39.521094 
L 802.01051 -39.521094 
L 804.025996 -39.521094 
L 806.041483 -39.521094 
L 808.056969 -39.521094 
L 810.072456 -39.521094 
L 812.087942 -39.521094 
L 814.103429 -39.521094 
L 816.118916 -39.521094 
L 818.134402 -39.521094 
L 820.149889 -39.521094 
L 822.165375 -39.521094 
L 824.180862 -39.521094 
L 826.196348 -39.521094 
L 828.211835 -39.521094 
L 830.227321 -39.521094 
L 832.242808 -39.521094 
L 834.258294 -39.521094 
L 836.273781 -39.521094 
L 838.289267 -39.521094 
L 840.304754 -39.521094 
L 842.32024 -39.521094 
L 844.335727 -39.521094 
L 846.351213 -39.521094 
L 848.3667 -39.521094 
L 850.382186 -39.521094 
L 852.397673 -39.521094 
L 854.413159 -39.521094 
L 856.428646 -39.521094 
L 858.444133 -39.521094 
L 860.459619 -39.521094 
L 862.475106 -39.521094 
L 864.490592 -39.521094 
L 866.506079 -39.521094 
L 868.521565 -39.521094 
L 870.537052 -39.521094 
L 872.552538 -39.521094 
L 874.568025 -39.521094 
L 876.583511 -39.521094 
L 878.598998 -39.521094 
L 880.614484 -39.521094 
L 882.629971 -39.521094 
L 884.645457 -39.521094 
L 886.660944 -39.521094 
L 888.67643 -39.521094 
L 890.691917 -39.521094 
L 892.707403 -39.521094 
L 894.72289 -39.521094 
L 896.738376 -39.521094 
L 898.753863 -39.521094 
L 900.76935 -39.521094 
L 902.784836 -39.521094 
L 904.800323 -39.521094 
L 906.815809 -39.521094 
L 908.831296 -39.521094 
L 910.846782 -39.521094 
L 912.862269 -39.521094 
L 914.877755 -39.521094 
L 916.893242 -39.521094 
L 918.908728 -39.521094 
L 920.924215 -39.521094 
L 922.939701 -39.521094 
L 924.955188 -39.521094 
L 926.970674 -39.521094 
L 928.986161 -39.521094 
L 931.001647 -39.521094 
L 933.017134 -39.521094 
L 935.03262 -39.521094 
L 937.048107 -39.521094 
L 939.063593 -39.521094 
L 941.07908 -39.521094 
L 943.094567 -39.521094 
L 945.110053 -39.521094 
L 947.12554 -39.521094 
L 949.141026 -39.521094 
L 951.156513 -39.521094 
L 953.171999 -39.521094 
L 955.187486 -39.521094 
L 957.202972 -39.521094 
L 959.218459 -39.521094 
L 961.233945 -39.521094 
L 963.249432 -39.521094 
L 965.264918 -39.521094 
L 967.280405 -39.521094 
L 969.295891 -39.521094 
L 971.311378 -39.521094 
L 971.311378 -39.795574 
L 971.311378 -39.795574 
L 969.295891 -39.908174 
L 967.280405 -40.060932 
L 965.264918 -40.265695 
L 963.249432 -40.536894 
L 961.233945 -40.891805 
L 959.218459 -41.350743 
L 957.202972 -41.93715 
L 955.187486 -42.677548 
L 953.171999 -43.601313 
L 951.156513 -44.740255 
L 949.141026 -46.127958 
L 947.12554 -47.7989 
L 945.110053 -49.787334 
L 943.094567 -52.125976 
L 941.07908 -54.844519 
L 939.063593 -57.968073 
L 937.048107 -61.515574 
L 935.03262 -65.498283 
L 933.017134 -69.918461 
L 931.001647 -74.76831 
L 928.986161 -80.029287 
L 926.970674 -85.671827 
L 924.955188 -91.655544 
L 922.939701 -97.929908 
L 920.924215 -104.435372 
L 918.908728 -111.104914 
L 916.893242 -117.865911 
L 914.877755 -124.642245 
L 912.862269 -131.35654 
L 910.846782 -137.932426 
L 908.831296 -144.296722 
L 906.815809 -150.381456 
L 904.800323 -156.125647 
L 902.784836 -161.476809 
L 900.76935 -166.39214 
L 898.753863 -170.839389 
L 896.738376 -174.7974 
L 894.72289 -178.256357 
L 892.707403 -181.217723 
L 890.691917 -183.693918 
L 888.67643 -185.707733 
L 886.660944 -187.291518 
L 884.645457 -188.486146 
L 882.629971 -189.339785 
L 880.614484 -189.906498 
L 878.598998 -190.244705 
L 876.583511 -190.415549 
L 874.568025 -190.481197 
L 872.552538 -190.503141 
L 870.537052 -190.540545 
L 868.521565 -190.648685 
L 866.506079 -190.877545 
L 864.490592 -191.270603 
L 862.475106 -191.863845 
L 860.459619 -192.685052 
L 858.444133 -193.753349 
L 856.428646 -195.079051 
L 854.413159 -196.663788 
L 852.397673 -198.500899 
L 850.382186 -200.576069 
L 848.3667 -202.868184 
L 846.351213 -205.350352 
L 844.335727 -207.991048 
L 842.32024 -210.755332 
L 840.304754 -213.606087 
L 838.289267 -216.505227 
L 836.273781 -219.414828 
L 834.258294 -222.298152 
L 832.242808 -225.120546 
L 830.227321 -227.850184 
L 828.211835 -230.458688 
L 826.196348 -232.921602 
L 824.180862 -235.218764 
L 822.165375 -237.334583 
L 820.149889 -239.258229 
L 818.134402 -240.98376 
L 816.118916 -242.510169 
L 814.103429 -243.84136 
L 812.087942 -244.986007 
L 810.072456 -245.957309 
L 808.056969 -246.772592 
L 806.041483 -247.452765 
L 804.025996 -248.021614 
L 802.01051 -248.504968 
L 799.995023 -248.929743 
L 797.979537 -249.322926 
L 795.96405 -249.710548 
L 793.948564 -250.116701 
L 791.933077 -250.562669 
L 789.917591 -251.066205 
L 787.902104 -251.641009 
L 785.886618 -252.296412 
L 783.871131 -253.037273 
L 781.855645 -253.864074 
L 779.840158 -254.773179 
L 777.824672 -255.75722 
L 775.809185 -256.805571 
L 773.793699 -257.904868 
L 771.778212 -259.039537 
L 769.762725 -260.192316 
L 767.747239 -261.344744 
L 765.731752 -262.477633 
L 763.716266 -263.571504 
L 761.700779 -264.607023 
L 759.685293 -265.565443 
L 757.669806 -266.429055 
L 755.65432 -267.181685 
L 753.638833 -267.80921 
L 751.623347 -268.300117 
L 749.60786 -268.646074 
L 747.592374 -268.8425 
L 745.576887 -268.889097 
L 743.561401 -268.79031 
L 741.545914 -268.555676 
L 739.530428 -268.199998 
L 737.514941 -267.743333 
L 735.499455 -267.210719 
L 733.483968 -266.631652 
L 731.468482 -266.039268 
L 729.452995 -265.469262 
L 727.437508 -264.958555 
L 725.422022 -264.543771 
L 723.406535 -264.259586 
L 721.391049 -264.137047 
L 719.375562 -264.201962 
L 717.360076 -264.473463 
L 715.344589 -264.962859 
L 713.329103 -265.672877 
L 711.313616 -266.597341 
L 709.29813 -267.721368 
L 707.282643 -269.022061 
L 705.267157 -270.46969 
L 703.25167 -272.029276 
L 701.236184 -273.662494 
L 699.220697 -275.329747 
L 697.205211 -276.992272 
L 695.189724 -278.614116 
L 693.174238 -280.163837 
L 691.158751 -281.615791 
L 689.143265 -282.95092 
L 687.127778 -284.15696 
L 685.112292 -285.228069 
L 683.096805 -286.163898 
L 681.081318 -286.968183 
L 679.065832 -287.646954 
L 677.050345 -288.206517 
L 675.034859 -288.651346 
L 673.019372 -288.982044 
L 671.003886 -289.193516 
L 668.988399 -289.273475 
L 666.972913 -289.201388 
L 664.957426 -288.947917 
L 662.94194 -288.474893 
L 660.926453 -287.735837 
L 658.910967 -286.676991 
L 656.89548 -285.238841 
L 654.879994 -283.358055 
L 652.864507 -280.969791 
L 650.849021 -278.010283 
L 648.833534 -274.41963 
L 646.818048 -270.144703 
L 644.802561 -265.142041 
L 642.787075 -259.380642 
L 640.771588 -252.844509 
L 638.756101 -245.5348 
L 636.740615 -237.47146 
L 634.725128 -228.69418 
L 632.709642 -219.262576 
L 630.694155 -209.255498 
L 628.678669 -198.769441 
L 626.663182 -187.916061 
L 624.647696 -176.818885 
L 622.632209 -165.609363 
L 620.616723 -154.422445 
L 618.601236 -143.391928 
L 616.58575 -132.645846 
L 614.570263 -122.302156 
L 612.554777 -112.464967 
L 610.53929 -103.221536 
L 608.523804 -94.640149 
L 606.508317 -86.768999 
L 604.492831 -79.636046 
L 602.477344 -73.249807 
L 600.461858 -67.600961 
L 598.446371 -62.664592 
L 596.430884 -58.402882 
L 594.415398 -54.76805 
L 592.399911 -51.705348 
L 590.384425 -49.155923 
L 588.368938 -47.05943 
L 586.353452 -45.356265 
L 584.337965 -43.989387 
L 582.322479 -42.905681 
L 580.306992 -42.05689 
L 578.291506 -41.400145 
L 576.276019 -40.89815 
L 574.260533 -40.51909 
L 572.245046 -40.236325 
L 570.22956 -40.027949 
z
" style="stroke: #e74c3c; stroke-width: 2"/>
    </defs>
    <g clip-path="url(#p3a45ee8120)">
     <use xlink:href="#mfabd93f37a" x="0" y="370.401094" style="fill: #e74c3c; fill-opacity: 0.35; stroke: #e74c3c; stroke-width: 2"/>
    </g>
   </g>
   <g id="patch_49">
    <path d="M 550.175469 330.88 
L 550.175469 68.64 
" style="fill: none; stroke: #cccccc; stroke-width: 0.8; stroke-linejoin: miter; stroke-linecap: square"/>
   </g>
   <g id="patch_50">
    <path d="M 991.365469 330.88 
L 991.365469 68.64 
" style="fill: none; stroke: #cccccc; stroke-width: 0.8; stroke-linejoin: miter; stroke-linecap: square"/>
   </g>
   <g id="patch_51">
    <path d="M 550.175469 330.88 
L 991.365469 330.88 
" style="fill: none; stroke: #cccccc; stroke-width: 0.8; stroke-linejoin: miter; stroke-linecap: square"/>
   </g>
   <g id="patch_52">
    <path d="M 550.175469 68.64 
L 991.365469 68.64 
" style="fill: none; stroke: #cccccc; stroke-width: 0.8; stroke-linejoin: miter; stroke-linecap: square"/>
   </g>
   <g id="text_39">
    <!-- Tenure Distribution by Churn -->
    <g style="fill: #262626" transform="translate(674.072031 62.64) scale(0.14 -0.14)">
     <defs>
      <path id="Arial-BoldMT-79" d="M 44 3319 
L 978 3319 
L 1772 963 
L 2547 3319 
L 3456 3319 
L 2284 125 
L 2075 -453 
Q 1959 -744 1854 -897 
Q 1750 -1050 1614 -1145 
Q 1478 -1241 1279 -1294 
Q 1081 -1347 831 -1347 
Q 578 -1347 334 -1294 
L 256 -606 
Q 463 -647 628 -647 
Q 934 -647 1081 -467 
Q 1228 -288 1306 -9 
L 44 3319 
z
" transform="scale(0.015625)"/>
      <path id="Arial-BoldMT-68" d="M 1334 4581 
L 1334 2897 
Q 1759 3394 2350 3394 
Q 2653 3394 2897 3281 
Q 3141 3169 3264 2994 
Q 3388 2819 3433 2606 
Q 3478 2394 3478 1947 
L 3478 0 
L 2600 0 
L 2600 1753 
Q 2600 2275 2550 2415 
Q 2500 2556 2373 2639 
Q 2247 2722 2056 2722 
Q 1838 2722 1666 2615 
Q 1494 2509 1414 2295 
Q 1334 2081 1334 1663 
L 1334 0 
L 456 0 
L 456 4581 
L 1334 4581 
z
" transform="scale(0.015625)"/>
     </defs>
     <use xlink:href="#Arial-BoldMT-54"/>
     <use xlink:href="#Arial-BoldMT-65" transform="translate(53.708984 0)"/>
     <use xlink:href="#Arial-BoldMT-6e" transform="translate(109.324219 0)"/>
     <use xlink:href="#Arial-BoldMT-75" transform="translate(170.408203 0)"/>
     <use xlink:href="#Arial-BoldMT-72" transform="translate(231.492188 0)"/>
     <use xlink:href="#Arial-BoldMT-65" transform="translate(270.408203 0)"/>
     <use xlink:href="#Arial-BoldMT-20" transform="translate(326.023438 0)"/>
     <use xlink:href="#Arial-BoldMT-44" transform="translate(353.806641 0)"/>
     <use xlink:href="#Arial-BoldMT-69" transform="translate(426.023438 0)"/>
     <use xlink:href="#Arial-BoldMT-73" transform="translate(453.806641 0)"/>
     <use xlink:href="#Arial-BoldMT-74" transform="translate(509.421875 0)"/>
     <use xlink:href="#Arial-BoldMT-72" transform="translate(542.722656 0)"/>
     <use xlink:href="#Arial-BoldMT-69" transform="translate(581.638672 0)"/>
     <use xlink:href="#Arial-BoldMT-62" transform="translate(609.421875 0)"/>
     <use xlink:href="#Arial-BoldMT-75" transform="translate(670.505859 0)"/>
     <use xlink:href="#Arial-BoldMT-74" transform="translate(731.589844 0)"/>
     <use xlink:href="#Arial-BoldMT-69" transform="translate(764.890625 0)"/>
     <use xlink:href="#Arial-BoldMT-6f" transform="translate(792.673828 0)"/>
     <use xlink:href="#Arial-BoldMT-6e" transform="translate(853.757812 0)"/>
     <use xlink:href="#Arial-BoldMT-20" transform="translate(914.841797 0)"/>
     <use xlink:href="#Arial-BoldMT-62" transform="translate(942.625 0)"/>
     <use xlink:href="#Arial-BoldMT-79" transform="translate(1003.708984 0)"/>
     <use xlink:href="#Arial-BoldMT-20" transform="translate(1059.324219 0)"/>
     <use xlink:href="#Arial-BoldMT-43" transform="translate(1087.107422 0)"/>
     <use xlink:href="#Arial-BoldMT-68" transform="translate(1159.324219 0)"/>
     <use xlink:href="#Arial-BoldMT-75" transform="translate(1220.408203 0)"/>
     <use xlink:href="#Arial-BoldMT-72" transform="translate(1281.492188 0)"/>
     <use xlink:href="#Arial-BoldMT-6e" transform="translate(1320.408203 0)"/>
    </g>
   </g>
   <g id="legend_2">
    <g id="patch_53">
     <path d="M 700.780391 325.38 
L 840.760547 325.38 
Q 842.960547 325.38 842.960547 323.18 
L 842.960547 292.634375 
Q 842.960547 290.434375 840.760547 290.434375 
L 700.780391 290.434375 
Q 698.580391 290.434375 698.580391 292.634375 
L 698.580391 323.18 
Q 698.580391 325.38 700.780391 325.38 
z
" style="fill: #ffffff; opacity: 0.8; stroke: #cccccc; stroke-linejoin: miter"/>
    </g>
    <g id="patch_54">
     <path d="M 702.980391 302.842031 
L 724.980391 302.842031 
L 724.980391 295.142031 
L 702.980391 295.142031 
z
" style="fill: #2ecc71; fill-opacity: 0.35; stroke: #2ecc71; stroke-width: 2; stroke-linejoin: miter"/>
    </g>
    <g id="text_40">
     <!-- Churn=No (n=5,176) -->
     <g style="fill: #262626" transform="translate(733.780391 302.842031) scale(0.11 -0.11)">
      <defs>
       <path id="ArialMT-3d" d="M 3381 2694 
L 356 2694 
L 356 3219 
L 3381 3219 
L 3381 2694 
z
M 3381 1303 
L 356 1303 
L 356 1828 
L 3381 1828 
L 3381 1303 
z
" transform="scale(0.015625)"/>
       <path id="ArialMT-4e" d="M 488 0 
L 488 4581 
L 1109 4581 
L 3516 984 
L 3516 4581 
L 4097 4581 
L 4097 0 
L 3475 0 
L 1069 3600 
L 1069 0 
L 488 0 
z
" transform="scale(0.015625)"/>
       <path id="ArialMT-2c" d="M 569 0 
L 569 641 
L 1209 641 
L 1209 0 
Q 1209 -353 1084 -570 
Q 959 -788 688 -906 
L 531 -666 
Q 709 -588 793 -436 
Q 878 -284 888 0 
L 569 0 
z
" transform="scale(0.015625)"/>
      </defs>
      <use xlink:href="#ArialMT-43"/>
      <use xlink:href="#ArialMT-68" transform="translate(72.216797 0)"/>
      <use xlink:href="#ArialMT-75" transform="translate(127.832031 0)"/>
      <use xlink:href="#ArialMT-72" transform="translate(183.447266 0)"/>
      <use xlink:href="#ArialMT-6e" transform="translate(216.748047 0)"/>
      <use xlink:href="#ArialMT-3d" transform="translate(272.363281 0)"/>
      <use xlink:href="#ArialMT-4e" transform="translate(330.761719 0)"/>
      <use xlink:href="#ArialMT-6f" transform="translate(402.978516 0)"/>
      <use xlink:href="#ArialMT-20" transform="translate(458.59375 0)"/>
      <use xlink:href="#ArialMT-28" transform="translate(486.376953 0)"/>
      <use xlink:href="#ArialMT-6e" transform="translate(519.677734 0)"/>
      <use xlink:href="#ArialMT-3d" transform="translate(575.292969 0)"/>
      <use xlink:href="#ArialMT-35" transform="translate(633.691406 0)"/>
      <use xlink:href="#ArialMT-2c" transform="translate(689.306641 0)"/>
      <use xlink:href="#ArialMT-31" transform="translate(717.089844 0)"/>
      <use xlink:href="#ArialMT-37" transform="translate(772.705078 0)"/>
      <use xlink:href="#ArialMT-36" transform="translate(828.320312 0)"/>
      <use xlink:href="#ArialMT-29" transform="translate(883.935547 0)"/>
     </g>
    </g>
    <g id="patch_55">
     <path d="M 702.980391 318.664844 
L 724.980391 318.664844 
L 724.980391 310.964844 
L 702.980391 310.964844 
z
" style="fill: #e74c3c; fill-opacity: 0.35; stroke: #e74c3c; stroke-width: 2; stroke-linejoin: miter"/>
    </g>
    <g id="text_41">
     <!-- Churn=Yes (n=1,867) -->
     <g style="fill: #262626" transform="translate(733.780391 318.664844) scale(0.11 -0.11)">
      <defs>
       <path id="ArialMT-59" d="M 1784 0 
L 1784 1941 
L 19 4581 
L 756 4581 
L 1659 3200 
Q 1909 2813 2125 2425 
Q 2331 2784 2625 3234 
L 3513 4581 
L 4219 4581 
L 2391 1941 
L 2391 0 
L 1784 0 
z
" transform="scale(0.015625)"/>
      </defs>
      <use xlink:href="#ArialMT-43"/>
      <use xlink:href="#ArialMT-68" transform="translate(72.216797 0)"/>
      <use xlink:href="#ArialMT-75" transform="translate(127.832031 0)"/>
      <use xlink:href="#ArialMT-72" transform="translate(183.447266 0)"/>
      <use xlink:href="#ArialMT-6e" transform="translate(216.748047 0)"/>
      <use xlink:href="#ArialMT-3d" transform="translate(272.363281 0)"/>
      <use xlink:href="#ArialMT-59" transform="translate(330.761719 0)"/>
      <use xlink:href="#ArialMT-65" transform="translate(388.335938 0)"/>
      <use xlink:href="#ArialMT-73" transform="translate(443.951172 0)"/>
      <use xlink:href="#ArialMT-20" transform="translate(493.951172 0)"/>
      <use xlink:href="#ArialMT-28" transform="translate(521.734375 0)"/>
      <use xlink:href="#ArialMT-6e" transform="translate(555.035156 0)"/>
      <use xlink:href="#ArialMT-3d" transform="translate(610.650391 0)"/>
      <use xlink:href="#ArialMT-31" transform="translate(669.048828 0)"/>
      <use xlink:href="#ArialMT-2c" transform="translate(724.664062 0)"/>
      <use xlink:href="#ArialMT-38" transform="translate(752.447266 0)"/>
      <use xlink:href="#ArialMT-36" transform="translate(808.0625 0)"/>
      <use xlink:href="#ArialMT-37" transform="translate(863.677734 0)"/>
      <use xlink:href="#ArialMT-29" transform="translate(919.292969 0)"/>
     </g>
    </g>
   </g>
  </g>
  <g id="text_42">
   <!-- Customer Tenure Analysis -->
   <g style="fill: #262626" transform="translate(405.057187 18.119531) scale(0.15 -0.15)">
    <defs>
     <path id="Arial-BoldMT-41" d="M 4597 0 
L 3591 0 
L 3191 1041 
L 1359 1041 
L 981 0 
L 0 0 
L 1784 4581 
L 2763 4581 
L 4597 0 
z
M 2894 1813 
L 2263 3513 
L 1644 1813 
L 2894 1813 
z
" transform="scale(0.015625)"/>
     <path id="Arial-BoldMT-61" d="M 1116 2306 
L 319 2450 
Q 453 2931 781 3162 
Q 1109 3394 1756 3394 
Q 2344 3394 2631 3255 
Q 2919 3116 3036 2902 
Q 3153 2688 3153 2116 
L 3144 1091 
Q 3144 653 3186 445 
Q 3228 238 3344 0 
L 2475 0 
Q 2441 88 2391 259 
Q 2369 338 2359 363 
Q 2134 144 1878 34 
Q 1622 -75 1331 -75 
Q 819 -75 523 203 
Q 228 481 228 906 
Q 228 1188 362 1408 
Q 497 1628 739 1745 
Q 981 1863 1438 1950 
Q 2053 2066 2291 2166 
L 2291 2253 
Q 2291 2506 2166 2614 
Q 2041 2722 1694 2722 
Q 1459 2722 1328 2630 
Q 1197 2538 1116 2306 
z
M 2291 1594 
Q 2122 1538 1756 1459 
Q 1391 1381 1278 1306 
Q 1106 1184 1106 997 
Q 1106 813 1243 678 
Q 1381 544 1594 544 
Q 1831 544 2047 700 
Q 2206 819 2256 991 
Q 2291 1103 2291 1419 
L 2291 1594 
z
" transform="scale(0.015625)"/>
     <path id="Arial-BoldMT-6c" d="M 459 0 
L 459 4581 
L 1338 4581 
L 1338 0 
L 459 0 
z
" transform="scale(0.015625)"/>
    </defs>
    <use xlink:href="#Arial-BoldMT-43"/>
    <use xlink:href="#Arial-BoldMT-75" transform="translate(72.216797 0)"/>
    <use xlink:href="#Arial-BoldMT-73" transform="translate(133.300781 0)"/>
    <use xlink:href="#Arial-BoldMT-74" transform="translate(188.916016 0)"/>
    <use xlink:href="#Arial-BoldMT-6f" transform="translate(222.216797 0)"/>
    <use xlink:href="#Arial-BoldMT-6d" transform="translate(283.300781 0)"/>
    <use xlink:href="#Arial-BoldMT-65" transform="translate(372.216797 0)"/>
    <use xlink:href="#Arial-BoldMT-72" transform="translate(427.832031 0)"/>
    <use xlink:href="#Arial-BoldMT-20" transform="translate(466.748047 0)"/>
    <use xlink:href="#Arial-BoldMT-54" transform="translate(494.53125 0)"/>
    <use xlink:href="#Arial-BoldMT-65" transform="translate(548.240234 0)"/>
    <use xlink:href="#Arial-BoldMT-6e" transform="translate(603.855469 0)"/>
    <use xlink:href="#Arial-BoldMT-75" transform="translate(664.939453 0)"/>
    <use xlink:href="#Arial-BoldMT-72" transform="translate(726.023438 0)"/>
    <use xlink:href="#Arial-BoldMT-65" transform="translate(764.939453 0)"/>
    <use xlink:href="#Arial-BoldMT-20" transform="translate(820.554688 0)"/>
    <use xlink:href="#Arial-BoldMT-41" transform="translate(844.587891 0)"/>
    <use xlink:href="#Arial-BoldMT-6e" transform="translate(916.804688 0)"/>
    <use xlink:href="#Arial-BoldMT-61" transform="translate(977.888672 0)"/>
    <use xlink:href="#Arial-BoldMT-6c" transform="translate(1033.503906 0)"/>
    <use xlink:href="#Arial-BoldMT-79" transform="translate(1061.287109 0)"/>
    <use xlink:href="#Arial-BoldMT-73" transform="translate(1116.902344 0)"/>
    <use xlink:href="#Arial-BoldMT-69" transform="translate(1172.517578 0)"/>
    <use xlink:href="#Arial-BoldMT-73" transform="translate(1200.300781 0)"/>
   </g>
  </g>
 </g>
 <defs>
  <clipPath id="p80d4fa008b">
   <rect x="47.525469" y="68.64" width="441.19" height="262.24"/>
  </clipPath>
  <clipPath id="p3a45ee8120">
   <rect x="550.175469" y="68.64" width="441.19" height="262.24"/>
  </clipPath>
 </defs>
</svg>
