<?xml version="1.0" encoding="utf-8" standalone="no"?>
<!DOCTYPE svg PUBLIC "-//W3C//DTD SVG 1.1//EN"
  "http://www.w3.org/Graphics/SVG/1.1/DTD/svg11.dtd">
<svg xmlns:xlink="http://www.w3.org/1999/xlink" width="854.855312pt" height="370.114219pt" viewBox="0 0 854.855312 370.114219" xmlns="http://www.w3.org/2000/svg" version="1.1">
 <metadata>
  <rdf:RDF xmlns:dc="http://purl.org/dc/elements/1.1/" xmlns:cc="http://creativecommons.org/ns#" xmlns:rdf="http://www.w3.org/1999/02/22-rdf-syntax-ns#">
   <cc:Work>
    <dc:type rdf:resource="http://purl.org/dc/dcmitype/StillImage"/>
    <dc:date>2026-06-14T17:44:12.144199</dc:date>
    <dc:format>image/svg+xml</dc:format>
    <dc:creator>
     <cc:Agent>
      <dc:title>Matplotlib v3.10.8, https://matplotlib.org/</dc:title>
     </cc:Agent>
    </dc:creator>
   </cc:Work>
  </rdf:RDF>
 </metadata>
 <defs>
  <style type="text/css">*{stroke-linejoin: round; stroke-linecap: butt}</style>
 </defs>
 <g id="figure_1">
  <g id="patch_1">
   <path d="M 0 370.114219 
L 854.855312 370.114219 
L 854.855312 -0 
L 0 -0 
z
" style="fill: #ffffff"/>
  </g>
  <g id="axes_1">
   <g id="patch_2">
    <path d="M 41.695313 330.88 
L 421.595312 330.88 
L 421.595312 68.64 
L 41.695313 68.64 
z
" style="fill: #ffffff"/>
   </g>
   <g id="matplotlib.axis_1">
    <g id="xtick_1">
     <g id="text_1">
      <!-- No -->
      <g style="fill: #262626" transform="translate(129.639766 345.753594) scale(0.11 -0.11)">
       <defs>
        <path id="ArialMT-4e" d="M 488 0 
L 488 4581 
L 1109 4581 
L 3516 984 
L 3516 4581 
L 4097 4581 
L 4097 0 
L 3475 0 
L 1069 3600 
L 1069 0 
L 488 0 
z
" transform="scale(0.015625)"/>
        <path id="ArialMT-6f" d="M 213 1659 
Q 213 2581 725 3025 
Q 1153 3394 1769 3394 
Q 2453 3394 2887 2945 
Q 3322 2497 3322 1706 
Q 3322 1066 3130 698 
Q 2938 331 2570 128 
Q 2203 -75 1769 -75 
Q 1072 -75 642 372 
Q 213 819 213 1659 
z
M 791 1659 
Q 791 1022 1069 705 
Q 1347 388 1769 388 
Q 2188 388 2466 706 
Q 2744 1025 2744 1678 
Q 2744 2294 2464 2611 
Q 2184 2928 1769 2928 
Q 1347 2928 1069 2612 
Q 791 2297 791 1659 
z
" transform="scale(0.015625)"/>
       </defs>
       <use xlink:href="#ArialMT-4e"/>
       <use xlink:href="#ArialMT-6f" transform="translate(72.216797 0)"/>
      </g>
     </g>
    </g>
    <g id="xtick_2">
     <g id="text_2">
      <!-- Yes -->
      <g style="fill: #262626" transform="translate(317.645 345.753594) scale(0.11 -0.11)">
       <defs>
        <path id="ArialMT-59" d="M 1784 0 
L 1784 1941 
L 19 4581 
L 756 4581 
L 1659 3200 
Q 1909 2813 2125 2425 
Q 2331 2784 2625 3234 
L 3513 4581 
L 4219 4581 
L 2391 1941 
L 2391 0 
L 1784 0 
z
" transform="scale(0.015625)"/>
        <path id="ArialMT-65" d="M 2694 1069 
L 3275 997 
Q 3138 488 2766 206 
Q 2394 -75 1816 -75 
Q 1088 -75 661 373 
Q 234 822 234 1631 
Q 234 2469 665 2931 
Q 1097 3394 1784 3394 
Q 2450 3394 2872 2941 
Q 3294 2488 3294 1666 
Q 3294 1616 3291 1516 
L 816 1516 
Q 847 969 1125 678 
Q 1403 388 1819 388 
Q 2128 388 2347 550 
Q 2566 713 2694 1069 
z
M 847 1978 
L 2700 1978 
Q 2663 2397 2488 2606 
Q 2219 2931 1791 2931 
Q 1403 2931 1139 2672 
Q 875 2413 847 1978 
z
" transform="scale(0.015625)"/>
        <path id="ArialMT-73" d="M 197 991 
L 753 1078 
Q 800 744 1014 566 
Q 1228 388 1613 388 
Q 2000 388 2187 545 
Q 2375 703 2375 916 
Q 2375 1106 2209 1216 
Q 2094 1291 1634 1406 
Q 1016 1563 777 1677 
Q 538 1791 414 1992 
Q 291 2194 291 2438 
Q 291 2659 392 2848 
Q 494 3038 669 3163 
Q 800 3259 1026 3326 
Q 1253 3394 1513 3394 
Q 1903 3394 2198 3281 
Q 2494 3169 2634 2976 
Q 2775 2784 2828 2463 
L 2278 2388 
Q 2241 2644 2061 2787 
Q 1881 2931 1553 2931 
Q 1166 2931 1000 2803 
Q 834 2675 834 2503 
Q 834 2394 903 2306 
Q 972 2216 1119 2156 
Q 1203 2125 1616 2013 
Q 2213 1853 2448 1751 
Q 2684 1650 2818 1456 
Q 2953 1263 2953 975 
Q 2953 694 2789 445 
Q 2625 197 2315 61 
Q 2006 -75 1616 -75 
Q 969 -75 630 194 
Q 291 463 197 991 
z
" transform="scale(0.015625)"/>
       </defs>
       <use xlink:href="#ArialMT-59"/>
       <use xlink:href="#ArialMT-65" transform="translate(57.574219 0)"/>
       <use xlink:href="#ArialMT-73" transform="translate(113.189453 0)"/>
      </g>
     </g>
    </g>
    <g id="text_3">
     <!-- Churn -->
     <g style="fill: #262626" transform="translate(215.304687 360.529219) scale(0.12 -0.12)">
      <defs>
       <path id="ArialMT-43" d="M 3763 1606 
L 4369 1453 
Q 4178 706 3683 314 
Q 3188 -78 2472 -78 
Q 1731 -78 1267 223 
Q 803 525 561 1097 
Q 319 1669 319 2325 
Q 319 3041 592 3573 
Q 866 4106 1370 4382 
Q 1875 4659 2481 4659 
Q 3169 4659 3637 4309 
Q 4106 3959 4291 3325 
L 3694 3184 
Q 3534 3684 3231 3912 
Q 2928 4141 2469 4141 
Q 1941 4141 1586 3887 
Q 1231 3634 1087 3207 
Q 944 2781 944 2328 
Q 944 1744 1114 1308 
Q 1284 872 1643 656 
Q 2003 441 2422 441 
Q 2931 441 3284 734 
Q 3638 1028 3763 1606 
z
" transform="scale(0.015625)"/>
       <path id="ArialMT-68" d="M 422 0 
L 422 4581 
L 984 4581 
L 984 2938 
Q 1378 3394 1978 3394 
Q 2347 3394 2619 3248 
Q 2891 3103 3008 2847 
Q 3125 2591 3125 2103 
L 3125 0 
L 2563 0 
L 2563 2103 
Q 2563 2525 2380 2717 
Q 2197 2909 1863 2909 
Q 1613 2909 1392 2779 
Q 1172 2650 1078 2428 
Q 984 2206 984 1816 
L 984 0 
L 422 0 
z
" transform="scale(0.015625)"/>
       <path id="ArialMT-75" d="M 2597 0 
L 2597 488 
Q 2209 -75 1544 -75 
Q 1250 -75 995 37 
Q 741 150 617 320 
Q 494 491 444 738 
Q 409 903 409 1263 
L 409 3319 
L 972 3319 
L 972 1478 
Q 972 1038 1006 884 
Q 1059 663 1231 536 
Q 1403 409 1656 409 
Q 1909 409 2131 539 
Q 2353 669 2445 892 
Q 2538 1116 2538 1541 
L 2538 3319 
L 3100 3319 
L 3100 0 
L 2597 0 
z
" transform="scale(0.015625)"/>
       <path id="ArialMT-72" d="M 416 0 
L 416 3319 
L 922 3319 
L 922 2816 
Q 1116 3169 1280 3281 
Q 1444 3394 1641 3394 
Q 1925 3394 2219 3213 
L 2025 2691 
Q 1819 2813 1613 2813 
Q 1428 2813 1281 2702 
Q 1134 2591 1072 2394 
Q 978 2094 978 1738 
L 978 0 
L 416 0 
z
" transform="scale(0.015625)"/>
       <path id="ArialMT-6e" d="M 422 0 
L 422 3319 
L 928 3319 
L 928 2847 
Q 1294 3394 1984 3394 
Q 2284 3394 2536 3286 
Q 2788 3178 2913 3003 
Q 3038 2828 3088 2588 
Q 3119 2431 3119 2041 
L 3119 0 
L 2556 0 
L 2556 2019 
Q 2556 2363 2490 2533 
Q 2425 2703 2258 2804 
Q 2091 2906 1866 2906 
Q 1506 2906 1245 2678 
Q 984 2450 984 1813 
L 984 0 
L 422 0 
z
" transform="scale(0.015625)"/>
      </defs>
      <use xlink:href="#ArialMT-43"/>
      <use xlink:href="#ArialMT-68" transform="translate(72.216797 0)"/>
      <use xlink:href="#ArialMT-75" transform="translate(127.832031 0)"/>
      <use xlink:href="#ArialMT-72" transform="translate(183.447266 0)"/>
      <use xlink:href="#ArialMT-6e" transform="translate(216.748047 0)"/>
     </g>
    </g>
   </g>
   <g id="matplotlib.axis_2">
    <g id="ytick_1">
     <g id="line2d_1">
      <path d="M 41.695313 318.96 
L 421.595312 318.96 
" clip-path="url(#p0a567e4d84)" style="fill: none; stroke: #cccccc; stroke-width: 0.8; stroke-linecap: round"/>
     </g>
     <g id="text_4">
      <!-- 0 -->
      <g style="fill: #262626" transform="translate(28.578281 322.896797) scale(0.11 -0.11)">
       <defs>
        <path id="ArialMT-30" d="M 266 2259 
Q 266 3072 433 3567 
Q 600 4063 929 4331 
Q 1259 4600 1759 4600 
Q 2128 4600 2406 4451 
Q 2684 4303 2865 4023 
Q 3047 3744 3150 3342 
Q 3253 2941 3253 2259 
Q 3253 1453 3087 958 
Q 2922 463 2592 192 
Q 2263 -78 1759 -78 
Q 1097 -78 719 397 
Q 266 969 266 2259 
z
M 844 2259 
Q 844 1131 1108 757 
Q 1372 384 1759 384 
Q 2147 384 2411 759 
Q 2675 1134 2675 2259 
Q 2675 3391 2411 3762 
Q 2147 4134 1753 4134 
Q 1366 4134 1134 3806 
Q 844 3388 844 2259 
z
" transform="scale(0.015625)"/>
       </defs>
       <use xlink:href="#ArialMT-30"/>
      </g>
     </g>
    </g>
    <g id="ytick_2">
     <g id="line2d_2">
      <path d="M 41.695313 285.848889 
L 421.595312 285.848889 
" clip-path="url(#p0a567e4d84)" style="fill: none; stroke: #cccccc; stroke-width: 0.8; stroke-linecap: round"/>
     </g>
     <g id="text_5">
      <!-- 10 -->
      <g style="fill: #262626" transform="translate(22.46125 289.785686) scale(0.11 -0.11)">
       <defs>
        <path id="ArialMT-31" d="M 2384 0 
L 1822 0 
L 1822 3584 
Q 1619 3391 1289 3197 
Q 959 3003 697 2906 
L 697 3450 
Q 1169 3672 1522 3987 
Q 1875 4303 2022 4600 
L 2384 4600 
L 2384 0 
z
" transform="scale(0.015625)"/>
       </defs>
       <use xlink:href="#ArialMT-31"/>
       <use xlink:href="#ArialMT-30" transform="translate(55.615234 0)"/>
      </g>
     </g>
    </g>
    <g id="ytick_3">
     <g id="line2d_3">
      <path d="M 41.695313 252.737778 
L 421.595312 252.737778 
" clip-path="url(#p0a567e4d84)" style="fill: none; stroke: #cccccc; stroke-width: 0.8; stroke-linecap: round"/>
     </g>
     <g id="text_6">
      <!-- 20 -->
      <g style="fill: #262626" transform="translate(22.46125 256.674575) scale(0.11 -0.11)">
       <defs>
        <path id="ArialMT-32" d="M 3222 541 
L 3222 0 
L 194 0 
Q 188 203 259 391 
Q 375 700 629 1000 
Q 884 1300 1366 1694 
Q 2113 2306 2375 2664 
Q 2638 3022 2638 3341 
Q 2638 3675 2398 3904 
Q 2159 4134 1775 4134 
Q 1369 4134 1125 3890 
Q 881 3647 878 3216 
L 300 3275 
Q 359 3922 746 4261 
Q 1134 4600 1788 4600 
Q 2447 4600 2831 4234 
Q 3216 3869 3216 3328 
Q 3216 3053 3103 2787 
Q 2991 2522 2730 2228 
Q 2469 1934 1863 1422 
Q 1356 997 1212 845 
Q 1069 694 975 541 
L 3222 541 
z
" transform="scale(0.015625)"/>
       </defs>
       <use xlink:href="#ArialMT-32"/>
       <use xlink:href="#ArialMT-30" transform="translate(55.615234 0)"/>
      </g>
     </g>
    </g>
    <g id="ytick_4">
     <g id="line2d_4">
      <path d="M 41.695313 219.626667 
L 421.595312 219.626667 
" clip-path="url(#p0a567e4d84)" style="fill: none; stroke: #cccccc; stroke-width: 0.8; stroke-linecap: round"/>
     </g>
     <g id="text_7">
      <!-- 30 -->
      <g style="fill: #262626" transform="translate(22.46125 223.563464) scale(0.11 -0.11)">
       <defs>
        <path id="ArialMT-33" d="M 269 1209 
L 831 1284 
Q 928 806 1161 595 
Q 1394 384 1728 384 
Q 2125 384 2398 659 
Q 2672 934 2672 1341 
Q 2672 1728 2419 1979 
Q 2166 2231 1775 2231 
Q 1616 2231 1378 2169 
L 1441 2663 
Q 1497 2656 1531 2656 
Q 1891 2656 2178 2843 
Q 2466 3031 2466 3422 
Q 2466 3731 2256 3934 
Q 2047 4138 1716 4138 
Q 1388 4138 1169 3931 
Q 950 3725 888 3313 
L 325 3413 
Q 428 3978 793 4289 
Q 1159 4600 1703 4600 
Q 2078 4600 2393 4439 
Q 2709 4278 2876 4000 
Q 3044 3722 3044 3409 
Q 3044 3113 2884 2869 
Q 2725 2625 2413 2481 
Q 2819 2388 3044 2092 
Q 3269 1797 3269 1353 
Q 3269 753 2831 336 
Q 2394 -81 1725 -81 
Q 1122 -81 723 278 
Q 325 638 269 1209 
z
" transform="scale(0.015625)"/>
       </defs>
       <use xlink:href="#ArialMT-33"/>
       <use xlink:href="#ArialMT-30" transform="translate(55.615234 0)"/>
      </g>
     </g>
    </g>
    <g id="ytick_5">
     <g id="line2d_5">
      <path d="M 41.695313 186.515556 
L 421.595312 186.515556 
" clip-path="url(#p0a567e4d84)" style="fill: none; stroke: #cccccc; stroke-width: 0.8; stroke-linecap: round"/>
     </g>
     <g id="text_8">
      <!-- 40 -->
      <g style="fill: #262626" transform="translate(22.46125 190.452352) scale(0.11 -0.11)">
       <defs>
        <path id="ArialMT-34" d="M 2069 0 
L 2069 1097 
L 81 1097 
L 81 1613 
L 2172 4581 
L 2631 4581 
L 2631 1613 
L 3250 1613 
L 3250 1097 
L 2631 1097 
L 2631 0 
L 2069 0 
z
M 2069 1613 
L 2069 3678 
L 634 1613 
L 2069 1613 
z
" transform="scale(0.015625)"/>
       </defs>
       <use xlink:href="#ArialMT-34"/>
       <use xlink:href="#ArialMT-30" transform="translate(55.615234 0)"/>
      </g>
     </g>
    </g>
    <g id="ytick_6">
     <g id="line2d_6">
      <path d="M 41.695313 153.404444 
L 421.595312 153.404444 
" clip-path="url(#p0a567e4d84)" style="fill: none; stroke: #cccccc; stroke-width: 0.8; stroke-linecap: round"/>
     </g>
     <g id="text_9">
      <!-- 50 -->
      <g style="fill: #262626" transform="translate(22.46125 157.341241) scale(0.11 -0.11)">
       <defs>
        <path id="ArialMT-35" d="M 266 1200 
L 856 1250 
Q 922 819 1161 601 
Q 1400 384 1738 384 
Q 2144 384 2425 690 
Q 2706 997 2706 1503 
Q 2706 1984 2436 2262 
Q 2166 2541 1728 2541 
Q 1456 2541 1237 2417 
Q 1019 2294 894 2097 
L 366 2166 
L 809 4519 
L 3088 4519 
L 3088 3981 
L 1259 3981 
L 1013 2750 
Q 1425 3038 1878 3038 
Q 2478 3038 2890 2622 
Q 3303 2206 3303 1553 
Q 3303 931 2941 478 
Q 2500 -78 1738 -78 
Q 1113 -78 717 272 
Q 322 622 266 1200 
z
" transform="scale(0.015625)"/>
       </defs>
       <use xlink:href="#ArialMT-35"/>
       <use xlink:href="#ArialMT-30" transform="translate(55.615234 0)"/>
      </g>
     </g>
    </g>
    <g id="ytick_7">
     <g id="line2d_7">
      <path d="M 41.695313 120.293333 
L 421.595312 120.293333 
" clip-path="url(#p0a567e4d84)" style="fill: none; stroke: #cccccc; stroke-width: 0.8; stroke-linecap: round"/>
     </g>
     <g id="text_10">
      <!-- 60 -->
      <g style="fill: #262626" transform="translate(22.46125 124.23013) scale(0.11 -0.11)">
       <defs>
        <path id="ArialMT-36" d="M 3184 3459 
L 2625 3416 
Q 2550 3747 2413 3897 
Q 2184 4138 1850 4138 
Q 1581 4138 1378 3988 
Q 1113 3794 959 3422 
Q 806 3050 800 2363 
Q 1003 2672 1297 2822 
Q 1591 2972 1913 2972 
Q 2475 2972 2870 2558 
Q 3266 2144 3266 1488 
Q 3266 1056 3080 686 
Q 2894 316 2569 119 
Q 2244 -78 1831 -78 
Q 1128 -78 684 439 
Q 241 956 241 2144 
Q 241 3472 731 4075 
Q 1159 4600 1884 4600 
Q 2425 4600 2770 4297 
Q 3116 3994 3184 3459 
z
M 888 1484 
Q 888 1194 1011 928 
Q 1134 663 1356 523 
Q 1578 384 1822 384 
Q 2178 384 2434 671 
Q 2691 959 2691 1453 
Q 2691 1928 2437 2201 
Q 2184 2475 1800 2475 
Q 1419 2475 1153 2201 
Q 888 1928 888 1484 
z
" transform="scale(0.015625)"/>
       </defs>
       <use xlink:href="#ArialMT-36"/>
       <use xlink:href="#ArialMT-30" transform="translate(55.615234 0)"/>
      </g>
     </g>
    </g>
    <g id="ytick_8">
     <g id="line2d_8">
      <path d="M 41.695313 87.182222 
L 421.595312 87.182222 
" clip-path="url(#p0a567e4d84)" style="fill: none; stroke: #cccccc; stroke-width: 0.8; stroke-linecap: round"/>
     </g>
     <g id="text_11">
      <!-- 70 -->
      <g style="fill: #262626" transform="translate(22.46125 91.119019) scale(0.11 -0.11)">
       <defs>
        <path id="ArialMT-37" d="M 303 3981 
L 303 4522 
L 3269 4522 
L 3269 4084 
Q 2831 3619 2401 2847 
Q 1972 2075 1738 1259 
Q 1569 684 1522 0 
L 944 0 
Q 953 541 1156 1306 
Q 1359 2072 1739 2783 
Q 2119 3494 2547 3981 
L 303 3981 
z
" transform="scale(0.015625)"/>
       </defs>
       <use xlink:href="#ArialMT-37"/>
       <use xlink:href="#ArialMT-30" transform="translate(55.615234 0)"/>
      </g>
     </g>
    </g>
    <g id="text_12">
     <!-- Tenure (Months) -->
     <g style="fill: #262626" transform="translate(15.935625 243.438125) rotate(-90) scale(0.12 -0.12)">
      <defs>
       <path id="ArialMT-54" d="M 1659 0 
L 1659 4041 
L 150 4041 
L 150 4581 
L 3781 4581 
L 3781 4041 
L 2266 4041 
L 2266 0 
L 1659 0 
z
" transform="scale(0.015625)"/>
       <path id="ArialMT-20" transform="scale(0.015625)"/>
       <path id="ArialMT-28" d="M 1497 -1347 
Q 1031 -759 709 28 
Q 388 816 388 1659 
Q 388 2403 628 3084 
Q 909 3875 1497 4659 
L 1900 4659 
Q 1522 4009 1400 3731 
Q 1209 3300 1100 2831 
Q 966 2247 966 1656 
Q 966 153 1900 -1347 
L 1497 -1347 
z
" transform="scale(0.015625)"/>
       <path id="ArialMT-4d" d="M 475 0 
L 475 4581 
L 1388 4581 
L 2472 1338 
Q 2622 884 2691 659 
Q 2769 909 2934 1394 
L 4031 4581 
L 4847 4581 
L 4847 0 
L 4263 0 
L 4263 3834 
L 2931 0 
L 2384 0 
L 1059 3900 
L 1059 0 
L 475 0 
z
" transform="scale(0.015625)"/>
       <path id="ArialMT-74" d="M 1650 503 
L 1731 6 
Q 1494 -44 1306 -44 
Q 1000 -44 831 53 
Q 663 150 594 308 
Q 525 466 525 972 
L 525 2881 
L 113 2881 
L 113 3319 
L 525 3319 
L 525 4141 
L 1084 4478 
L 1084 3319 
L 1650 3319 
L 1650 2881 
L 1084 2881 
L 1084 941 
Q 1084 700 1114 631 
Q 1144 563 1211 522 
Q 1278 481 1403 481 
Q 1497 481 1650 503 
z
" transform="scale(0.015625)"/>
       <path id="ArialMT-29" d="M 791 -1347 
L 388 -1347 
Q 1322 153 1322 1656 
Q 1322 2244 1188 2822 
Q 1081 3291 891 3722 
Q 769 4003 388 4659 
L 791 4659 
Q 1378 3875 1659 3084 
Q 1900 2403 1900 1659 
Q 1900 816 1576 28 
Q 1253 -759 791 -1347 
z
" transform="scale(0.015625)"/>
      </defs>
      <use xlink:href="#ArialMT-54"/>
      <use xlink:href="#ArialMT-65" transform="translate(49.958984 0)"/>
      <use xlink:href="#ArialMT-6e" transform="translate(105.574219 0)"/>
      <use xlink:href="#ArialMT-75" transform="translate(161.189453 0)"/>
      <use xlink:href="#ArialMT-72" transform="translate(216.804688 0)"/>
      <use xlink:href="#ArialMT-65" transform="translate(250.105469 0)"/>
      <use xlink:href="#ArialMT-20" transform="translate(305.720703 0)"/>
      <use xlink:href="#ArialMT-28" transform="translate(333.503906 0)"/>
      <use xlink:href="#ArialMT-4d" transform="translate(366.804688 0)"/>
      <use xlink:href="#ArialMT-6f" transform="translate(450.105469 0)"/>
      <use xlink:href="#ArialMT-6e" transform="translate(505.720703 0)"/>
      <use xlink:href="#ArialMT-74" transform="translate(561.335938 0)"/>
      <use xlink:href="#ArialMT-68" transform="translate(589.119141 0)"/>
      <use xlink:href="#ArialMT-73" transform="translate(644.734375 0)"/>
      <use xlink:href="#ArialMT-29" transform="translate(694.734375 0)"/>
     </g>
    </g>
   </g>
   <g id="patch_3">
    <path d="M 98.680312 256.048889 
L 174.660312 256.048889 
L 174.660312 133.537778 
L 98.680312 133.537778 
L 98.680312 256.048889 
z
" clip-path="url(#p0a567e4d84)" style="fill: #42b874; stroke: #4b4b4b; stroke-linejoin: miter"/>
   </g>
   <g id="line2d_9">
    <path d="M 136.670312 256.048889 
L 136.670312 318.96 
" clip-path="url(#p0a567e4d84)" style="fill: none; stroke: #4b4b4b"/>
   </g>
   <g id="line2d_10">
    <path d="M 136.670312 133.537778 
L 136.670312 80.56 
" clip-path="url(#p0a567e4d84)" style="fill: none; stroke: #4b4b4b"/>
   </g>
   <g id="line2d_11">
    <path d="M 117.675312 318.96 
L 155.665312 318.96 
" clip-path="url(#p0a567e4d84)" style="fill: none; stroke: #4b4b4b; stroke-linecap: round"/>
   </g>
   <g id="line2d_12">
    <path d="M 117.675312 80.56 
L 155.665312 80.56 
" clip-path="url(#p0a567e4d84)" style="fill: none; stroke: #4b4b4b; stroke-linecap: round"/>
   </g>
   <g id="line2d_13"/>
   <g id="patch_4">
    <path d="M 288.630312 269.293333 
L 364.610312 269.293333 
L 364.610312 156.715556 
L 288.630312 156.715556 
L 288.630312 269.293333 
z
" clip-path="url(#p0a567e4d84)" style="fill: #d25d51; stroke: #4b4b4b; stroke-linejoin: miter"/>
   </g>
   <g id="line2d_14">
    <path d="M 326.620312 269.293333 
L 326.620312 318.96 
" clip-path="url(#p0a567e4d84)" style="fill: none; stroke: #4b4b4b"/>
   </g>
   <g id="line2d_15">
    <path d="M 326.620312 156.715556 
L 326.620312 80.56 
" clip-path="url(#p0a567e4d84)" style="fill: none; stroke: #4b4b4b"/>
   </g>
   <g id="line2d_16">
    <path d="M 307.625312 318.96 
L 345.615312 318.96 
" clip-path="url(#p0a567e4d84)" style="fill: none; stroke: #4b4b4b; stroke-linecap: round"/>
   </g>
   <g id="line2d_17">
    <path d="M 307.625312 80.56 
L 345.615312 80.56 
" clip-path="url(#p0a567e4d84)" style="fill: none; stroke: #4b4b4b; stroke-linecap: round"/>
   </g>
   <g id="line2d_18"/>
   <g id="line2d_19">
    <path d="M 98.680312 193.137778 
L 174.660312 193.137778 
" clip-path="url(#p0a567e4d84)" style="fill: none; stroke: #4b4b4b"/>
   </g>
   <g id="line2d_20">
    <path d="M 288.630312 216.315556 
L 364.610312 216.315556 
" clip-path="url(#p0a567e4d84)" style="fill: none; stroke: #4b4b4b"/>
   </g>
   <g id="patch_5">
    <path d="M 41.695313 330.88 
L 41.695313 68.64 
" style="fill: none; stroke: #cccccc; stroke-width: 0.8; stroke-linejoin: miter; stroke-linecap: square"/>
   </g>
   <g id="patch_6">
    <path d="M 421.595312 330.88 
L 421.595312 68.64 
" style="fill: none; stroke: #cccccc; stroke-width: 0.8; stroke-linejoin: miter; stroke-linecap: square"/>
   </g>
   <g id="patch_7">
    <path d="M 41.695313 330.88 
L 421.595312 330.88 
" style="fill: none; stroke: #cccccc; stroke-width: 0.8; stroke-linejoin: miter; stroke-linecap: square"/>
   </g>
   <g id="patch_8">
    <path d="M 41.695313 68.64 
L 421.595312 68.64 
" style="fill: none; stroke: #cccccc; stroke-width: 0.8; stroke-linejoin: miter; stroke-linecap: square"/>
   </g>
   <g id="text_13">
    <g id="patch_9">
     <path d="M 106.386719 196.137778 
L 166.953906 196.137778 
Q 169.953906 196.137778 169.953906 193.137778 
L 169.953906 184.006528 
Q 169.953906 181.006528 166.953906 181.006528 
L 106.386719 181.006528 
Q 103.386719 181.006528 103.386719 184.006528 
L 103.386719 193.137778 
Q 103.386719 196.137778 106.386719 196.137778 
z
" style="fill: #ffff00; opacity: 0.7; stroke: #ffffff; stroke-linejoin: miter"/>
    </g>
    <!-- Median: 38m -->
    <g style="fill: #262626" transform="translate(106.386719 191.16434) scale(0.1 -0.1)">
     <defs>
      <path id="Arial-BoldMT-4d" d="M 453 0 
L 453 4581 
L 1838 4581 
L 2669 1456 
L 3491 4581 
L 4878 4581 
L 4878 0 
L 4019 0 
L 4019 3606 
L 3109 0 
L 2219 0 
L 1313 3606 
L 1313 0 
L 453 0 
z
" transform="scale(0.015625)"/>
      <path id="Arial-BoldMT-65" d="M 2381 1056 
L 3256 909 
Q 3088 428 2723 176 
Q 2359 -75 1813 -75 
Q 947 -75 531 491 
Q 203 944 203 1634 
Q 203 2459 634 2926 
Q 1066 3394 1725 3394 
Q 2466 3394 2894 2905 
Q 3322 2416 3303 1406 
L 1103 1406 
Q 1113 1016 1316 798 
Q 1519 581 1822 581 
Q 2028 581 2168 693 
Q 2309 806 2381 1056 
z
M 2431 1944 
Q 2422 2325 2234 2523 
Q 2047 2722 1778 2722 
Q 1491 2722 1303 2513 
Q 1116 2303 1119 1944 
L 2431 1944 
z
" transform="scale(0.015625)"/>
      <path id="Arial-BoldMT-64" d="M 3503 0 
L 2688 0 
L 2688 488 
Q 2484 203 2207 64 
Q 1931 -75 1650 -75 
Q 1078 -75 670 386 
Q 263 847 263 1672 
Q 263 2516 659 2955 
Q 1056 3394 1663 3394 
Q 2219 3394 2625 2931 
L 2625 4581 
L 3503 4581 
L 3503 0 
z
M 1159 1731 
Q 1159 1200 1306 963 
Q 1519 619 1900 619 
Q 2203 619 2415 876 
Q 2628 1134 2628 1647 
Q 2628 2219 2422 2470 
Q 2216 2722 1894 2722 
Q 1581 2722 1370 2473 
Q 1159 2225 1159 1731 
z
" transform="scale(0.015625)"/>
      <path id="Arial-BoldMT-69" d="M 459 3769 
L 459 4581 
L 1338 4581 
L 1338 3769 
L 459 3769 
z
M 459 0 
L 459 3319 
L 1338 3319 
L 1338 0 
L 459 0 
z
" transform="scale(0.015625)"/>
      <path id="Arial-BoldMT-61" d="M 1116 2306 
L 319 2450 
Q 453 2931 781 3162 
Q 1109 3394 1756 3394 
Q 2344 3394 2631 3255 
Q 2919 3116 3036 2902 
Q 3153 2688 3153 2116 
L 3144 1091 
Q 3144 653 3186 445 
Q 3228 238 3344 0 
L 2475 0 
Q 2441 88 2391 259 
Q 2369 338 2359 363 
Q 2134 144 1878 34 
Q 1622 -75 1331 -75 
Q 819 -75 523 203 
Q 228 481 228 906 
Q 228 1188 362 1408 
Q 497 1628 739 1745 
Q 981 1863 1438 1950 
Q 2053 2066 2291 2166 
L 2291 2253 
Q 2291 2506 2166 2614 
Q 2041 2722 1694 2722 
Q 1459 2722 1328 2630 
Q 1197 2538 1116 2306 
z
M 2291 1594 
Q 2122 1538 1756 1459 
Q 1391 1381 1278 1306 
Q 1106 1184 1106 997 
Q 1106 813 1243 678 
Q 1381 544 1594 544 
Q 1831 544 2047 700 
Q 2206 819 2256 991 
Q 2291 1103 2291 1419 
L 2291 1594 
z
" transform="scale(0.015625)"/>
      <path id="Arial-BoldMT-6e" d="M 3478 0 
L 2600 0 
L 2600 1694 
Q 2600 2231 2544 2389 
Q 2488 2547 2361 2634 
Q 2234 2722 2056 2722 
Q 1828 2722 1647 2597 
Q 1466 2472 1398 2265 
Q 1331 2059 1331 1503 
L 1331 0 
L 453 0 
L 453 3319 
L 1269 3319 
L 1269 2831 
Q 1703 3394 2363 3394 
Q 2653 3394 2893 3289 
Q 3134 3184 3257 3021 
Q 3381 2859 3429 2653 
Q 3478 2447 3478 2063 
L 3478 0 
z
" transform="scale(0.015625)"/>
      <path id="Arial-BoldMT-3a" d="M 628 2441 
L 628 3319 
L 1506 3319 
L 1506 2441 
L 628 2441 
z
M 628 0 
L 628 878 
L 1506 878 
L 1506 0 
L 628 0 
z
" transform="scale(0.015625)"/>
      <path id="Arial-BoldMT-20" transform="scale(0.015625)"/>
      <path id="Arial-BoldMT-33" d="M 241 1216 
L 1091 1319 
Q 1131 994 1309 822 
Q 1488 650 1741 650 
Q 2013 650 2198 856 
Q 2384 1063 2384 1413 
Q 2384 1744 2206 1937 
Q 2028 2131 1772 2131 
Q 1603 2131 1369 2066 
L 1466 2781 
Q 1822 2772 2009 2936 
Q 2197 3100 2197 3372 
Q 2197 3603 2059 3740 
Q 1922 3878 1694 3878 
Q 1469 3878 1309 3722 
Q 1150 3566 1116 3266 
L 306 3403 
Q 391 3819 561 4067 
Q 731 4316 1036 4458 
Q 1341 4600 1719 4600 
Q 2366 4600 2756 4188 
Q 3078 3850 3078 3425 
Q 3078 2822 2419 2463 
Q 2813 2378 3048 2084 
Q 3284 1791 3284 1375 
Q 3284 772 2843 347 
Q 2403 -78 1747 -78 
Q 1125 -78 715 280 
Q 306 638 241 1216 
z
" transform="scale(0.015625)"/>
      <path id="Arial-BoldMT-38" d="M 1025 2472 
Q 684 2616 529 2867 
Q 375 3119 375 3419 
Q 375 3931 733 4265 
Q 1091 4600 1750 4600 
Q 2403 4600 2764 4265 
Q 3125 3931 3125 3419 
Q 3125 3100 2959 2851 
Q 2794 2603 2494 2472 
Q 2875 2319 3073 2025 
Q 3272 1731 3272 1347 
Q 3272 713 2867 316 
Q 2463 -81 1791 -81 
Q 1166 -81 750 247 
Q 259 634 259 1309 
Q 259 1681 443 1992 
Q 628 2303 1025 2472 
z
M 1206 3356 
Q 1206 3094 1354 2947 
Q 1503 2800 1750 2800 
Q 2000 2800 2150 2948 
Q 2300 3097 2300 3359 
Q 2300 3606 2151 3754 
Q 2003 3903 1759 3903 
Q 1506 3903 1356 3753 
Q 1206 3603 1206 3356 
z
M 1125 1394 
Q 1125 1031 1311 828 
Q 1497 625 1775 625 
Q 2047 625 2225 820 
Q 2403 1016 2403 1384 
Q 2403 1706 2222 1901 
Q 2041 2097 1763 2097 
Q 1441 2097 1283 1875 
Q 1125 1653 1125 1394 
z
" transform="scale(0.015625)"/>
      <path id="Arial-BoldMT-6d" d="M 394 3319 
L 1203 3319 
L 1203 2866 
Q 1638 3394 2238 3394 
Q 2556 3394 2790 3262 
Q 3025 3131 3175 2866 
Q 3394 3131 3647 3262 
Q 3900 3394 4188 3394 
Q 4553 3394 4806 3245 
Q 5059 3097 5184 2809 
Q 5275 2597 5275 2122 
L 5275 0 
L 4397 0 
L 4397 1897 
Q 4397 2391 4306 2534 
Q 4184 2722 3931 2722 
Q 3747 2722 3584 2609 
Q 3422 2497 3350 2280 
Q 3278 2063 3278 1594 
L 3278 0 
L 2400 0 
L 2400 1819 
Q 2400 2303 2353 2443 
Q 2306 2584 2207 2653 
Q 2109 2722 1941 2722 
Q 1738 2722 1575 2612 
Q 1413 2503 1342 2297 
Q 1272 2091 1272 1613 
L 1272 0 
L 394 0 
L 394 3319 
z
" transform="scale(0.015625)"/>
     </defs>
     <use xlink:href="#Arial-BoldMT-4d"/>
     <use xlink:href="#Arial-BoldMT-65" transform="translate(83.300781 0)"/>
     <use xlink:href="#Arial-BoldMT-64" transform="translate(138.916016 0)"/>
     <use xlink:href="#Arial-BoldMT-69" transform="translate(200 0)"/>
     <use xlink:href="#Arial-BoldMT-61" transform="translate(227.783203 0)"/>
     <use xlink:href="#Arial-BoldMT-6e" transform="translate(283.398438 0)"/>
     <use xlink:href="#Arial-BoldMT-3a" transform="translate(344.482422 0)"/>
     <use xlink:href="#Arial-BoldMT-20" transform="translate(377.783203 0)"/>
     <use xlink:href="#Arial-BoldMT-33" transform="translate(405.566406 0)"/>
     <use xlink:href="#Arial-BoldMT-38" transform="translate(461.181641 0)"/>
     <use xlink:href="#Arial-BoldMT-6d" transform="translate(516.796875 0)"/>
    </g>
   </g>
   <g id="text_14">
    <g id="patch_10">
     <path d="M 296.336719 219.315556 
L 356.903906 219.315556 
Q 359.903906 219.315556 359.903906 216.315556 
L 359.903906 207.184306 
Q 359.903906 204.184306 356.903906 204.184306 
L 296.336719 204.184306 
Q 293.336719 204.184306 293.336719 207.184306 
L 293.336719 216.315556 
Q 293.336719 219.315556 296.336719 219.315556 
z
" style="fill: #ffff00; opacity: 0.7; stroke: #ffffff; stroke-linejoin: miter"/>
    </g>
    <!-- Median: 31m -->
    <g style="fill: #262626" transform="translate(296.336719 214.342118) scale(0.1 -0.1)">
     <defs>
      <path id="Arial-BoldMT-31" d="M 2519 0 
L 1641 0 
L 1641 3309 
Q 1159 2859 506 2644 
L 506 3441 
Q 850 3553 1253 3867 
Q 1656 4181 1806 4600 
L 2519 4600 
L 2519 0 
z
" transform="scale(0.015625)"/>
     </defs>
     <use xlink:href="#Arial-BoldMT-4d"/>
     <use xlink:href="#Arial-BoldMT-65" transform="translate(83.300781 0)"/>
     <use xlink:href="#Arial-BoldMT-64" transform="translate(138.916016 0)"/>
     <use xlink:href="#Arial-BoldMT-69" transform="translate(200 0)"/>
     <use xlink:href="#Arial-BoldMT-61" transform="translate(227.783203 0)"/>
     <use xlink:href="#Arial-BoldMT-6e" transform="translate(283.398438 0)"/>
     <use xlink:href="#Arial-BoldMT-3a" transform="translate(344.482422 0)"/>
     <use xlink:href="#Arial-BoldMT-20" transform="translate(377.783203 0)"/>
     <use xlink:href="#Arial-BoldMT-33" transform="translate(405.566406 0)"/>
     <use xlink:href="#Arial-BoldMT-31" transform="translate(461.181641 0)"/>
     <use xlink:href="#Arial-BoldMT-6d" transform="translate(516.796875 0)"/>
    </g>
   </g>
   <g id="text_15">
    <!-- Tenure vs Churn (Boxplot) -->
    <g style="fill: #262626" transform="translate(143.888281 62.64) scale(0.14 -0.14)">
     <defs>
      <path id="Arial-BoldMT-54" d="M 1497 0 
L 1497 3806 
L 138 3806 
L 138 4581 
L 3778 4581 
L 3778 3806 
L 2422 3806 
L 2422 0 
L 1497 0 
z
" transform="scale(0.015625)"/>
      <path id="Arial-BoldMT-75" d="M 2644 0 
L 2644 497 
Q 2463 231 2167 78 
Q 1872 -75 1544 -75 
Q 1209 -75 943 72 
Q 678 219 559 484 
Q 441 750 441 1219 
L 441 3319 
L 1319 3319 
L 1319 1794 
Q 1319 1094 1367 936 
Q 1416 778 1544 686 
Q 1672 594 1869 594 
Q 2094 594 2272 717 
Q 2450 841 2515 1023 
Q 2581 1206 2581 1919 
L 2581 3319 
L 3459 3319 
L 3459 0 
L 2644 0 
z
" transform="scale(0.015625)"/>
      <path id="Arial-BoldMT-72" d="M 1300 0 
L 422 0 
L 422 3319 
L 1238 3319 
L 1238 2847 
Q 1447 3181 1614 3287 
Q 1781 3394 1994 3394 
Q 2294 3394 2572 3228 
L 2300 2463 
Q 2078 2606 1888 2606 
Q 1703 2606 1575 2504 
Q 1447 2403 1373 2137 
Q 1300 1872 1300 1025 
L 1300 0 
z
" transform="scale(0.015625)"/>
      <path id="Arial-BoldMT-76" d="M 1372 0 
L 34 3319 
L 956 3319 
L 1581 1625 
L 1763 1059 
Q 1834 1275 1853 1344 
Q 1897 1484 1947 1625 
L 2578 3319 
L 3481 3319 
L 2163 0 
L 1372 0 
z
" transform="scale(0.015625)"/>
      <path id="Arial-BoldMT-73" d="M 150 947 
L 1031 1081 
Q 1088 825 1259 692 
Q 1431 559 1741 559 
Q 2081 559 2253 684 
Q 2369 772 2369 919 
Q 2369 1019 2306 1084 
Q 2241 1147 2013 1200 
Q 950 1434 666 1628 
Q 272 1897 272 2375 
Q 272 2806 612 3100 
Q 953 3394 1669 3394 
Q 2350 3394 2681 3172 
Q 3013 2950 3138 2516 
L 2309 2363 
Q 2256 2556 2107 2659 
Q 1959 2763 1684 2763 
Q 1338 2763 1188 2666 
Q 1088 2597 1088 2488 
Q 1088 2394 1175 2328 
Q 1294 2241 1995 2081 
Q 2697 1922 2975 1691 
Q 3250 1456 3250 1038 
Q 3250 581 2869 253 
Q 2488 -75 1741 -75 
Q 1063 -75 667 200 
Q 272 475 150 947 
z
" transform="scale(0.015625)"/>
      <path id="Arial-BoldMT-43" d="M 3397 1684 
L 4294 1400 
Q 4088 650 3608 286 
Q 3128 -78 2391 -78 
Q 1478 -78 890 545 
Q 303 1169 303 2250 
Q 303 3394 893 4026 
Q 1484 4659 2447 4659 
Q 3288 4659 3813 4163 
Q 4125 3869 4281 3319 
L 3366 3100 
Q 3284 3456 3026 3662 
Q 2769 3869 2400 3869 
Q 1891 3869 1573 3503 
Q 1256 3138 1256 2319 
Q 1256 1450 1568 1081 
Q 1881 713 2381 713 
Q 2750 713 3015 947 
Q 3281 1181 3397 1684 
z
" transform="scale(0.015625)"/>
      <path id="Arial-BoldMT-68" d="M 1334 4581 
L 1334 2897 
Q 1759 3394 2350 3394 
Q 2653 3394 2897 3281 
Q 3141 3169 3264 2994 
Q 3388 2819 3433 2606 
Q 3478 2394 3478 1947 
L 3478 0 
L 2600 0 
L 2600 1753 
Q 2600 2275 2550 2415 
Q 2500 2556 2373 2639 
Q 2247 2722 2056 2722 
Q 1838 2722 1666 2615 
Q 1494 2509 1414 2295 
Q 1334 2081 1334 1663 
L 1334 0 
L 456 0 
L 456 4581 
L 1334 4581 
z
" transform="scale(0.015625)"/>
      <path id="Arial-BoldMT-28" d="M 1916 -1347 
L 1313 -1347 
Q 834 -625 584 153 
Q 334 931 334 1659 
Q 334 2563 644 3369 
Q 913 4069 1325 4659 
L 1925 4659 
Q 1497 3713 1336 3048 
Q 1175 2384 1175 1641 
Q 1175 1128 1270 590 
Q 1366 53 1531 -431 
Q 1641 -750 1916 -1347 
z
" transform="scale(0.015625)"/>
      <path id="Arial-BoldMT-42" d="M 469 4581 
L 2300 4581 
Q 2844 4581 3111 4536 
Q 3378 4491 3589 4347 
Q 3800 4203 3940 3964 
Q 4081 3725 4081 3428 
Q 4081 3106 3907 2837 
Q 3734 2569 3438 2434 
Q 3856 2313 4081 2019 
Q 4306 1725 4306 1328 
Q 4306 1016 4161 720 
Q 4016 425 3764 248 
Q 3513 72 3144 31 
Q 2913 6 2028 0 
L 469 0 
L 469 4581 
z
M 1394 3819 
L 1394 2759 
L 2000 2759 
Q 2541 2759 2672 2775 
Q 2909 2803 3045 2939 
Q 3181 3075 3181 3297 
Q 3181 3509 3064 3642 
Q 2947 3775 2716 3803 
Q 2578 3819 1925 3819 
L 1394 3819 
z
M 1394 1997 
L 1394 772 
L 2250 772 
Q 2750 772 2884 800 
Q 3091 838 3220 983 
Q 3350 1128 3350 1372 
Q 3350 1578 3250 1722 
Q 3150 1866 2961 1931 
Q 2772 1997 2141 1997 
L 1394 1997 
z
" transform="scale(0.015625)"/>
      <path id="Arial-BoldMT-6f" d="M 256 1706 
Q 256 2144 472 2553 
Q 688 2963 1083 3178 
Q 1478 3394 1966 3394 
Q 2719 3394 3200 2905 
Q 3681 2416 3681 1669 
Q 3681 916 3195 420 
Q 2709 -75 1972 -75 
Q 1516 -75 1102 131 
Q 688 338 472 736 
Q 256 1134 256 1706 
z
M 1156 1659 
Q 1156 1166 1390 903 
Q 1625 641 1969 641 
Q 2313 641 2545 903 
Q 2778 1166 2778 1666 
Q 2778 2153 2545 2415 
Q 2313 2678 1969 2678 
Q 1625 2678 1390 2415 
Q 1156 2153 1156 1659 
z
" transform="scale(0.015625)"/>
      <path id="Arial-BoldMT-78" d="M 38 0 
L 1234 1709 
L 88 3319 
L 1159 3319 
L 1747 2406 
L 2366 3319 
L 3397 3319 
L 2272 1747 
L 3500 0 
L 2422 0 
L 1747 1028 
L 1066 0 
L 38 0 
z
" transform="scale(0.015625)"/>
      <path id="Arial-BoldMT-70" d="M 434 3319 
L 1253 3319 
L 1253 2831 
Q 1413 3081 1684 3237 
Q 1956 3394 2288 3394 
Q 2866 3394 3269 2941 
Q 3672 2488 3672 1678 
Q 3672 847 3265 386 
Q 2859 -75 2281 -75 
Q 2006 -75 1782 34 
Q 1559 144 1313 409 
L 1313 -1263 
L 434 -1263 
L 434 3319 
z
M 1303 1716 
Q 1303 1156 1525 889 
Q 1747 622 2066 622 
Q 2372 622 2575 867 
Q 2778 1113 2778 1672 
Q 2778 2194 2568 2447 
Q 2359 2700 2050 2700 
Q 1728 2700 1515 2451 
Q 1303 2203 1303 1716 
z
" transform="scale(0.015625)"/>
      <path id="Arial-BoldMT-6c" d="M 459 0 
L 459 4581 
L 1338 4581 
L 1338 0 
L 459 0 
z
" transform="scale(0.015625)"/>
      <path id="Arial-BoldMT-74" d="M 1981 3319 
L 1981 2619 
L 1381 2619 
L 1381 1281 
Q 1381 875 1398 808 
Q 1416 741 1477 697 
Q 1538 653 1625 653 
Q 1747 653 1978 738 
L 2053 56 
Q 1747 -75 1359 -75 
Q 1122 -75 931 4 
Q 741 84 652 211 
Q 563 338 528 553 
Q 500 706 500 1172 
L 500 2619 
L 97 2619 
L 97 3319 
L 500 3319 
L 500 3978 
L 1381 4491 
L 1381 3319 
L 1981 3319 
z
" transform="scale(0.015625)"/>
      <path id="Arial-BoldMT-29" d="M 216 -1347 
Q 475 -791 581 -494 
Q 688 -197 778 190 
Q 869 578 912 926 
Q 956 1275 956 1641 
Q 956 2384 797 3048 
Q 638 3713 209 4659 
L 806 4659 
Q 1278 3988 1539 3234 
Q 1800 2481 1800 1706 
Q 1800 1053 1594 306 
Q 1359 -531 822 -1347 
L 216 -1347 
z
" transform="scale(0.015625)"/>
     </defs>
     <use xlink:href="#Arial-BoldMT-54"/>
     <use xlink:href="#Arial-BoldMT-65" transform="translate(53.708984 0)"/>
     <use xlink:href="#Arial-BoldMT-6e" transform="translate(109.324219 0)"/>
     <use xlink:href="#Arial-BoldMT-75" transform="translate(170.408203 0)"/>
     <use xlink:href="#Arial-BoldMT-72" transform="translate(231.492188 0)"/>
     <use xlink:href="#Arial-BoldMT-65" transform="translate(270.408203 0)"/>
     <use xlink:href="#Arial-BoldMT-20" transform="translate(326.023438 0)"/>
     <use xlink:href="#Arial-BoldMT-76" transform="translate(353.806641 0)"/>
     <use xlink:href="#Arial-BoldMT-73" transform="translate(409.421875 0)"/>
     <use xlink:href="#Arial-BoldMT-20" transform="translate(465.037109 0)"/>
     <use xlink:href="#Arial-BoldMT-43" transform="translate(492.820312 0)"/>
     <use xlink:href="#Arial-BoldMT-68" transform="translate(565.037109 0)"/>
     <use xlink:href="#Arial-BoldMT-75" transform="translate(626.121094 0)"/>
     <use xlink:href="#Arial-BoldMT-72" transform="translate(687.205078 0)"/>
     <use xlink:href="#Arial-BoldMT-6e" transform="translate(726.121094 0)"/>
     <use xlink:href="#Arial-BoldMT-20" transform="translate(787.205078 0)"/>
     <use xlink:href="#Arial-BoldMT-28" transform="translate(814.988281 0)"/>
     <use xlink:href="#Arial-BoldMT-42" transform="translate(848.289062 0)"/>
     <use xlink:href="#Arial-BoldMT-6f" transform="translate(920.505859 0)"/>
     <use xlink:href="#Arial-BoldMT-78" transform="translate(981.589844 0)"/>
     <use xlink:href="#Arial-BoldMT-70" transform="translate(1037.205078 0)"/>
     <use xlink:href="#Arial-BoldMT-6c" transform="translate(1098.289062 0)"/>
     <use xlink:href="#Arial-BoldMT-6f" transform="translate(1126.072266 0)"/>
     <use xlink:href="#Arial-BoldMT-74" transform="translate(1187.15625 0)"/>
     <use xlink:href="#Arial-BoldMT-29" transform="translate(1220.457031 0)"/>
    </g>
   </g>
  </g>
  <g id="axes_2">
   <g id="patch_11">
    <path d="M 467.755312 330.88 
L 847.655312 330.88 
L 847.655312 68.64 
L 467.755312 68.64 
z
" style="fill: #ffffff"/>
   </g>
   <g id="matplotlib.axis_3">
    <g id="xtick_3">
     <g id="text_16">
      <!-- No -->
      <g style="fill: #262626" transform="translate(555.699766 345.753594) scale(0.11 -0.11)">
       <use xlink:href="#ArialMT-4e"/>
       <use xlink:href="#ArialMT-6f" transform="translate(72.216797 0)"/>
      </g>
     </g>
    </g>
    <g id="xtick_4">
     <g id="text_17">
      <!-- Yes -->
      <g style="fill: #262626" transform="translate(743.705 345.753594) scale(0.11 -0.11)">
       <use xlink:href="#ArialMT-59"/>
       <use xlink:href="#ArialMT-65" transform="translate(57.574219 0)"/>
       <use xlink:href="#ArialMT-73" transform="translate(113.189453 0)"/>
      </g>
     </g>
    </g>
    <g id="text_18">
     <!-- Churn -->
     <g style="fill: #262626" transform="translate(641.364687 360.529219) scale(0.12 -0.12)">
      <use xlink:href="#ArialMT-43"/>
      <use xlink:href="#ArialMT-68" transform="translate(72.216797 0)"/>
      <use xlink:href="#ArialMT-75" transform="translate(127.832031 0)"/>
      <use xlink:href="#ArialMT-72" transform="translate(183.447266 0)"/>
      <use xlink:href="#ArialMT-6e" transform="translate(216.748047 0)"/>
     </g>
    </g>
   </g>
   <g id="matplotlib.axis_4">
    <g id="ytick_9">
     <g id="line2d_21">
      <path d="M 467.755312 294.947049 
L 847.655312 294.947049 
" clip-path="url(#pe5edbeccc2)" style="fill: none; stroke: #cccccc; stroke-width: 0.8; stroke-linecap: round"/>
     </g>
     <g id="text_19">
      <!-- 0 -->
      <g style="fill: #262626" transform="translate(454.638281 298.883845) scale(0.11 -0.11)">
       <use xlink:href="#ArialMT-30"/>
      </g>
     </g>
    </g>
    <g id="ytick_10">
     <g id="line2d_22">
      <path d="M 467.755312 242.065355 
L 847.655312 242.065355 
" clip-path="url(#pe5edbeccc2)" style="fill: none; stroke: #cccccc; stroke-width: 0.8; stroke-linecap: round"/>
     </g>
     <g id="text_20">
      <!-- 20 -->
      <g style="fill: #262626" transform="translate(448.52125 246.002152) scale(0.11 -0.11)">
       <use xlink:href="#ArialMT-32"/>
       <use xlink:href="#ArialMT-30" transform="translate(55.615234 0)"/>
      </g>
     </g>
    </g>
    <g id="ytick_11">
     <g id="line2d_23">
      <path d="M 467.755312 189.183661 
L 847.655312 189.183661 
" clip-path="url(#pe5edbeccc2)" style="fill: none; stroke: #cccccc; stroke-width: 0.8; stroke-linecap: round"/>
     </g>
     <g id="text_21">
      <!-- 40 -->
      <g style="fill: #262626" transform="translate(448.52125 193.120458) scale(0.11 -0.11)">
       <use xlink:href="#ArialMT-34"/>
       <use xlink:href="#ArialMT-30" transform="translate(55.615234 0)"/>
      </g>
     </g>
    </g>
    <g id="ytick_12">
     <g id="line2d_24">
      <path d="M 467.755312 136.301968 
L 847.655312 136.301968 
" clip-path="url(#pe5edbeccc2)" style="fill: none; stroke: #cccccc; stroke-width: 0.8; stroke-linecap: round"/>
     </g>
     <g id="text_22">
      <!-- 60 -->
      <g style="fill: #262626" transform="translate(448.52125 140.238764) scale(0.11 -0.11)">
       <use xlink:href="#ArialMT-36"/>
       <use xlink:href="#ArialMT-30" transform="translate(55.615234 0)"/>
      </g>
     </g>
    </g>
    <g id="ytick_13">
     <g id="line2d_25">
      <path d="M 467.755312 83.420274 
L 847.655312 83.420274 
" clip-path="url(#pe5edbeccc2)" style="fill: none; stroke: #cccccc; stroke-width: 0.8; stroke-linecap: round"/>
     </g>
     <g id="text_23">
      <!-- 80 -->
      <g style="fill: #262626" transform="translate(448.52125 87.357071) scale(0.11 -0.11)">
       <defs>
        <path id="ArialMT-38" d="M 1131 2484 
Q 781 2613 612 2850 
Q 444 3088 444 3419 
Q 444 3919 803 4259 
Q 1163 4600 1759 4600 
Q 2359 4600 2725 4251 
Q 3091 3903 3091 3403 
Q 3091 3084 2923 2848 
Q 2756 2613 2416 2484 
Q 2838 2347 3058 2040 
Q 3278 1734 3278 1309 
Q 3278 722 2862 322 
Q 2447 -78 1769 -78 
Q 1091 -78 675 323 
Q 259 725 259 1325 
Q 259 1772 486 2073 
Q 713 2375 1131 2484 
z
M 1019 3438 
Q 1019 3113 1228 2906 
Q 1438 2700 1772 2700 
Q 2097 2700 2305 2904 
Q 2513 3109 2513 3406 
Q 2513 3716 2298 3927 
Q 2084 4138 1766 4138 
Q 1444 4138 1231 3931 
Q 1019 3725 1019 3438 
z
M 838 1322 
Q 838 1081 952 856 
Q 1066 631 1291 507 
Q 1516 384 1775 384 
Q 2178 384 2440 643 
Q 2703 903 2703 1303 
Q 2703 1709 2433 1975 
Q 2163 2241 1756 2241 
Q 1359 2241 1098 1978 
Q 838 1716 838 1322 
z
" transform="scale(0.015625)"/>
       </defs>
       <use xlink:href="#ArialMT-38"/>
       <use xlink:href="#ArialMT-30" transform="translate(55.615234 0)"/>
      </g>
     </g>
    </g>
    <g id="text_24">
     <!-- Tenure (Months) -->
     <g style="fill: #262626" transform="translate(441.995625 243.438125) rotate(-90) scale(0.12 -0.12)">
      <use xlink:href="#ArialMT-54"/>
      <use xlink:href="#ArialMT-65" transform="translate(49.958984 0)"/>
      <use xlink:href="#ArialMT-6e" transform="translate(105.574219 0)"/>
      <use xlink:href="#ArialMT-75" transform="translate(161.189453 0)"/>
      <use xlink:href="#ArialMT-72" transform="translate(216.804688 0)"/>
      <use xlink:href="#ArialMT-65" transform="translate(250.105469 0)"/>
      <use xlink:href="#ArialMT-20" transform="translate(305.720703 0)"/>
      <use xlink:href="#ArialMT-28" transform="translate(333.503906 0)"/>
      <use xlink:href="#ArialMT-4d" transform="translate(366.804688 0)"/>
      <use xlink:href="#ArialMT-6f" transform="translate(450.105469 0)"/>
      <use xlink:href="#ArialMT-6e" transform="translate(505.720703 0)"/>
      <use xlink:href="#ArialMT-74" transform="translate(561.335938 0)"/>
      <use xlink:href="#ArialMT-68" transform="translate(589.119141 0)"/>
      <use xlink:href="#ArialMT-73" transform="translate(644.734375 0)"/>
      <use xlink:href="#ArialMT-29" transform="translate(694.734375 0)"/>
     </g>
    </g>
   </g>
   <g id="FillBetweenPolyCollection_1">
    <defs>
     <path id="mde5fb599ad" d="M 564.610713 -55.002037 
L 560.849912 -55.002037 
L 559.632042 -57.332384 
L 557.856953 -59.662731 
L 555.404769 -61.993078 
L 552.193779 -64.323426 
L 548.207808 -66.653773 
L 543.516279 -68.98412 
L 538.279342 -71.314467 
L 532.733799 -73.644814 
L 527.161151 -75.975161 
L 521.844866 -78.305508 
L 517.027468 -80.635855 
L 512.877818 -82.966202 
L 509.475306 -85.296549 
L 506.812247 -87.626897 
L 504.811009 -89.957244 
L 503.349672 -92.287591 
L 502.289697 -94.617938 
L 501.500323 -96.948285 
L 500.876239 -99.278632 
L 500.346831 -101.608979 
L 499.876918 -103.939326 
L 499.460347 -106.269673 
L 499.10905 -108.60002 
L 498.840731 -110.930368 
L 498.66813 -113.260715 
L 498.591838 -115.591062 
L 498.597424 -117.921409 
L 498.656659 -120.251756 
L 498.732045 -122.582103 
L 498.783488 -124.91245 
L 498.775675 -127.242797 
L 498.684459 -129.573144 
L 498.500646 -131.903492 
L 498.23029 -134.233839 
L 497.891747 -136.564186 
L 497.51084 -138.894533 
L 497.115954 -141.22488 
L 496.734441 -143.555227 
L 496.390623 -145.885574 
L 496.104681 -148.215921 
L 495.89141 -150.546268 
L 495.758332 -152.876615 
L 495.703656 -155.206963 
L 495.715289 -157.53731 
L 495.772104 -159.867657 
L 495.847834 -162.198004 
L 495.916817 -164.528351 
L 495.959813 -166.858698 
L 495.96787 -169.189045 
L 495.942698 -171.519392 
L 495.893152 -173.849739 
L 495.828757 -176.180087 
L 495.75238 -178.510434 
L 495.654741 -180.840781 
L 495.513179 -183.171128 
L 495.295942 -185.501475 
L 494.971372 -187.831822 
L 494.519398 -190.162169 
L 493.941467 -192.492516 
L 493.265076 -194.822863 
L 492.540669 -197.15321 
L 491.831331 -199.483558 
L 491.198327 -201.813905 
L 490.68708 -204.144252 
L 490.317803 -206.474599 
L 490.083105 -208.804946 
L 489.952303 -211.135293 
L 489.880161 -213.46564 
L 489.817052 -215.795987 
L 489.718086 -218.126334 
L 489.549898 -220.456681 
L 489.294806 -222.787029 
L 488.952533 -225.117376 
L 488.539699 -227.447723 
L 488.087228 -229.77807 
L 487.636041 -232.108417 
L 487.231953 -234.438764 
L 486.921442 -236.769111 
L 486.750312 -239.099458 
L 486.766921 -241.429805 
L 487.030149 -243.760153 
L 487.619997 -246.0905 
L 488.646172 -248.420847 
L 490.248684 -250.751194 
L 492.585239 -253.081541 
L 495.803818 -255.411888 
L 500.004344 -257.742235 
L 505.198973 -260.072582 
L 511.283676 -262.402929 
L 518.032458 -264.733276 
L 525.119639 -267.063624 
L 532.16685 -269.393971 
L 538.803217 -271.724318 
L 544.722952 -274.054665 
L 549.725851 -276.385012 
L 553.73238 -278.715359 
L 556.773331 -281.045706 
L 558.961084 -283.376053 
L 560.453111 -285.7064 
L 565.007514 -285.7064 
L 565.007514 -285.7064 
L 566.499541 -283.376053 
L 568.687294 -281.045706 
L 571.728245 -278.715359 
L 575.734774 -276.385012 
L 580.737673 -274.054665 
L 586.657408 -271.724318 
L 593.293775 -269.393971 
L 600.340986 -267.063624 
L 607.428167 -264.733276 
L 614.176949 -262.402929 
L 620.261652 -260.072582 
L 625.456281 -257.742235 
L 629.656807 -255.411888 
L 632.875386 -253.081541 
L 635.211941 -250.751194 
L 636.814453 -248.420847 
L 637.840628 -246.0905 
L 638.430476 -243.760153 
L 638.693704 -241.429805 
L 638.710312 -239.099458 
L 638.539183 -236.769111 
L 638.228672 -234.438764 
L 637.824584 -232.108417 
L 637.373397 -229.77807 
L 636.920926 -227.447723 
L 636.508092 -225.117376 
L 636.165819 -222.787029 
L 635.910727 -220.456681 
L 635.742539 -218.126334 
L 635.643573 -215.795987 
L 635.580464 -213.46564 
L 635.508322 -211.135293 
L 635.37752 -208.804946 
L 635.142822 -206.474599 
L 634.773545 -204.144252 
L 634.262298 -201.813905 
L 633.629294 -199.483558 
L 632.919956 -197.15321 
L 632.195549 -194.822863 
L 631.519158 -192.492516 
L 630.941227 -190.162169 
L 630.489253 -187.831822 
L 630.164683 -185.501475 
L 629.947446 -183.171128 
L 629.805884 -180.840781 
L 629.708245 -178.510434 
L 629.631868 -176.180087 
L 629.567473 -173.849739 
L 629.517927 -171.519392 
L 629.492755 -169.189045 
L 629.500812 -166.858698 
L 629.543808 -164.528351 
L 629.612791 -162.198004 
L 629.688521 -159.867657 
L 629.745336 -157.53731 
L 629.756969 -155.206963 
L 629.702293 -152.876615 
L 629.569215 -150.546268 
L 629.355944 -148.215921 
L 629.070002 -145.885574 
L 628.726184 -143.555227 
L 628.344671 -141.22488 
L 627.949785 -138.894533 
L 627.568878 -136.564186 
L 627.230335 -134.233839 
L 626.959979 -131.903492 
L 626.776166 -129.573144 
L 626.68495 -127.242797 
L 626.677137 -124.91245 
L 626.72858 -122.582103 
L 626.803966 -120.251756 
L 626.863201 -117.921409 
L 626.868787 -115.591062 
L 626.792495 -113.260715 
L 626.619894 -110.930368 
L 626.351575 -108.60002 
L 626.000278 -106.269673 
L 625.583707 -103.939326 
L 625.113794 -101.608979 
L 624.584386 -99.278632 
L 623.960302 -96.948285 
L 623.170928 -94.617938 
L 622.110953 -92.287591 
L 620.649616 -89.957244 
L 618.648378 -87.626897 
L 615.985319 -85.296549 
L 612.582807 -82.966202 
L 608.433157 -80.635855 
L 603.615759 -78.305508 
L 598.299474 -75.975161 
L 592.726826 -73.644814 
L 587.181283 -71.314467 
L 581.944346 -68.98412 
L 577.252817 -66.653773 
L 573.266846 -64.323426 
L 570.055856 -61.993078 
L 567.603672 -59.662731 
L 565.828583 -57.332384 
L 564.610713 -55.002037 
z
" style="stroke: #4b4b4b; stroke-width: 1.25"/>
    </defs>
    <g clip-path="url(#pe5edbeccc2)">
     <use xlink:href="#mde5fb599ad" x="0" y="370.114219" style="fill: #42b874; stroke: #4b4b4b; stroke-width: 1.25"/>
    </g>
   </g>
   <g id="FillBetweenPolyCollection_2">
    <defs>
     <path id="m506662de79" d="M 755.034791 -51.154219 
L 750.325834 -51.154219 
L 749.031611 -53.5623 
L 747.221083 -55.97038 
L 744.788718 -58.378461 
L 741.650362 -60.786542 
L 737.761215 -63.194623 
L 733.13188 -65.602704 
L 727.83853 -68.010784 
L 722.023891 -70.418865 
L 715.887483 -72.826946 
L 709.665987 -75.235027 
L 703.607012 -77.643108 
L 697.941124 -80.051188 
L 692.857292 -82.459269 
L 688.485824 -84.86735 
L 684.890926 -87.275431 
L 682.072837 -89.683512 
L 679.97778 -92.091592 
L 678.513073 -94.499673 
L 677.564593 -96.907754 
L 677.014091 -99.315835 
L 676.754318 -101.723916 
L 676.700312 -104.131997 
L 676.795555 -106.540077 
L 677.012278 -108.948158 
L 677.346012 -111.356239 
L 677.805537 -113.76432 
L 678.400478 -116.172401 
L 679.129443 -118.580481 
L 679.971624 -120.988562 
L 680.883977 -123.396643 
L 681.804722 -125.804724 
L 682.662264 -128.212805 
L 683.387298 -130.620885 
L 683.925102 -133.028966 
L 684.245147 -135.437047 
L 684.345968 -137.845128 
L 684.254517 -140.253209 
L 684.0206 -142.661289 
L 683.707988 -145.06937 
L 683.384328 -147.477451 
L 683.111844 -149.885532 
L 682.940321 -152.293613 
L 682.903059 -154.701693 
L 683.015757 -157.109774 
L 683.277753 -159.517855 
L 683.674766 -161.925936 
L 684.182296 -164.334017 
L 684.76905 -166.742098 
L 685.400064 -169.150178 
L 686.039519 -171.558259 
L 686.653467 -173.96634 
L 687.21272 -176.374421 
L 687.696 -178.782502 
L 688.093098 -181.190582 
L 688.407454 -183.598663 
L 688.657363 -186.006744 
L 688.875136 -188.414825 
L 689.103953 -190.822906 
L 689.3928 -193.230986 
L 689.790357 -195.639067 
L 690.339006 -198.047148 
L 691.069926 -200.455229 
L 691.999792 -202.86331 
L 693.129086 -205.27139 
L 694.441702 -207.679471 
L 695.905498 -210.087552 
L 697.473724 -212.495633 
L 699.087491 -214.903714 
L 700.679618 -217.311795 
L 702.180015 -219.719875 
L 703.522401 -222.127956 
L 704.651763 -224.536037 
L 705.531601 -226.944118 
L 706.149942 -229.352199 
L 706.523191 -231.760279 
L 706.697147 -234.16836 
L 706.74489 -236.576441 
L 706.761598 -238.984522 
L 706.856779 -241.392603 
L 707.144708 -243.800683 
L 707.734076 -246.208764 
L 708.717914 -248.616845 
L 710.164685 -251.024926 
L 712.11128 -253.433007 
L 714.558395 -255.841087 
L 717.468714 -258.249168 
L 720.768279 -260.657249 
L 724.351338 -263.06533 
L 728.088747 -265.473411 
L 731.839438 -267.881491 
L 735.463799 -270.289572 
L 738.837159 -272.697653 
L 741.861285 -275.105734 
L 744.472007 -277.513815 
L 746.641828 -279.921896 
L 748.377449 -282.329976 
L 749.713188 -284.738057 
L 750.70197 -287.146138 
L 751.405826 -289.554219 
L 753.954799 -289.554219 
L 753.954799 -289.554219 
L 754.658655 -287.146138 
L 755.647437 -284.738057 
L 756.983176 -282.329976 
L 758.718797 -279.921896 
L 760.888618 -277.513815 
L 763.49934 -275.105734 
L 766.523466 -272.697653 
L 769.896826 -270.289572 
L 773.521187 -267.881491 
L 777.271878 -265.473411 
L 781.009287 -263.06533 
L 784.592346 -260.657249 
L 787.891911 -258.249168 
L 790.80223 -255.841087 
L 793.249345 -253.433007 
L 795.19594 -251.024926 
L 796.642711 -248.616845 
L 797.626549 -246.208764 
L 798.215917 -243.800683 
L 798.503846 -241.392603 
L 798.599027 -238.984522 
L 798.615735 -236.576441 
L 798.663478 -234.16836 
L 798.837434 -231.760279 
L 799.210683 -229.352199 
L 799.829024 -226.944118 
L 800.708862 -224.536037 
L 801.838224 -222.127956 
L 803.18061 -219.719875 
L 804.681007 -217.311795 
L 806.273134 -214.903714 
L 807.886901 -212.495633 
L 809.455127 -210.087552 
L 810.918923 -207.679471 
L 812.231539 -205.27139 
L 813.360833 -202.86331 
L 814.290699 -200.455229 
L 815.021619 -198.047148 
L 815.570268 -195.639067 
L 815.967825 -193.230986 
L 816.256672 -190.822906 
L 816.485489 -188.414825 
L 816.703262 -186.006744 
L 816.953171 -183.598663 
L 817.267527 -181.190582 
L 817.664625 -178.782502 
L 818.147905 -176.374421 
L 818.707158 -173.96634 
L 819.321106 -171.558259 
L 819.960561 -169.150178 
L 820.591575 -166.742098 
L 821.178329 -164.334017 
L 821.685859 -161.925936 
L 822.082872 -159.517855 
L 822.344868 -157.109774 
L 822.457566 -154.701693 
L 822.420304 -152.293613 
L 822.248781 -149.885532 
L 821.976297 -147.477451 
L 821.652637 -145.06937 
L 821.340025 -142.661289 
L 821.106108 -140.253209 
L 821.014657 -137.845128 
L 821.115478 -135.437047 
L 821.435523 -133.028966 
L 821.973327 -130.620885 
L 822.698361 -128.212805 
L 823.555903 -125.804724 
L 824.476648 -123.396643 
L 825.389001 -120.988562 
L 826.231182 -118.580481 
L 826.960147 -116.172401 
L 827.555088 -113.76432 
L 828.014613 -111.356239 
L 828.348347 -108.948158 
L 828.56507 -106.540077 
L 828.660312 -104.131997 
L 828.606307 -101.723916 
L 828.346534 -99.315835 
L 827.796032 -96.907754 
L 826.847552 -94.499673 
L 825.382845 -92.091592 
L 823.287788 -89.683512 
L 820.469699 -87.275431 
L 816.874801 -84.86735 
L 812.503333 -82.459269 
L 807.419501 -80.051188 
L 801.753613 -77.643108 
L 795.694638 -75.235027 
L 789.473142 -72.826946 
L 783.336734 -70.418865 
L 777.522095 -68.010784 
L 772.228745 -65.602704 
L 767.59941 -63.194623 
L 763.710263 -60.786542 
L 760.571907 -58.378461 
L 758.139542 -55.97038 
L 756.329014 -53.5623 
L 755.034791 -51.154219 
z
" style="stroke: #4b4b4b; stroke-width: 1.25"/>
    </defs>
    <g clip-path="url(#pe5edbeccc2)">
     <use xlink:href="#m506662de79" x="0" y="370.114219" style="fill: #d25d51; stroke: #4b4b4b; stroke-width: 1.25"/>
    </g>
   </g>
   <g id="line2d_26">
    <path d="M 498.781837 244.70944 
L 626.678788 244.70944 
" clip-path="url(#pe5edbeccc2)" style="fill: none; stroke-dasharray: 1.5625,0.9375; stroke-dashoffset: 0; stroke: #4b4b4b; stroke-width: 1.25"/>
   </g>
   <g id="line2d_27">
    <path d="M 495.843615 194.471831 
L 629.61701 194.471831 
" clip-path="url(#pe5edbeccc2)" style="fill: none; stroke-dasharray: 3.125,1.25; stroke-dashoffset: 0; stroke: #4b4b4b; stroke-width: 1.25"/>
   </g>
   <g id="line2d_28">
    <path d="M 489.228876 146.878306 
L 636.231749 146.878306 
" clip-path="url(#pe5edbeccc2)" style="fill: none; stroke-dasharray: 1.5625,0.9375; stroke-dashoffset: 0; stroke: #4b4b4b; stroke-width: 1.25"/>
   </g>
   <g id="line2d_29">
    <path d="M 678.068439 255.285778 
L 827.292186 255.285778 
" clip-path="url(#pe5edbeccc2)" style="fill: none; stroke-dasharray: 1.5625,0.9375; stroke-dashoffset: 0; stroke: #4b4b4b; stroke-width: 1.25"/>
   </g>
   <g id="line2d_30">
    <path d="M 683.01837 212.980423 
L 822.342255 212.980423 
" clip-path="url(#pe5edbeccc2)" style="fill: none; stroke-dasharray: 3.125,1.25; stroke-dashoffset: 0; stroke: #4b4b4b; stroke-width: 1.25"/>
   </g>
   <g id="line2d_31">
    <path d="M 692.873939 165.386899 
L 812.486686 165.386899 
" clip-path="url(#pe5edbeccc2)" style="fill: none; stroke-dasharray: 1.5625,0.9375; stroke-dashoffset: 0; stroke: #4b4b4b; stroke-width: 1.25"/>
   </g>
   <g id="patch_12">
    <path d="M 467.755312 330.88 
L 467.755312 68.64 
" style="fill: none; stroke: #cccccc; stroke-width: 0.8; stroke-linejoin: miter; stroke-linecap: square"/>
   </g>
   <g id="patch_13">
    <path d="M 847.655312 330.88 
L 847.655312 68.64 
" style="fill: none; stroke: #cccccc; stroke-width: 0.8; stroke-linejoin: miter; stroke-linecap: square"/>
   </g>
   <g id="patch_14">
    <path d="M 467.755312 330.88 
L 847.655312 330.88 
" style="fill: none; stroke: #cccccc; stroke-width: 0.8; stroke-linejoin: miter; stroke-linecap: square"/>
   </g>
   <g id="patch_15">
    <path d="M 467.755312 68.64 
L 847.655312 68.64 
" style="fill: none; stroke: #cccccc; stroke-width: 0.8; stroke-linejoin: miter; stroke-linecap: square"/>
   </g>
   <g id="text_25">
    <!-- Tenure vs Churn (Violin) -->
    <g style="fill: #262626" transform="translate(577.066406 62.64) scale(0.14 -0.14)">
     <defs>
      <path id="Arial-BoldMT-56" d="M 1634 0 
L -3 4581 
L 1000 4581 
L 2159 1191 
L 3281 4581 
L 4263 4581 
L 2622 0 
L 1634 0 
z
" transform="scale(0.015625)"/>
     </defs>
     <use xlink:href="#Arial-BoldMT-54"/>
     <use xlink:href="#Arial-BoldMT-65" transform="translate(53.708984 0)"/>
     <use xlink:href="#Arial-BoldMT-6e" transform="translate(109.324219 0)"/>
     <use xlink:href="#Arial-BoldMT-75" transform="translate(170.408203 0)"/>
     <use xlink:href="#Arial-BoldMT-72" transform="translate(231.492188 0)"/>
     <use xlink:href="#Arial-BoldMT-65" transform="translate(270.408203 0)"/>
     <use xlink:href="#Arial-BoldMT-20" transform="translate(326.023438 0)"/>
     <use xlink:href="#Arial-BoldMT-76" transform="translate(353.806641 0)"/>
     <use xlink:href="#Arial-BoldMT-73" transform="translate(409.421875 0)"/>
     <use xlink:href="#Arial-BoldMT-20" transform="translate(465.037109 0)"/>
     <use xlink:href="#Arial-BoldMT-43" transform="translate(492.820312 0)"/>
     <use xlink:href="#Arial-BoldMT-68" transform="translate(565.037109 0)"/>
     <use xlink:href="#Arial-BoldMT-75" transform="translate(626.121094 0)"/>
     <use xlink:href="#Arial-BoldMT-72" transform="translate(687.205078 0)"/>
     <use xlink:href="#Arial-BoldMT-6e" transform="translate(726.121094 0)"/>
     <use xlink:href="#Arial-BoldMT-20" transform="translate(787.205078 0)"/>
     <use xlink:href="#Arial-BoldMT-28" transform="translate(814.988281 0)"/>
     <use xlink:href="#Arial-BoldMT-56" transform="translate(848.289062 0)"/>
     <use xlink:href="#Arial-BoldMT-69" transform="translate(913.238281 0)"/>
     <use xlink:href="#Arial-BoldMT-6f" transform="translate(941.021484 0)"/>
     <use xlink:href="#Arial-BoldMT-6c" transform="translate(1002.105469 0)"/>
     <use xlink:href="#Arial-BoldMT-69" transform="translate(1029.888672 0)"/>
     <use xlink:href="#Arial-BoldMT-6e" transform="translate(1057.671875 0)"/>
     <use xlink:href="#Arial-BoldMT-29" transform="translate(1118.755859 0)"/>
    </g>
   </g>
  </g>
  <g id="text_26">
   <!-- Tenure - Churned vs Retained -->
   <g style="fill: #262626" transform="translate(321.411484 17.936719) scale(0.15 -0.15)">
    <defs>
     <path id="Arial-BoldMT-2d" d="M 359 1222 
L 359 2100 
L 2084 2100 
L 2084 1222 
L 359 1222 
z
" transform="scale(0.015625)"/>
     <path id="Arial-BoldMT-52" d="M 469 0 
L 469 4581 
L 2416 4581 
Q 3150 4581 3483 4457 
Q 3816 4334 4016 4018 
Q 4216 3703 4216 3297 
Q 4216 2781 3912 2445 
Q 3609 2109 3006 2022 
Q 3306 1847 3501 1637 
Q 3697 1428 4028 894 
L 4588 0 
L 3481 0 
L 2813 997 
Q 2456 1531 2325 1670 
Q 2194 1809 2047 1861 
Q 1900 1913 1581 1913 
L 1394 1913 
L 1394 0 
L 469 0 
z
M 1394 2644 
L 2078 2644 
Q 2744 2644 2909 2700 
Q 3075 2756 3169 2893 
Q 3263 3031 3263 3238 
Q 3263 3469 3139 3611 
Q 3016 3753 2791 3791 
Q 2678 3806 2116 3806 
L 1394 3806 
L 1394 2644 
z
" transform="scale(0.015625)"/>
    </defs>
    <use xlink:href="#Arial-BoldMT-54"/>
    <use xlink:href="#Arial-BoldMT-65" transform="translate(53.708984 0)"/>
    <use xlink:href="#Arial-BoldMT-6e" transform="translate(109.324219 0)"/>
    <use xlink:href="#Arial-BoldMT-75" transform="translate(170.408203 0)"/>
    <use xlink:href="#Arial-BoldMT-72" transform="translate(231.492188 0)"/>
    <use xlink:href="#Arial-BoldMT-65" transform="translate(270.408203 0)"/>
    <use xlink:href="#Arial-BoldMT-20" transform="translate(326.023438 0)"/>
    <use xlink:href="#Arial-BoldMT-2d" transform="translate(353.806641 0)"/>
    <use xlink:href="#Arial-BoldMT-20" transform="translate(387.107422 0)"/>
    <use xlink:href="#Arial-BoldMT-43" transform="translate(414.890625 0)"/>
    <use xlink:href="#Arial-BoldMT-68" transform="translate(487.107422 0)"/>
    <use xlink:href="#Arial-BoldMT-75" transform="translate(548.191406 0)"/>
    <use xlink:href="#Arial-BoldMT-72" transform="translate(609.275391 0)"/>
    <use xlink:href="#Arial-BoldMT-6e" transform="translate(648.191406 0)"/>
    <use xlink:href="#Arial-BoldMT-65" transform="translate(709.275391 0)"/>
    <use xlink:href="#Arial-BoldMT-64" transform="translate(764.890625 0)"/>
    <use xlink:href="#Arial-BoldMT-20" transform="translate(825.974609 0)"/>
    <use xlink:href="#Arial-BoldMT-76" transform="translate(853.757812 0)"/>
    <use xlink:href="#Arial-BoldMT-73" transform="translate(909.373047 0)"/>
    <use xlink:href="#Arial-BoldMT-20" transform="translate(964.988281 0)"/>
    <use xlink:href="#Arial-BoldMT-52" transform="translate(992.771484 0)"/>
    <use xlink:href="#Arial-BoldMT-65" transform="translate(1064.988281 0)"/>
    <use xlink:href="#Arial-BoldMT-74" transform="translate(1120.603516 0)"/>
    <use xlink:href="#Arial-BoldMT-61" transform="translate(1153.904297 0)"/>
    <use xlink:href="#Arial-BoldMT-69" transform="translate(1209.519531 0)"/>
    <use xlink:href="#Arial-BoldMT-6e" transform="translate(1237.302734 0)"/>
    <use xlink:href="#Arial-BoldMT-65" transform="translate(1298.386719 0)"/>
    <use xlink:href="#Arial-BoldMT-64" transform="translate(1354.001953 0)"/>
   </g>
  </g>
 </g>
 <defs>
  <clipPath id="p0a567e4d84">
   <rect x="41.695313" y="68.64" width="379.9" height="262.24"/>
  </clipPath>
  <clipPath id="pe5edbeccc2">
   <rect x="467.755312" y="68.64" width="379.9" height="262.24"/>
  </clipPath>
 </defs>
</svg>
